%TF.GenerationSoftware,KiCad,Pcbnew,7.0.1*%
%TF.CreationDate,2023-04-22T15:39:36-05:00*%
%TF.ProjectId,HW4,4857342e-6b69-4636-9164-5f7063625858,rev?*%
%TF.SameCoordinates,Original*%
%TF.FileFunction,Legend,Top*%
%TF.FilePolarity,Positive*%
%FSLAX46Y46*%
G04 Gerber Fmt 4.6, Leading zero omitted, Abs format (unit mm)*
G04 Created by KiCad (PCBNEW 7.0.1) date 2023-04-22 15:39:36*
%MOMM*%
%LPD*%
G01*
G04 APERTURE LIST*
%ADD10C,0.150000*%
%ADD11C,0.100000*%
%ADD12C,0.120000*%
%ADD13C,0.400000*%
%TA.AperFunction,Profile*%
%ADD14C,0.100000*%
%TD*%
G04 APERTURE END LIST*
D10*
X101200169Y-144192484D02*
X101133502Y-144154389D01*
X101133502Y-144154389D02*
X101033502Y-144154389D01*
X101033502Y-144154389D02*
X100933502Y-144192484D01*
X100933502Y-144192484D02*
X100866836Y-144268674D01*
X100866836Y-144268674D02*
X100833502Y-144344865D01*
X100833502Y-144344865D02*
X100800169Y-144497246D01*
X100800169Y-144497246D02*
X100800169Y-144611532D01*
X100800169Y-144611532D02*
X100833502Y-144763913D01*
X100833502Y-144763913D02*
X100866836Y-144840103D01*
X100866836Y-144840103D02*
X100933502Y-144916294D01*
X100933502Y-144916294D02*
X101033502Y-144954389D01*
X101033502Y-144954389D02*
X101100169Y-144954389D01*
X101100169Y-144954389D02*
X101200169Y-144916294D01*
X101200169Y-144916294D02*
X101233502Y-144878198D01*
X101233502Y-144878198D02*
X101233502Y-144611532D01*
X101233502Y-144611532D02*
X101100169Y-144611532D01*
X101533502Y-144954389D02*
X101533502Y-144154389D01*
X101533502Y-144154389D02*
X101933502Y-144954389D01*
X101933502Y-144954389D02*
X101933502Y-144154389D01*
X102266835Y-144954389D02*
X102266835Y-144154389D01*
X102266835Y-144154389D02*
X102433502Y-144154389D01*
X102433502Y-144154389D02*
X102533502Y-144192484D01*
X102533502Y-144192484D02*
X102600169Y-144268674D01*
X102600169Y-144268674D02*
X102633502Y-144344865D01*
X102633502Y-144344865D02*
X102666835Y-144497246D01*
X102666835Y-144497246D02*
X102666835Y-144611532D01*
X102666835Y-144611532D02*
X102633502Y-144763913D01*
X102633502Y-144763913D02*
X102600169Y-144840103D01*
X102600169Y-144840103D02*
X102533502Y-144916294D01*
X102533502Y-144916294D02*
X102433502Y-144954389D01*
X102433502Y-144954389D02*
X102266835Y-144954389D01*
X103091019Y-138712742D02*
X103524352Y-138712742D01*
X103524352Y-138712742D02*
X103291019Y-139017504D01*
X103291019Y-139017504D02*
X103391019Y-139017504D01*
X103391019Y-139017504D02*
X103457685Y-139055599D01*
X103457685Y-139055599D02*
X103491019Y-139093694D01*
X103491019Y-139093694D02*
X103524352Y-139169885D01*
X103524352Y-139169885D02*
X103524352Y-139360361D01*
X103524352Y-139360361D02*
X103491019Y-139436551D01*
X103491019Y-139436551D02*
X103457685Y-139474647D01*
X103457685Y-139474647D02*
X103391019Y-139512742D01*
X103391019Y-139512742D02*
X103191019Y-139512742D01*
X103191019Y-139512742D02*
X103124352Y-139474647D01*
X103124352Y-139474647D02*
X103091019Y-139436551D01*
X103824352Y-139436551D02*
X103857686Y-139474647D01*
X103857686Y-139474647D02*
X103824352Y-139512742D01*
X103824352Y-139512742D02*
X103791019Y-139474647D01*
X103791019Y-139474647D02*
X103824352Y-139436551D01*
X103824352Y-139436551D02*
X103824352Y-139512742D01*
X104091019Y-138712742D02*
X104524352Y-138712742D01*
X104524352Y-138712742D02*
X104291019Y-139017504D01*
X104291019Y-139017504D02*
X104391019Y-139017504D01*
X104391019Y-139017504D02*
X104457685Y-139055599D01*
X104457685Y-139055599D02*
X104491019Y-139093694D01*
X104491019Y-139093694D02*
X104524352Y-139169885D01*
X104524352Y-139169885D02*
X104524352Y-139360361D01*
X104524352Y-139360361D02*
X104491019Y-139436551D01*
X104491019Y-139436551D02*
X104457685Y-139474647D01*
X104457685Y-139474647D02*
X104391019Y-139512742D01*
X104391019Y-139512742D02*
X104191019Y-139512742D01*
X104191019Y-139512742D02*
X104124352Y-139474647D01*
X104124352Y-139474647D02*
X104091019Y-139436551D01*
X104724352Y-138712742D02*
X104957686Y-139512742D01*
X104957686Y-139512742D02*
X105191019Y-138712742D01*
X103876517Y-136428236D02*
X103076517Y-136661570D01*
X103076517Y-136661570D02*
X103876517Y-136894903D01*
X103076517Y-137128236D02*
X103876517Y-137128236D01*
X103076517Y-137461569D02*
X103876517Y-137461569D01*
X103876517Y-137461569D02*
X103076517Y-137861569D01*
X103076517Y-137861569D02*
X103876517Y-137861569D01*
X103557421Y-134497773D02*
X103657421Y-134535868D01*
X103657421Y-134535868D02*
X103690754Y-134573964D01*
X103690754Y-134573964D02*
X103724087Y-134650154D01*
X103724087Y-134650154D02*
X103724087Y-134764440D01*
X103724087Y-134764440D02*
X103690754Y-134840630D01*
X103690754Y-134840630D02*
X103657421Y-134878726D01*
X103657421Y-134878726D02*
X103590754Y-134916821D01*
X103590754Y-134916821D02*
X103324087Y-134916821D01*
X103324087Y-134916821D02*
X103324087Y-134116821D01*
X103324087Y-134116821D02*
X103557421Y-134116821D01*
X103557421Y-134116821D02*
X103624087Y-134154916D01*
X103624087Y-134154916D02*
X103657421Y-134193011D01*
X103657421Y-134193011D02*
X103690754Y-134269202D01*
X103690754Y-134269202D02*
X103690754Y-134345392D01*
X103690754Y-134345392D02*
X103657421Y-134421583D01*
X103657421Y-134421583D02*
X103624087Y-134459678D01*
X103624087Y-134459678D02*
X103557421Y-134497773D01*
X103557421Y-134497773D02*
X103324087Y-134497773D01*
X104324087Y-134116821D02*
X104190754Y-134116821D01*
X104190754Y-134116821D02*
X104124087Y-134154916D01*
X104124087Y-134154916D02*
X104090754Y-134193011D01*
X104090754Y-134193011D02*
X104024087Y-134307297D01*
X104024087Y-134307297D02*
X103990754Y-134459678D01*
X103990754Y-134459678D02*
X103990754Y-134764440D01*
X103990754Y-134764440D02*
X104024087Y-134840630D01*
X104024087Y-134840630D02*
X104057421Y-134878726D01*
X104057421Y-134878726D02*
X104124087Y-134916821D01*
X104124087Y-134916821D02*
X104257421Y-134916821D01*
X104257421Y-134916821D02*
X104324087Y-134878726D01*
X104324087Y-134878726D02*
X104357421Y-134840630D01*
X104357421Y-134840630D02*
X104390754Y-134764440D01*
X104390754Y-134764440D02*
X104390754Y-134573964D01*
X104390754Y-134573964D02*
X104357421Y-134497773D01*
X104357421Y-134497773D02*
X104324087Y-134459678D01*
X104324087Y-134459678D02*
X104257421Y-134421583D01*
X104257421Y-134421583D02*
X104124087Y-134421583D01*
X104124087Y-134421583D02*
X104057421Y-134459678D01*
X104057421Y-134459678D02*
X104024087Y-134497773D01*
X104024087Y-134497773D02*
X103990754Y-134573964D01*
X103412039Y-131404485D02*
X103412039Y-131785438D01*
X103178705Y-130985438D02*
X103412039Y-131404485D01*
X103412039Y-131404485D02*
X103645372Y-130985438D01*
X103878705Y-131366390D02*
X104112039Y-131366390D01*
X104212039Y-131785438D02*
X103878705Y-131785438D01*
X103878705Y-131785438D02*
X103878705Y-130985438D01*
X103878705Y-130985438D02*
X104212039Y-130985438D01*
X104845372Y-131785438D02*
X104512038Y-131785438D01*
X104512038Y-131785438D02*
X104512038Y-130985438D01*
X105412039Y-131785438D02*
X105078705Y-131785438D01*
X105078705Y-131785438D02*
X105078705Y-130985438D01*
X105778706Y-130985438D02*
X105912039Y-130985438D01*
X105912039Y-130985438D02*
X105978706Y-131023533D01*
X105978706Y-131023533D02*
X106045372Y-131099723D01*
X106045372Y-131099723D02*
X106078706Y-131252104D01*
X106078706Y-131252104D02*
X106078706Y-131518771D01*
X106078706Y-131518771D02*
X106045372Y-131671152D01*
X106045372Y-131671152D02*
X105978706Y-131747343D01*
X105978706Y-131747343D02*
X105912039Y-131785438D01*
X105912039Y-131785438D02*
X105778706Y-131785438D01*
X105778706Y-131785438D02*
X105712039Y-131747343D01*
X105712039Y-131747343D02*
X105645372Y-131671152D01*
X105645372Y-131671152D02*
X105612039Y-131518771D01*
X105612039Y-131518771D02*
X105612039Y-131252104D01*
X105612039Y-131252104D02*
X105645372Y-131099723D01*
X105645372Y-131099723D02*
X105712039Y-131023533D01*
X105712039Y-131023533D02*
X105778706Y-130985438D01*
X106312039Y-130985438D02*
X106478705Y-131785438D01*
X106478705Y-131785438D02*
X106612039Y-131214009D01*
X106612039Y-131214009D02*
X106745372Y-131785438D01*
X106745372Y-131785438D02*
X106912039Y-130985438D01*
X103554607Y-128992117D02*
X103487940Y-128954022D01*
X103487940Y-128954022D02*
X103387940Y-128954022D01*
X103387940Y-128954022D02*
X103287940Y-128992117D01*
X103287940Y-128992117D02*
X103221274Y-129068307D01*
X103221274Y-129068307D02*
X103187940Y-129144498D01*
X103187940Y-129144498D02*
X103154607Y-129296879D01*
X103154607Y-129296879D02*
X103154607Y-129411165D01*
X103154607Y-129411165D02*
X103187940Y-129563546D01*
X103187940Y-129563546D02*
X103221274Y-129639736D01*
X103221274Y-129639736D02*
X103287940Y-129715927D01*
X103287940Y-129715927D02*
X103387940Y-129754022D01*
X103387940Y-129754022D02*
X103454607Y-129754022D01*
X103454607Y-129754022D02*
X103554607Y-129715927D01*
X103554607Y-129715927D02*
X103587940Y-129677831D01*
X103587940Y-129677831D02*
X103587940Y-129411165D01*
X103587940Y-129411165D02*
X103454607Y-129411165D01*
X104287940Y-129754022D02*
X104054607Y-129373069D01*
X103887940Y-129754022D02*
X103887940Y-128954022D01*
X103887940Y-128954022D02*
X104154607Y-128954022D01*
X104154607Y-128954022D02*
X104221274Y-128992117D01*
X104221274Y-128992117D02*
X104254607Y-129030212D01*
X104254607Y-129030212D02*
X104287940Y-129106403D01*
X104287940Y-129106403D02*
X104287940Y-129220688D01*
X104287940Y-129220688D02*
X104254607Y-129296879D01*
X104254607Y-129296879D02*
X104221274Y-129334974D01*
X104221274Y-129334974D02*
X104154607Y-129373069D01*
X104154607Y-129373069D02*
X103887940Y-129373069D01*
X104587940Y-129334974D02*
X104821274Y-129334974D01*
X104921274Y-129754022D02*
X104587940Y-129754022D01*
X104587940Y-129754022D02*
X104587940Y-128954022D01*
X104587940Y-128954022D02*
X104921274Y-128954022D01*
X105221273Y-129334974D02*
X105454607Y-129334974D01*
X105554607Y-129754022D02*
X105221273Y-129754022D01*
X105221273Y-129754022D02*
X105221273Y-128954022D01*
X105221273Y-128954022D02*
X105554607Y-128954022D01*
X105854606Y-129754022D02*
X105854606Y-128954022D01*
X105854606Y-128954022D02*
X106254606Y-129754022D01*
X106254606Y-129754022D02*
X106254606Y-128954022D01*
X103060476Y-126591904D02*
X103536666Y-126591904D01*
X102965238Y-126877619D02*
X103298571Y-125877619D01*
X103298571Y-125877619D02*
X103631904Y-126877619D01*
X103870000Y-125877619D02*
X104489047Y-125877619D01*
X104489047Y-125877619D02*
X104155714Y-126258571D01*
X104155714Y-126258571D02*
X104298571Y-126258571D01*
X104298571Y-126258571D02*
X104393809Y-126306190D01*
X104393809Y-126306190D02*
X104441428Y-126353809D01*
X104441428Y-126353809D02*
X104489047Y-126449047D01*
X104489047Y-126449047D02*
X104489047Y-126687142D01*
X104489047Y-126687142D02*
X104441428Y-126782380D01*
X104441428Y-126782380D02*
X104393809Y-126830000D01*
X104393809Y-126830000D02*
X104298571Y-126877619D01*
X104298571Y-126877619D02*
X104012857Y-126877619D01*
X104012857Y-126877619D02*
X103917619Y-126830000D01*
X103917619Y-126830000D02*
X103870000Y-126782380D01*
X103441428Y-123813809D02*
X103584285Y-123861428D01*
X103584285Y-123861428D02*
X103631904Y-123909047D01*
X103631904Y-123909047D02*
X103679523Y-124004285D01*
X103679523Y-124004285D02*
X103679523Y-124147142D01*
X103679523Y-124147142D02*
X103631904Y-124242380D01*
X103631904Y-124242380D02*
X103584285Y-124290000D01*
X103584285Y-124290000D02*
X103489047Y-124337619D01*
X103489047Y-124337619D02*
X103108095Y-124337619D01*
X103108095Y-124337619D02*
X103108095Y-123337619D01*
X103108095Y-123337619D02*
X103441428Y-123337619D01*
X103441428Y-123337619D02*
X103536666Y-123385238D01*
X103536666Y-123385238D02*
X103584285Y-123432857D01*
X103584285Y-123432857D02*
X103631904Y-123528095D01*
X103631904Y-123528095D02*
X103631904Y-123623333D01*
X103631904Y-123623333D02*
X103584285Y-123718571D01*
X103584285Y-123718571D02*
X103536666Y-123766190D01*
X103536666Y-123766190D02*
X103441428Y-123813809D01*
X103441428Y-123813809D02*
X103108095Y-123813809D01*
X104060476Y-123432857D02*
X104108095Y-123385238D01*
X104108095Y-123385238D02*
X104203333Y-123337619D01*
X104203333Y-123337619D02*
X104441428Y-123337619D01*
X104441428Y-123337619D02*
X104536666Y-123385238D01*
X104536666Y-123385238D02*
X104584285Y-123432857D01*
X104584285Y-123432857D02*
X104631904Y-123528095D01*
X104631904Y-123528095D02*
X104631904Y-123623333D01*
X104631904Y-123623333D02*
X104584285Y-123766190D01*
X104584285Y-123766190D02*
X104012857Y-124337619D01*
X104012857Y-124337619D02*
X104631904Y-124337619D01*
X103441428Y-121273809D02*
X103584285Y-121321428D01*
X103584285Y-121321428D02*
X103631904Y-121369047D01*
X103631904Y-121369047D02*
X103679523Y-121464285D01*
X103679523Y-121464285D02*
X103679523Y-121607142D01*
X103679523Y-121607142D02*
X103631904Y-121702380D01*
X103631904Y-121702380D02*
X103584285Y-121750000D01*
X103584285Y-121750000D02*
X103489047Y-121797619D01*
X103489047Y-121797619D02*
X103108095Y-121797619D01*
X103108095Y-121797619D02*
X103108095Y-120797619D01*
X103108095Y-120797619D02*
X103441428Y-120797619D01*
X103441428Y-120797619D02*
X103536666Y-120845238D01*
X103536666Y-120845238D02*
X103584285Y-120892857D01*
X103584285Y-120892857D02*
X103631904Y-120988095D01*
X103631904Y-120988095D02*
X103631904Y-121083333D01*
X103631904Y-121083333D02*
X103584285Y-121178571D01*
X103584285Y-121178571D02*
X103536666Y-121226190D01*
X103536666Y-121226190D02*
X103441428Y-121273809D01*
X103441428Y-121273809D02*
X103108095Y-121273809D01*
X104631904Y-121797619D02*
X104060476Y-121797619D01*
X104346190Y-121797619D02*
X104346190Y-120797619D01*
X104346190Y-120797619D02*
X104250952Y-120940476D01*
X104250952Y-120940476D02*
X104155714Y-121035714D01*
X104155714Y-121035714D02*
X104060476Y-121083333D01*
X103441428Y-118733809D02*
X103584285Y-118781428D01*
X103584285Y-118781428D02*
X103631904Y-118829047D01*
X103631904Y-118829047D02*
X103679523Y-118924285D01*
X103679523Y-118924285D02*
X103679523Y-119067142D01*
X103679523Y-119067142D02*
X103631904Y-119162380D01*
X103631904Y-119162380D02*
X103584285Y-119210000D01*
X103584285Y-119210000D02*
X103489047Y-119257619D01*
X103489047Y-119257619D02*
X103108095Y-119257619D01*
X103108095Y-119257619D02*
X103108095Y-118257619D01*
X103108095Y-118257619D02*
X103441428Y-118257619D01*
X103441428Y-118257619D02*
X103536666Y-118305238D01*
X103536666Y-118305238D02*
X103584285Y-118352857D01*
X103584285Y-118352857D02*
X103631904Y-118448095D01*
X103631904Y-118448095D02*
X103631904Y-118543333D01*
X103631904Y-118543333D02*
X103584285Y-118638571D01*
X103584285Y-118638571D02*
X103536666Y-118686190D01*
X103536666Y-118686190D02*
X103441428Y-118733809D01*
X103441428Y-118733809D02*
X103108095Y-118733809D01*
X104298571Y-118257619D02*
X104393809Y-118257619D01*
X104393809Y-118257619D02*
X104489047Y-118305238D01*
X104489047Y-118305238D02*
X104536666Y-118352857D01*
X104536666Y-118352857D02*
X104584285Y-118448095D01*
X104584285Y-118448095D02*
X104631904Y-118638571D01*
X104631904Y-118638571D02*
X104631904Y-118876666D01*
X104631904Y-118876666D02*
X104584285Y-119067142D01*
X104584285Y-119067142D02*
X104536666Y-119162380D01*
X104536666Y-119162380D02*
X104489047Y-119210000D01*
X104489047Y-119210000D02*
X104393809Y-119257619D01*
X104393809Y-119257619D02*
X104298571Y-119257619D01*
X104298571Y-119257619D02*
X104203333Y-119210000D01*
X104203333Y-119210000D02*
X104155714Y-119162380D01*
X104155714Y-119162380D02*
X104108095Y-119067142D01*
X104108095Y-119067142D02*
X104060476Y-118876666D01*
X104060476Y-118876666D02*
X104060476Y-118638571D01*
X104060476Y-118638571D02*
X104108095Y-118448095D01*
X104108095Y-118448095D02*
X104155714Y-118352857D01*
X104155714Y-118352857D02*
X104203333Y-118305238D01*
X104203333Y-118305238D02*
X104298571Y-118257619D01*
X103060476Y-116431904D02*
X103536666Y-116431904D01*
X102965238Y-116717619D02*
X103298571Y-115717619D01*
X103298571Y-115717619D02*
X103631904Y-116717619D01*
X104489047Y-116717619D02*
X103917619Y-116717619D01*
X104203333Y-116717619D02*
X104203333Y-115717619D01*
X104203333Y-115717619D02*
X104108095Y-115860476D01*
X104108095Y-115860476D02*
X104012857Y-115955714D01*
X104012857Y-115955714D02*
X103917619Y-116003333D01*
X103060476Y-113891904D02*
X103536666Y-113891904D01*
X102965238Y-114177619D02*
X103298571Y-113177619D01*
X103298571Y-113177619D02*
X103631904Y-114177619D01*
X104155714Y-113177619D02*
X104250952Y-113177619D01*
X104250952Y-113177619D02*
X104346190Y-113225238D01*
X104346190Y-113225238D02*
X104393809Y-113272857D01*
X104393809Y-113272857D02*
X104441428Y-113368095D01*
X104441428Y-113368095D02*
X104489047Y-113558571D01*
X104489047Y-113558571D02*
X104489047Y-113796666D01*
X104489047Y-113796666D02*
X104441428Y-113987142D01*
X104441428Y-113987142D02*
X104393809Y-114082380D01*
X104393809Y-114082380D02*
X104346190Y-114130000D01*
X104346190Y-114130000D02*
X104250952Y-114177619D01*
X104250952Y-114177619D02*
X104155714Y-114177619D01*
X104155714Y-114177619D02*
X104060476Y-114130000D01*
X104060476Y-114130000D02*
X104012857Y-114082380D01*
X104012857Y-114082380D02*
X103965238Y-113987142D01*
X103965238Y-113987142D02*
X103917619Y-113796666D01*
X103917619Y-113796666D02*
X103917619Y-113558571D01*
X103917619Y-113558571D02*
X103965238Y-113368095D01*
X103965238Y-113368095D02*
X104012857Y-113272857D01*
X104012857Y-113272857D02*
X104060476Y-113225238D01*
X104060476Y-113225238D02*
X104155714Y-113177619D01*
X143764285Y-141165238D02*
X143669047Y-141117619D01*
X143669047Y-141117619D02*
X143526190Y-141117619D01*
X143526190Y-141117619D02*
X143383333Y-141165238D01*
X143383333Y-141165238D02*
X143288095Y-141260476D01*
X143288095Y-141260476D02*
X143240476Y-141355714D01*
X143240476Y-141355714D02*
X143192857Y-141546190D01*
X143192857Y-141546190D02*
X143192857Y-141689047D01*
X143192857Y-141689047D02*
X143240476Y-141879523D01*
X143240476Y-141879523D02*
X143288095Y-141974761D01*
X143288095Y-141974761D02*
X143383333Y-142070000D01*
X143383333Y-142070000D02*
X143526190Y-142117619D01*
X143526190Y-142117619D02*
X143621428Y-142117619D01*
X143621428Y-142117619D02*
X143764285Y-142070000D01*
X143764285Y-142070000D02*
X143811904Y-142022380D01*
X143811904Y-142022380D02*
X143811904Y-141689047D01*
X143811904Y-141689047D02*
X143621428Y-141689047D01*
X144240476Y-142117619D02*
X144240476Y-141117619D01*
X144240476Y-141117619D02*
X144811904Y-142117619D01*
X144811904Y-142117619D02*
X144811904Y-141117619D01*
X145288095Y-142117619D02*
X145288095Y-141117619D01*
X145288095Y-141117619D02*
X145526190Y-141117619D01*
X145526190Y-141117619D02*
X145669047Y-141165238D01*
X145669047Y-141165238D02*
X145764285Y-141260476D01*
X145764285Y-141260476D02*
X145811904Y-141355714D01*
X145811904Y-141355714D02*
X145859523Y-141546190D01*
X145859523Y-141546190D02*
X145859523Y-141689047D01*
X145859523Y-141689047D02*
X145811904Y-141879523D01*
X145811904Y-141879523D02*
X145764285Y-141974761D01*
X145764285Y-141974761D02*
X145669047Y-142070000D01*
X145669047Y-142070000D02*
X145526190Y-142117619D01*
X145526190Y-142117619D02*
X145288095Y-142117619D01*
X142954762Y-138577619D02*
X143573809Y-138577619D01*
X143573809Y-138577619D02*
X143240476Y-138958571D01*
X143240476Y-138958571D02*
X143383333Y-138958571D01*
X143383333Y-138958571D02*
X143478571Y-139006190D01*
X143478571Y-139006190D02*
X143526190Y-139053809D01*
X143526190Y-139053809D02*
X143573809Y-139149047D01*
X143573809Y-139149047D02*
X143573809Y-139387142D01*
X143573809Y-139387142D02*
X143526190Y-139482380D01*
X143526190Y-139482380D02*
X143478571Y-139530000D01*
X143478571Y-139530000D02*
X143383333Y-139577619D01*
X143383333Y-139577619D02*
X143097619Y-139577619D01*
X143097619Y-139577619D02*
X143002381Y-139530000D01*
X143002381Y-139530000D02*
X142954762Y-139482380D01*
X144002381Y-139482380D02*
X144050000Y-139530000D01*
X144050000Y-139530000D02*
X144002381Y-139577619D01*
X144002381Y-139577619D02*
X143954762Y-139530000D01*
X143954762Y-139530000D02*
X144002381Y-139482380D01*
X144002381Y-139482380D02*
X144002381Y-139577619D01*
X144383333Y-138577619D02*
X145002380Y-138577619D01*
X145002380Y-138577619D02*
X144669047Y-138958571D01*
X144669047Y-138958571D02*
X144811904Y-138958571D01*
X144811904Y-138958571D02*
X144907142Y-139006190D01*
X144907142Y-139006190D02*
X144954761Y-139053809D01*
X144954761Y-139053809D02*
X145002380Y-139149047D01*
X145002380Y-139149047D02*
X145002380Y-139387142D01*
X145002380Y-139387142D02*
X144954761Y-139482380D01*
X144954761Y-139482380D02*
X144907142Y-139530000D01*
X144907142Y-139530000D02*
X144811904Y-139577619D01*
X144811904Y-139577619D02*
X144526190Y-139577619D01*
X144526190Y-139577619D02*
X144430952Y-139530000D01*
X144430952Y-139530000D02*
X144383333Y-139482380D01*
X145288095Y-138577619D02*
X145621428Y-139577619D01*
X145621428Y-139577619D02*
X145954761Y-138577619D01*
X144074251Y-135992236D02*
X144407584Y-136992236D01*
X144407584Y-136992236D02*
X144740917Y-135992236D01*
X145074251Y-136992236D02*
X145074251Y-136325569D01*
X145074251Y-135992236D02*
X145026632Y-136039855D01*
X145026632Y-136039855D02*
X145074251Y-136087474D01*
X145074251Y-136087474D02*
X145121870Y-136039855D01*
X145121870Y-136039855D02*
X145074251Y-135992236D01*
X145074251Y-135992236D02*
X145074251Y-136087474D01*
X145550441Y-136325569D02*
X145550441Y-136992236D01*
X145550441Y-136420807D02*
X145598060Y-136373188D01*
X145598060Y-136373188D02*
X145693298Y-136325569D01*
X145693298Y-136325569D02*
X145836155Y-136325569D01*
X145836155Y-136325569D02*
X145931393Y-136373188D01*
X145931393Y-136373188D02*
X145979012Y-136468426D01*
X145979012Y-136468426D02*
X145979012Y-136992236D01*
X144669047Y-133973809D02*
X144811904Y-134021428D01*
X144811904Y-134021428D02*
X144859523Y-134069047D01*
X144859523Y-134069047D02*
X144907142Y-134164285D01*
X144907142Y-134164285D02*
X144907142Y-134307142D01*
X144907142Y-134307142D02*
X144859523Y-134402380D01*
X144859523Y-134402380D02*
X144811904Y-134450000D01*
X144811904Y-134450000D02*
X144716666Y-134497619D01*
X144716666Y-134497619D02*
X144335714Y-134497619D01*
X144335714Y-134497619D02*
X144335714Y-133497619D01*
X144335714Y-133497619D02*
X144669047Y-133497619D01*
X144669047Y-133497619D02*
X144764285Y-133545238D01*
X144764285Y-133545238D02*
X144811904Y-133592857D01*
X144811904Y-133592857D02*
X144859523Y-133688095D01*
X144859523Y-133688095D02*
X144859523Y-133783333D01*
X144859523Y-133783333D02*
X144811904Y-133878571D01*
X144811904Y-133878571D02*
X144764285Y-133926190D01*
X144764285Y-133926190D02*
X144669047Y-133973809D01*
X144669047Y-133973809D02*
X144335714Y-133973809D01*
X145240476Y-133497619D02*
X145907142Y-133497619D01*
X145907142Y-133497619D02*
X145478571Y-134497619D01*
X144669047Y-131433809D02*
X144811904Y-131481428D01*
X144811904Y-131481428D02*
X144859523Y-131529047D01*
X144859523Y-131529047D02*
X144907142Y-131624285D01*
X144907142Y-131624285D02*
X144907142Y-131767142D01*
X144907142Y-131767142D02*
X144859523Y-131862380D01*
X144859523Y-131862380D02*
X144811904Y-131910000D01*
X144811904Y-131910000D02*
X144716666Y-131957619D01*
X144716666Y-131957619D02*
X144335714Y-131957619D01*
X144335714Y-131957619D02*
X144335714Y-130957619D01*
X144335714Y-130957619D02*
X144669047Y-130957619D01*
X144669047Y-130957619D02*
X144764285Y-131005238D01*
X144764285Y-131005238D02*
X144811904Y-131052857D01*
X144811904Y-131052857D02*
X144859523Y-131148095D01*
X144859523Y-131148095D02*
X144859523Y-131243333D01*
X144859523Y-131243333D02*
X144811904Y-131338571D01*
X144811904Y-131338571D02*
X144764285Y-131386190D01*
X144764285Y-131386190D02*
X144669047Y-131433809D01*
X144669047Y-131433809D02*
X144335714Y-131433809D01*
X145478571Y-131386190D02*
X145383333Y-131338571D01*
X145383333Y-131338571D02*
X145335714Y-131290952D01*
X145335714Y-131290952D02*
X145288095Y-131195714D01*
X145288095Y-131195714D02*
X145288095Y-131148095D01*
X145288095Y-131148095D02*
X145335714Y-131052857D01*
X145335714Y-131052857D02*
X145383333Y-131005238D01*
X145383333Y-131005238D02*
X145478571Y-130957619D01*
X145478571Y-130957619D02*
X145669047Y-130957619D01*
X145669047Y-130957619D02*
X145764285Y-131005238D01*
X145764285Y-131005238D02*
X145811904Y-131052857D01*
X145811904Y-131052857D02*
X145859523Y-131148095D01*
X145859523Y-131148095D02*
X145859523Y-131195714D01*
X145859523Y-131195714D02*
X145811904Y-131290952D01*
X145811904Y-131290952D02*
X145764285Y-131338571D01*
X145764285Y-131338571D02*
X145669047Y-131386190D01*
X145669047Y-131386190D02*
X145478571Y-131386190D01*
X145478571Y-131386190D02*
X145383333Y-131433809D01*
X145383333Y-131433809D02*
X145335714Y-131481428D01*
X145335714Y-131481428D02*
X145288095Y-131576666D01*
X145288095Y-131576666D02*
X145288095Y-131767142D01*
X145288095Y-131767142D02*
X145335714Y-131862380D01*
X145335714Y-131862380D02*
X145383333Y-131910000D01*
X145383333Y-131910000D02*
X145478571Y-131957619D01*
X145478571Y-131957619D02*
X145669047Y-131957619D01*
X145669047Y-131957619D02*
X145764285Y-131910000D01*
X145764285Y-131910000D02*
X145811904Y-131862380D01*
X145811904Y-131862380D02*
X145859523Y-131767142D01*
X145859523Y-131767142D02*
X145859523Y-131576666D01*
X145859523Y-131576666D02*
X145811904Y-131481428D01*
X145811904Y-131481428D02*
X145764285Y-131433809D01*
X145764285Y-131433809D02*
X145669047Y-131386190D01*
X144737692Y-129929905D02*
X144880549Y-129977524D01*
X144880549Y-129977524D02*
X144928168Y-130025143D01*
X144928168Y-130025143D02*
X144975787Y-130120381D01*
X144975787Y-130120381D02*
X144975787Y-130263238D01*
X144975787Y-130263238D02*
X144928168Y-130358476D01*
X144928168Y-130358476D02*
X144880549Y-130406096D01*
X144880549Y-130406096D02*
X144785311Y-130453715D01*
X144785311Y-130453715D02*
X144404359Y-130453715D01*
X144404359Y-130453715D02*
X144404359Y-129453715D01*
X144404359Y-129453715D02*
X144737692Y-129453715D01*
X144737692Y-129453715D02*
X144832930Y-129501334D01*
X144832930Y-129501334D02*
X144880549Y-129548953D01*
X144880549Y-129548953D02*
X144928168Y-129644191D01*
X144928168Y-129644191D02*
X144928168Y-129739429D01*
X144928168Y-129739429D02*
X144880549Y-129834667D01*
X144880549Y-129834667D02*
X144832930Y-129882286D01*
X144832930Y-129882286D02*
X144737692Y-129929905D01*
X144737692Y-129929905D02*
X144404359Y-129929905D01*
X145451978Y-130453715D02*
X145642454Y-130453715D01*
X145642454Y-130453715D02*
X145737692Y-130406096D01*
X145737692Y-130406096D02*
X145785311Y-130358476D01*
X145785311Y-130358476D02*
X145880549Y-130215619D01*
X145880549Y-130215619D02*
X145928168Y-130025143D01*
X145928168Y-130025143D02*
X145928168Y-129644191D01*
X145928168Y-129644191D02*
X145880549Y-129548953D01*
X145880549Y-129548953D02*
X145832930Y-129501334D01*
X145832930Y-129501334D02*
X145737692Y-129453715D01*
X145737692Y-129453715D02*
X145547216Y-129453715D01*
X145547216Y-129453715D02*
X145451978Y-129501334D01*
X145451978Y-129501334D02*
X145404359Y-129548953D01*
X145404359Y-129548953D02*
X145356740Y-129644191D01*
X145356740Y-129644191D02*
X145356740Y-129882286D01*
X145356740Y-129882286D02*
X145404359Y-129977524D01*
X145404359Y-129977524D02*
X145451978Y-130025143D01*
X145451978Y-130025143D02*
X145547216Y-130072762D01*
X145547216Y-130072762D02*
X145737692Y-130072762D01*
X145737692Y-130072762D02*
X145832930Y-130025143D01*
X145832930Y-130025143D02*
X145880549Y-129977524D01*
X145880549Y-129977524D02*
X145928168Y-129882286D01*
X143867940Y-114750951D02*
X144010797Y-114798570D01*
X144010797Y-114798570D02*
X144058416Y-114846189D01*
X144058416Y-114846189D02*
X144106035Y-114941427D01*
X144106035Y-114941427D02*
X144106035Y-115084284D01*
X144106035Y-115084284D02*
X144058416Y-115179522D01*
X144058416Y-115179522D02*
X144010797Y-115227142D01*
X144010797Y-115227142D02*
X143915559Y-115274761D01*
X143915559Y-115274761D02*
X143534607Y-115274761D01*
X143534607Y-115274761D02*
X143534607Y-114274761D01*
X143534607Y-114274761D02*
X143867940Y-114274761D01*
X143867940Y-114274761D02*
X143963178Y-114322380D01*
X143963178Y-114322380D02*
X144010797Y-114369999D01*
X144010797Y-114369999D02*
X144058416Y-114465237D01*
X144058416Y-114465237D02*
X144058416Y-114560475D01*
X144058416Y-114560475D02*
X144010797Y-114655713D01*
X144010797Y-114655713D02*
X143963178Y-114703332D01*
X143963178Y-114703332D02*
X143867940Y-114750951D01*
X143867940Y-114750951D02*
X143534607Y-114750951D01*
X145058416Y-115274761D02*
X144486988Y-115274761D01*
X144772702Y-115274761D02*
X144772702Y-114274761D01*
X144772702Y-114274761D02*
X144677464Y-114417618D01*
X144677464Y-114417618D02*
X144582226Y-114512856D01*
X144582226Y-114512856D02*
X144486988Y-114560475D01*
X145963178Y-114274761D02*
X145486988Y-114274761D01*
X145486988Y-114274761D02*
X145439369Y-114750951D01*
X145439369Y-114750951D02*
X145486988Y-114703332D01*
X145486988Y-114703332D02*
X145582226Y-114655713D01*
X145582226Y-114655713D02*
X145820321Y-114655713D01*
X145820321Y-114655713D02*
X145915559Y-114703332D01*
X145915559Y-114703332D02*
X145963178Y-114750951D01*
X145963178Y-114750951D02*
X146010797Y-114846189D01*
X146010797Y-114846189D02*
X146010797Y-115084284D01*
X146010797Y-115084284D02*
X145963178Y-115179522D01*
X145963178Y-115179522D02*
X145915559Y-115227142D01*
X145915559Y-115227142D02*
X145820321Y-115274761D01*
X145820321Y-115274761D02*
X145582226Y-115274761D01*
X145582226Y-115274761D02*
X145486988Y-115227142D01*
X145486988Y-115227142D02*
X145439369Y-115179522D01*
X143762048Y-117401886D02*
X143904905Y-117449505D01*
X143904905Y-117449505D02*
X143952524Y-117497124D01*
X143952524Y-117497124D02*
X144000143Y-117592362D01*
X144000143Y-117592362D02*
X144000143Y-117735219D01*
X144000143Y-117735219D02*
X143952524Y-117830457D01*
X143952524Y-117830457D02*
X143904905Y-117878077D01*
X143904905Y-117878077D02*
X143809667Y-117925696D01*
X143809667Y-117925696D02*
X143428715Y-117925696D01*
X143428715Y-117925696D02*
X143428715Y-116925696D01*
X143428715Y-116925696D02*
X143762048Y-116925696D01*
X143762048Y-116925696D02*
X143857286Y-116973315D01*
X143857286Y-116973315D02*
X143904905Y-117020934D01*
X143904905Y-117020934D02*
X143952524Y-117116172D01*
X143952524Y-117116172D02*
X143952524Y-117211410D01*
X143952524Y-117211410D02*
X143904905Y-117306648D01*
X143904905Y-117306648D02*
X143857286Y-117354267D01*
X143857286Y-117354267D02*
X143762048Y-117401886D01*
X143762048Y-117401886D02*
X143428715Y-117401886D01*
X144952524Y-117925696D02*
X144381096Y-117925696D01*
X144666810Y-117925696D02*
X144666810Y-116925696D01*
X144666810Y-116925696D02*
X144571572Y-117068553D01*
X144571572Y-117068553D02*
X144476334Y-117163791D01*
X144476334Y-117163791D02*
X144381096Y-117211410D01*
X145809667Y-117259029D02*
X145809667Y-117925696D01*
X145571572Y-116878077D02*
X145333477Y-117592362D01*
X145333477Y-117592362D02*
X145952524Y-117592362D01*
X143777882Y-120092454D02*
X143920739Y-120140073D01*
X143920739Y-120140073D02*
X143968358Y-120187692D01*
X143968358Y-120187692D02*
X144015977Y-120282930D01*
X144015977Y-120282930D02*
X144015977Y-120425787D01*
X144015977Y-120425787D02*
X143968358Y-120521025D01*
X143968358Y-120521025D02*
X143920739Y-120568645D01*
X143920739Y-120568645D02*
X143825501Y-120616264D01*
X143825501Y-120616264D02*
X143444549Y-120616264D01*
X143444549Y-120616264D02*
X143444549Y-119616264D01*
X143444549Y-119616264D02*
X143777882Y-119616264D01*
X143777882Y-119616264D02*
X143873120Y-119663883D01*
X143873120Y-119663883D02*
X143920739Y-119711502D01*
X143920739Y-119711502D02*
X143968358Y-119806740D01*
X143968358Y-119806740D02*
X143968358Y-119901978D01*
X143968358Y-119901978D02*
X143920739Y-119997216D01*
X143920739Y-119997216D02*
X143873120Y-120044835D01*
X143873120Y-120044835D02*
X143777882Y-120092454D01*
X143777882Y-120092454D02*
X143444549Y-120092454D01*
X144968358Y-120616264D02*
X144396930Y-120616264D01*
X144682644Y-120616264D02*
X144682644Y-119616264D01*
X144682644Y-119616264D02*
X144587406Y-119759121D01*
X144587406Y-119759121D02*
X144492168Y-119854359D01*
X144492168Y-119854359D02*
X144396930Y-119901978D01*
X145301692Y-119616264D02*
X145920739Y-119616264D01*
X145920739Y-119616264D02*
X145587406Y-119997216D01*
X145587406Y-119997216D02*
X145730263Y-119997216D01*
X145730263Y-119997216D02*
X145825501Y-120044835D01*
X145825501Y-120044835D02*
X145873120Y-120092454D01*
X145873120Y-120092454D02*
X145920739Y-120187692D01*
X145920739Y-120187692D02*
X145920739Y-120425787D01*
X145920739Y-120425787D02*
X145873120Y-120521025D01*
X145873120Y-120521025D02*
X145825501Y-120568645D01*
X145825501Y-120568645D02*
X145730263Y-120616264D01*
X145730263Y-120616264D02*
X145444549Y-120616264D01*
X145444549Y-120616264D02*
X145349311Y-120568645D01*
X145349311Y-120568645D02*
X145301692Y-120521025D01*
X143823264Y-122558230D02*
X143966121Y-122605849D01*
X143966121Y-122605849D02*
X144013740Y-122653468D01*
X144013740Y-122653468D02*
X144061359Y-122748706D01*
X144061359Y-122748706D02*
X144061359Y-122891563D01*
X144061359Y-122891563D02*
X144013740Y-122986801D01*
X144013740Y-122986801D02*
X143966121Y-123034421D01*
X143966121Y-123034421D02*
X143870883Y-123082040D01*
X143870883Y-123082040D02*
X143489931Y-123082040D01*
X143489931Y-123082040D02*
X143489931Y-122082040D01*
X143489931Y-122082040D02*
X143823264Y-122082040D01*
X143823264Y-122082040D02*
X143918502Y-122129659D01*
X143918502Y-122129659D02*
X143966121Y-122177278D01*
X143966121Y-122177278D02*
X144013740Y-122272516D01*
X144013740Y-122272516D02*
X144013740Y-122367754D01*
X144013740Y-122367754D02*
X143966121Y-122462992D01*
X143966121Y-122462992D02*
X143918502Y-122510611D01*
X143918502Y-122510611D02*
X143823264Y-122558230D01*
X143823264Y-122558230D02*
X143489931Y-122558230D01*
X145013740Y-123082040D02*
X144442312Y-123082040D01*
X144728026Y-123082040D02*
X144728026Y-122082040D01*
X144728026Y-122082040D02*
X144632788Y-122224897D01*
X144632788Y-122224897D02*
X144537550Y-122320135D01*
X144537550Y-122320135D02*
X144442312Y-122367754D01*
X145394693Y-122177278D02*
X145442312Y-122129659D01*
X145442312Y-122129659D02*
X145537550Y-122082040D01*
X145537550Y-122082040D02*
X145775645Y-122082040D01*
X145775645Y-122082040D02*
X145870883Y-122129659D01*
X145870883Y-122129659D02*
X145918502Y-122177278D01*
X145918502Y-122177278D02*
X145966121Y-122272516D01*
X145966121Y-122272516D02*
X145966121Y-122367754D01*
X145966121Y-122367754D02*
X145918502Y-122510611D01*
X145918502Y-122510611D02*
X145347074Y-123082040D01*
X145347074Y-123082040D02*
X145966121Y-123082040D01*
X143747627Y-126597261D02*
X143890484Y-126644880D01*
X143890484Y-126644880D02*
X143938103Y-126692499D01*
X143938103Y-126692499D02*
X143985722Y-126787737D01*
X143985722Y-126787737D02*
X143985722Y-126930594D01*
X143985722Y-126930594D02*
X143938103Y-127025832D01*
X143938103Y-127025832D02*
X143890484Y-127073452D01*
X143890484Y-127073452D02*
X143795246Y-127121071D01*
X143795246Y-127121071D02*
X143414294Y-127121071D01*
X143414294Y-127121071D02*
X143414294Y-126121071D01*
X143414294Y-126121071D02*
X143747627Y-126121071D01*
X143747627Y-126121071D02*
X143842865Y-126168690D01*
X143842865Y-126168690D02*
X143890484Y-126216309D01*
X143890484Y-126216309D02*
X143938103Y-126311547D01*
X143938103Y-126311547D02*
X143938103Y-126406785D01*
X143938103Y-126406785D02*
X143890484Y-126502023D01*
X143890484Y-126502023D02*
X143842865Y-126549642D01*
X143842865Y-126549642D02*
X143747627Y-126597261D01*
X143747627Y-126597261D02*
X143414294Y-126597261D01*
X144938103Y-127121071D02*
X144366675Y-127121071D01*
X144652389Y-127121071D02*
X144652389Y-126121071D01*
X144652389Y-126121071D02*
X144557151Y-126263928D01*
X144557151Y-126263928D02*
X144461913Y-126359166D01*
X144461913Y-126359166D02*
X144366675Y-126406785D01*
X145557151Y-126121071D02*
X145652389Y-126121071D01*
X145652389Y-126121071D02*
X145747627Y-126168690D01*
X145747627Y-126168690D02*
X145795246Y-126216309D01*
X145795246Y-126216309D02*
X145842865Y-126311547D01*
X145842865Y-126311547D02*
X145890484Y-126502023D01*
X145890484Y-126502023D02*
X145890484Y-126740118D01*
X145890484Y-126740118D02*
X145842865Y-126930594D01*
X145842865Y-126930594D02*
X145795246Y-127025832D01*
X145795246Y-127025832D02*
X145747627Y-127073452D01*
X145747627Y-127073452D02*
X145652389Y-127121071D01*
X145652389Y-127121071D02*
X145557151Y-127121071D01*
X145557151Y-127121071D02*
X145461913Y-127073452D01*
X145461913Y-127073452D02*
X145414294Y-127025832D01*
X145414294Y-127025832D02*
X145366675Y-126930594D01*
X145366675Y-126930594D02*
X145319056Y-126740118D01*
X145319056Y-126740118D02*
X145319056Y-126502023D01*
X145319056Y-126502023D02*
X145366675Y-126311547D01*
X145366675Y-126311547D02*
X145414294Y-126216309D01*
X145414294Y-126216309D02*
X145461913Y-126168690D01*
X145461913Y-126168690D02*
X145557151Y-126121071D01*
X143853519Y-123753299D02*
X143996376Y-123800918D01*
X143996376Y-123800918D02*
X144043995Y-123848537D01*
X144043995Y-123848537D02*
X144091614Y-123943775D01*
X144091614Y-123943775D02*
X144091614Y-124086632D01*
X144091614Y-124086632D02*
X144043995Y-124181870D01*
X144043995Y-124181870D02*
X143996376Y-124229490D01*
X143996376Y-124229490D02*
X143901138Y-124277109D01*
X143901138Y-124277109D02*
X143520186Y-124277109D01*
X143520186Y-124277109D02*
X143520186Y-123277109D01*
X143520186Y-123277109D02*
X143853519Y-123277109D01*
X143853519Y-123277109D02*
X143948757Y-123324728D01*
X143948757Y-123324728D02*
X143996376Y-123372347D01*
X143996376Y-123372347D02*
X144043995Y-123467585D01*
X144043995Y-123467585D02*
X144043995Y-123562823D01*
X144043995Y-123562823D02*
X143996376Y-123658061D01*
X143996376Y-123658061D02*
X143948757Y-123705680D01*
X143948757Y-123705680D02*
X143853519Y-123753299D01*
X143853519Y-123753299D02*
X143520186Y-123753299D01*
X145043995Y-124277109D02*
X144472567Y-124277109D01*
X144758281Y-124277109D02*
X144758281Y-123277109D01*
X144758281Y-123277109D02*
X144663043Y-123419966D01*
X144663043Y-123419966D02*
X144567805Y-123515204D01*
X144567805Y-123515204D02*
X144472567Y-123562823D01*
X145996376Y-124277109D02*
X145424948Y-124277109D01*
X145710662Y-124277109D02*
X145710662Y-123277109D01*
X145710662Y-123277109D02*
X145615424Y-123419966D01*
X145615424Y-123419966D02*
X145520186Y-123515204D01*
X145520186Y-123515204D02*
X145424948Y-123562823D01*
%TO.C,R5*%
X110323333Y-122552619D02*
X109990000Y-122076428D01*
X109751905Y-122552619D02*
X109751905Y-121552619D01*
X109751905Y-121552619D02*
X110132857Y-121552619D01*
X110132857Y-121552619D02*
X110228095Y-121600238D01*
X110228095Y-121600238D02*
X110275714Y-121647857D01*
X110275714Y-121647857D02*
X110323333Y-121743095D01*
X110323333Y-121743095D02*
X110323333Y-121885952D01*
X110323333Y-121885952D02*
X110275714Y-121981190D01*
X110275714Y-121981190D02*
X110228095Y-122028809D01*
X110228095Y-122028809D02*
X110132857Y-122076428D01*
X110132857Y-122076428D02*
X109751905Y-122076428D01*
X111228095Y-121552619D02*
X110751905Y-121552619D01*
X110751905Y-121552619D02*
X110704286Y-122028809D01*
X110704286Y-122028809D02*
X110751905Y-121981190D01*
X110751905Y-121981190D02*
X110847143Y-121933571D01*
X110847143Y-121933571D02*
X111085238Y-121933571D01*
X111085238Y-121933571D02*
X111180476Y-121981190D01*
X111180476Y-121981190D02*
X111228095Y-122028809D01*
X111228095Y-122028809D02*
X111275714Y-122124047D01*
X111275714Y-122124047D02*
X111275714Y-122362142D01*
X111275714Y-122362142D02*
X111228095Y-122457380D01*
X111228095Y-122457380D02*
X111180476Y-122505000D01*
X111180476Y-122505000D02*
X111085238Y-122552619D01*
X111085238Y-122552619D02*
X110847143Y-122552619D01*
X110847143Y-122552619D02*
X110751905Y-122505000D01*
X110751905Y-122505000D02*
X110704286Y-122457380D01*
%TO.C,R3*%
X132712619Y-130976666D02*
X132236428Y-131309999D01*
X132712619Y-131548094D02*
X131712619Y-131548094D01*
X131712619Y-131548094D02*
X131712619Y-131167142D01*
X131712619Y-131167142D02*
X131760238Y-131071904D01*
X131760238Y-131071904D02*
X131807857Y-131024285D01*
X131807857Y-131024285D02*
X131903095Y-130976666D01*
X131903095Y-130976666D02*
X132045952Y-130976666D01*
X132045952Y-130976666D02*
X132141190Y-131024285D01*
X132141190Y-131024285D02*
X132188809Y-131071904D01*
X132188809Y-131071904D02*
X132236428Y-131167142D01*
X132236428Y-131167142D02*
X132236428Y-131548094D01*
X131712619Y-130643332D02*
X131712619Y-130024285D01*
X131712619Y-130024285D02*
X132093571Y-130357618D01*
X132093571Y-130357618D02*
X132093571Y-130214761D01*
X132093571Y-130214761D02*
X132141190Y-130119523D01*
X132141190Y-130119523D02*
X132188809Y-130071904D01*
X132188809Y-130071904D02*
X132284047Y-130024285D01*
X132284047Y-130024285D02*
X132522142Y-130024285D01*
X132522142Y-130024285D02*
X132617380Y-130071904D01*
X132617380Y-130071904D02*
X132665000Y-130119523D01*
X132665000Y-130119523D02*
X132712619Y-130214761D01*
X132712619Y-130214761D02*
X132712619Y-130500475D01*
X132712619Y-130500475D02*
X132665000Y-130595713D01*
X132665000Y-130595713D02*
X132617380Y-130643332D01*
%TO.C,C6*%
X126878009Y-145268399D02*
X126830390Y-145316019D01*
X126830390Y-145316019D02*
X126687533Y-145363638D01*
X126687533Y-145363638D02*
X126592295Y-145363638D01*
X126592295Y-145363638D02*
X126449438Y-145316019D01*
X126449438Y-145316019D02*
X126354200Y-145220780D01*
X126354200Y-145220780D02*
X126306581Y-145125542D01*
X126306581Y-145125542D02*
X126258962Y-144935066D01*
X126258962Y-144935066D02*
X126258962Y-144792209D01*
X126258962Y-144792209D02*
X126306581Y-144601733D01*
X126306581Y-144601733D02*
X126354200Y-144506495D01*
X126354200Y-144506495D02*
X126449438Y-144411257D01*
X126449438Y-144411257D02*
X126592295Y-144363638D01*
X126592295Y-144363638D02*
X126687533Y-144363638D01*
X126687533Y-144363638D02*
X126830390Y-144411257D01*
X126830390Y-144411257D02*
X126878009Y-144458876D01*
X127735152Y-144363638D02*
X127544676Y-144363638D01*
X127544676Y-144363638D02*
X127449438Y-144411257D01*
X127449438Y-144411257D02*
X127401819Y-144458876D01*
X127401819Y-144458876D02*
X127306581Y-144601733D01*
X127306581Y-144601733D02*
X127258962Y-144792209D01*
X127258962Y-144792209D02*
X127258962Y-145173161D01*
X127258962Y-145173161D02*
X127306581Y-145268399D01*
X127306581Y-145268399D02*
X127354200Y-145316019D01*
X127354200Y-145316019D02*
X127449438Y-145363638D01*
X127449438Y-145363638D02*
X127639914Y-145363638D01*
X127639914Y-145363638D02*
X127735152Y-145316019D01*
X127735152Y-145316019D02*
X127782771Y-145268399D01*
X127782771Y-145268399D02*
X127830390Y-145173161D01*
X127830390Y-145173161D02*
X127830390Y-144935066D01*
X127830390Y-144935066D02*
X127782771Y-144839828D01*
X127782771Y-144839828D02*
X127735152Y-144792209D01*
X127735152Y-144792209D02*
X127639914Y-144744590D01*
X127639914Y-144744590D02*
X127449438Y-144744590D01*
X127449438Y-144744590D02*
X127354200Y-144792209D01*
X127354200Y-144792209D02*
X127306581Y-144839828D01*
X127306581Y-144839828D02*
X127258962Y-144935066D01*
%TO.C,C1*%
X120781644Y-145253272D02*
X120734025Y-145300892D01*
X120734025Y-145300892D02*
X120591168Y-145348511D01*
X120591168Y-145348511D02*
X120495930Y-145348511D01*
X120495930Y-145348511D02*
X120353073Y-145300892D01*
X120353073Y-145300892D02*
X120257835Y-145205653D01*
X120257835Y-145205653D02*
X120210216Y-145110415D01*
X120210216Y-145110415D02*
X120162597Y-144919939D01*
X120162597Y-144919939D02*
X120162597Y-144777082D01*
X120162597Y-144777082D02*
X120210216Y-144586606D01*
X120210216Y-144586606D02*
X120257835Y-144491368D01*
X120257835Y-144491368D02*
X120353073Y-144396130D01*
X120353073Y-144396130D02*
X120495930Y-144348511D01*
X120495930Y-144348511D02*
X120591168Y-144348511D01*
X120591168Y-144348511D02*
X120734025Y-144396130D01*
X120734025Y-144396130D02*
X120781644Y-144443749D01*
X121734025Y-145348511D02*
X121162597Y-145348511D01*
X121448311Y-145348511D02*
X121448311Y-144348511D01*
X121448311Y-144348511D02*
X121353073Y-144491368D01*
X121353073Y-144491368D02*
X121257835Y-144586606D01*
X121257835Y-144586606D02*
X121162597Y-144634225D01*
%TO.C,R1*%
X140863136Y-107716755D02*
X140529803Y-107240564D01*
X140291708Y-107716755D02*
X140291708Y-106716755D01*
X140291708Y-106716755D02*
X140672660Y-106716755D01*
X140672660Y-106716755D02*
X140767898Y-106764374D01*
X140767898Y-106764374D02*
X140815517Y-106811993D01*
X140815517Y-106811993D02*
X140863136Y-106907231D01*
X140863136Y-106907231D02*
X140863136Y-107050088D01*
X140863136Y-107050088D02*
X140815517Y-107145326D01*
X140815517Y-107145326D02*
X140767898Y-107192945D01*
X140767898Y-107192945D02*
X140672660Y-107240564D01*
X140672660Y-107240564D02*
X140291708Y-107240564D01*
X141815517Y-107716755D02*
X141244089Y-107716755D01*
X141529803Y-107716755D02*
X141529803Y-106716755D01*
X141529803Y-106716755D02*
X141434565Y-106859612D01*
X141434565Y-106859612D02*
X141339327Y-106954850D01*
X141339327Y-106954850D02*
X141244089Y-107002469D01*
%TO.C,SW2*%
X107993265Y-149718109D02*
X108136122Y-149765728D01*
X108136122Y-149765728D02*
X108374217Y-149765728D01*
X108374217Y-149765728D02*
X108469455Y-149718109D01*
X108469455Y-149718109D02*
X108517074Y-149670489D01*
X108517074Y-149670489D02*
X108564693Y-149575251D01*
X108564693Y-149575251D02*
X108564693Y-149480013D01*
X108564693Y-149480013D02*
X108517074Y-149384775D01*
X108517074Y-149384775D02*
X108469455Y-149337156D01*
X108469455Y-149337156D02*
X108374217Y-149289537D01*
X108374217Y-149289537D02*
X108183741Y-149241918D01*
X108183741Y-149241918D02*
X108088503Y-149194299D01*
X108088503Y-149194299D02*
X108040884Y-149146680D01*
X108040884Y-149146680D02*
X107993265Y-149051442D01*
X107993265Y-149051442D02*
X107993265Y-148956204D01*
X107993265Y-148956204D02*
X108040884Y-148860966D01*
X108040884Y-148860966D02*
X108088503Y-148813347D01*
X108088503Y-148813347D02*
X108183741Y-148765728D01*
X108183741Y-148765728D02*
X108421836Y-148765728D01*
X108421836Y-148765728D02*
X108564693Y-148813347D01*
X108898027Y-148765728D02*
X109136122Y-149765728D01*
X109136122Y-149765728D02*
X109326598Y-149051442D01*
X109326598Y-149051442D02*
X109517074Y-149765728D01*
X109517074Y-149765728D02*
X109755170Y-148765728D01*
X110088503Y-148860966D02*
X110136122Y-148813347D01*
X110136122Y-148813347D02*
X110231360Y-148765728D01*
X110231360Y-148765728D02*
X110469455Y-148765728D01*
X110469455Y-148765728D02*
X110564693Y-148813347D01*
X110564693Y-148813347D02*
X110612312Y-148860966D01*
X110612312Y-148860966D02*
X110659931Y-148956204D01*
X110659931Y-148956204D02*
X110659931Y-149051442D01*
X110659931Y-149051442D02*
X110612312Y-149194299D01*
X110612312Y-149194299D02*
X110040884Y-149765728D01*
X110040884Y-149765728D02*
X110659931Y-149765728D01*
%TO.C,D2*%
X139478357Y-142946071D02*
X139478357Y-141946071D01*
X139478357Y-141946071D02*
X139716452Y-141946071D01*
X139716452Y-141946071D02*
X139859309Y-141993690D01*
X139859309Y-141993690D02*
X139954547Y-142088928D01*
X139954547Y-142088928D02*
X140002166Y-142184166D01*
X140002166Y-142184166D02*
X140049785Y-142374642D01*
X140049785Y-142374642D02*
X140049785Y-142517499D01*
X140049785Y-142517499D02*
X140002166Y-142707975D01*
X140002166Y-142707975D02*
X139954547Y-142803213D01*
X139954547Y-142803213D02*
X139859309Y-142898452D01*
X139859309Y-142898452D02*
X139716452Y-142946071D01*
X139716452Y-142946071D02*
X139478357Y-142946071D01*
X140430738Y-142041309D02*
X140478357Y-141993690D01*
X140478357Y-141993690D02*
X140573595Y-141946071D01*
X140573595Y-141946071D02*
X140811690Y-141946071D01*
X140811690Y-141946071D02*
X140906928Y-141993690D01*
X140906928Y-141993690D02*
X140954547Y-142041309D01*
X140954547Y-142041309D02*
X141002166Y-142136547D01*
X141002166Y-142136547D02*
X141002166Y-142231785D01*
X141002166Y-142231785D02*
X140954547Y-142374642D01*
X140954547Y-142374642D02*
X140383119Y-142946071D01*
X140383119Y-142946071D02*
X141002166Y-142946071D01*
%TO.C,C5*%
X136742621Y-107753327D02*
X136695002Y-107800947D01*
X136695002Y-107800947D02*
X136552145Y-107848566D01*
X136552145Y-107848566D02*
X136456907Y-107848566D01*
X136456907Y-107848566D02*
X136314050Y-107800947D01*
X136314050Y-107800947D02*
X136218812Y-107705708D01*
X136218812Y-107705708D02*
X136171193Y-107610470D01*
X136171193Y-107610470D02*
X136123574Y-107419994D01*
X136123574Y-107419994D02*
X136123574Y-107277137D01*
X136123574Y-107277137D02*
X136171193Y-107086661D01*
X136171193Y-107086661D02*
X136218812Y-106991423D01*
X136218812Y-106991423D02*
X136314050Y-106896185D01*
X136314050Y-106896185D02*
X136456907Y-106848566D01*
X136456907Y-106848566D02*
X136552145Y-106848566D01*
X136552145Y-106848566D02*
X136695002Y-106896185D01*
X136695002Y-106896185D02*
X136742621Y-106943804D01*
X137647383Y-106848566D02*
X137171193Y-106848566D01*
X137171193Y-106848566D02*
X137123574Y-107324756D01*
X137123574Y-107324756D02*
X137171193Y-107277137D01*
X137171193Y-107277137D02*
X137266431Y-107229518D01*
X137266431Y-107229518D02*
X137504526Y-107229518D01*
X137504526Y-107229518D02*
X137599764Y-107277137D01*
X137599764Y-107277137D02*
X137647383Y-107324756D01*
X137647383Y-107324756D02*
X137695002Y-107419994D01*
X137695002Y-107419994D02*
X137695002Y-107658089D01*
X137695002Y-107658089D02*
X137647383Y-107753327D01*
X137647383Y-107753327D02*
X137599764Y-107800947D01*
X137599764Y-107800947D02*
X137504526Y-107848566D01*
X137504526Y-107848566D02*
X137266431Y-107848566D01*
X137266431Y-107848566D02*
X137171193Y-107800947D01*
X137171193Y-107800947D02*
X137123574Y-107753327D01*
%TO.C,D1*%
X133790433Y-142855306D02*
X133790433Y-141855306D01*
X133790433Y-141855306D02*
X134028528Y-141855306D01*
X134028528Y-141855306D02*
X134171385Y-141902925D01*
X134171385Y-141902925D02*
X134266623Y-141998163D01*
X134266623Y-141998163D02*
X134314242Y-142093401D01*
X134314242Y-142093401D02*
X134361861Y-142283877D01*
X134361861Y-142283877D02*
X134361861Y-142426734D01*
X134361861Y-142426734D02*
X134314242Y-142617210D01*
X134314242Y-142617210D02*
X134266623Y-142712448D01*
X134266623Y-142712448D02*
X134171385Y-142807687D01*
X134171385Y-142807687D02*
X134028528Y-142855306D01*
X134028528Y-142855306D02*
X133790433Y-142855306D01*
X135314242Y-142855306D02*
X134742814Y-142855306D01*
X135028528Y-142855306D02*
X135028528Y-141855306D01*
X135028528Y-141855306D02*
X134933290Y-141998163D01*
X134933290Y-141998163D02*
X134838052Y-142093401D01*
X134838052Y-142093401D02*
X134742814Y-142141020D01*
%TO.C,J4*%
X146986666Y-110992619D02*
X146986666Y-111706904D01*
X146986666Y-111706904D02*
X146939047Y-111849761D01*
X146939047Y-111849761D02*
X146843809Y-111945000D01*
X146843809Y-111945000D02*
X146700952Y-111992619D01*
X146700952Y-111992619D02*
X146605714Y-111992619D01*
X147891428Y-111325952D02*
X147891428Y-111992619D01*
X147653333Y-110945000D02*
X147415238Y-111659285D01*
X147415238Y-111659285D02*
X148034285Y-111659285D01*
%TO.C,R2*%
X144818966Y-149892192D02*
X144485633Y-149416001D01*
X144247538Y-149892192D02*
X144247538Y-148892192D01*
X144247538Y-148892192D02*
X144628490Y-148892192D01*
X144628490Y-148892192D02*
X144723728Y-148939811D01*
X144723728Y-148939811D02*
X144771347Y-148987430D01*
X144771347Y-148987430D02*
X144818966Y-149082668D01*
X144818966Y-149082668D02*
X144818966Y-149225525D01*
X144818966Y-149225525D02*
X144771347Y-149320763D01*
X144771347Y-149320763D02*
X144723728Y-149368382D01*
X144723728Y-149368382D02*
X144628490Y-149416001D01*
X144628490Y-149416001D02*
X144247538Y-149416001D01*
X145199919Y-148987430D02*
X145247538Y-148939811D01*
X145247538Y-148939811D02*
X145342776Y-148892192D01*
X145342776Y-148892192D02*
X145580871Y-148892192D01*
X145580871Y-148892192D02*
X145676109Y-148939811D01*
X145676109Y-148939811D02*
X145723728Y-148987430D01*
X145723728Y-148987430D02*
X145771347Y-149082668D01*
X145771347Y-149082668D02*
X145771347Y-149177906D01*
X145771347Y-149177906D02*
X145723728Y-149320763D01*
X145723728Y-149320763D02*
X145152300Y-149892192D01*
X145152300Y-149892192D02*
X145771347Y-149892192D01*
%TO.C,C3*%
X117923333Y-140307380D02*
X117875714Y-140355000D01*
X117875714Y-140355000D02*
X117732857Y-140402619D01*
X117732857Y-140402619D02*
X117637619Y-140402619D01*
X117637619Y-140402619D02*
X117494762Y-140355000D01*
X117494762Y-140355000D02*
X117399524Y-140259761D01*
X117399524Y-140259761D02*
X117351905Y-140164523D01*
X117351905Y-140164523D02*
X117304286Y-139974047D01*
X117304286Y-139974047D02*
X117304286Y-139831190D01*
X117304286Y-139831190D02*
X117351905Y-139640714D01*
X117351905Y-139640714D02*
X117399524Y-139545476D01*
X117399524Y-139545476D02*
X117494762Y-139450238D01*
X117494762Y-139450238D02*
X117637619Y-139402619D01*
X117637619Y-139402619D02*
X117732857Y-139402619D01*
X117732857Y-139402619D02*
X117875714Y-139450238D01*
X117875714Y-139450238D02*
X117923333Y-139497857D01*
X118256667Y-139402619D02*
X118875714Y-139402619D01*
X118875714Y-139402619D02*
X118542381Y-139783571D01*
X118542381Y-139783571D02*
X118685238Y-139783571D01*
X118685238Y-139783571D02*
X118780476Y-139831190D01*
X118780476Y-139831190D02*
X118828095Y-139878809D01*
X118828095Y-139878809D02*
X118875714Y-139974047D01*
X118875714Y-139974047D02*
X118875714Y-140212142D01*
X118875714Y-140212142D02*
X118828095Y-140307380D01*
X118828095Y-140307380D02*
X118780476Y-140355000D01*
X118780476Y-140355000D02*
X118685238Y-140402619D01*
X118685238Y-140402619D02*
X118399524Y-140402619D01*
X118399524Y-140402619D02*
X118304286Y-140355000D01*
X118304286Y-140355000D02*
X118256667Y-140307380D01*
%TO.C,R4*%
X114932619Y-133516666D02*
X114456428Y-133849999D01*
X114932619Y-134088094D02*
X113932619Y-134088094D01*
X113932619Y-134088094D02*
X113932619Y-133707142D01*
X113932619Y-133707142D02*
X113980238Y-133611904D01*
X113980238Y-133611904D02*
X114027857Y-133564285D01*
X114027857Y-133564285D02*
X114123095Y-133516666D01*
X114123095Y-133516666D02*
X114265952Y-133516666D01*
X114265952Y-133516666D02*
X114361190Y-133564285D01*
X114361190Y-133564285D02*
X114408809Y-133611904D01*
X114408809Y-133611904D02*
X114456428Y-133707142D01*
X114456428Y-133707142D02*
X114456428Y-134088094D01*
X114265952Y-132659523D02*
X114932619Y-132659523D01*
X113885000Y-132897618D02*
X114599285Y-133135713D01*
X114599285Y-133135713D02*
X114599285Y-132516666D01*
D11*
%TO.C,S2*%
X133898095Y-95435000D02*
X134040952Y-95482619D01*
X134040952Y-95482619D02*
X134279047Y-95482619D01*
X134279047Y-95482619D02*
X134374285Y-95435000D01*
X134374285Y-95435000D02*
X134421904Y-95387380D01*
X134421904Y-95387380D02*
X134469523Y-95292142D01*
X134469523Y-95292142D02*
X134469523Y-95196904D01*
X134469523Y-95196904D02*
X134421904Y-95101666D01*
X134421904Y-95101666D02*
X134374285Y-95054047D01*
X134374285Y-95054047D02*
X134279047Y-95006428D01*
X134279047Y-95006428D02*
X134088571Y-94958809D01*
X134088571Y-94958809D02*
X133993333Y-94911190D01*
X133993333Y-94911190D02*
X133945714Y-94863571D01*
X133945714Y-94863571D02*
X133898095Y-94768333D01*
X133898095Y-94768333D02*
X133898095Y-94673095D01*
X133898095Y-94673095D02*
X133945714Y-94577857D01*
X133945714Y-94577857D02*
X133993333Y-94530238D01*
X133993333Y-94530238D02*
X134088571Y-94482619D01*
X134088571Y-94482619D02*
X134326666Y-94482619D01*
X134326666Y-94482619D02*
X134469523Y-94530238D01*
X134850476Y-94577857D02*
X134898095Y-94530238D01*
X134898095Y-94530238D02*
X134993333Y-94482619D01*
X134993333Y-94482619D02*
X135231428Y-94482619D01*
X135231428Y-94482619D02*
X135326666Y-94530238D01*
X135326666Y-94530238D02*
X135374285Y-94577857D01*
X135374285Y-94577857D02*
X135421904Y-94673095D01*
X135421904Y-94673095D02*
X135421904Y-94768333D01*
X135421904Y-94768333D02*
X135374285Y-94911190D01*
X135374285Y-94911190D02*
X134802857Y-95482619D01*
X134802857Y-95482619D02*
X135421904Y-95482619D01*
D10*
%TO.C,C4*%
X139573333Y-127057380D02*
X139525714Y-127105000D01*
X139525714Y-127105000D02*
X139382857Y-127152619D01*
X139382857Y-127152619D02*
X139287619Y-127152619D01*
X139287619Y-127152619D02*
X139144762Y-127105000D01*
X139144762Y-127105000D02*
X139049524Y-127009761D01*
X139049524Y-127009761D02*
X139001905Y-126914523D01*
X139001905Y-126914523D02*
X138954286Y-126724047D01*
X138954286Y-126724047D02*
X138954286Y-126581190D01*
X138954286Y-126581190D02*
X139001905Y-126390714D01*
X139001905Y-126390714D02*
X139049524Y-126295476D01*
X139049524Y-126295476D02*
X139144762Y-126200238D01*
X139144762Y-126200238D02*
X139287619Y-126152619D01*
X139287619Y-126152619D02*
X139382857Y-126152619D01*
X139382857Y-126152619D02*
X139525714Y-126200238D01*
X139525714Y-126200238D02*
X139573333Y-126247857D01*
X140430476Y-126485952D02*
X140430476Y-127152619D01*
X140192381Y-126105000D02*
X139954286Y-126819285D01*
X139954286Y-126819285D02*
X140573333Y-126819285D01*
%TO.C,SW1*%
X107886667Y-129725000D02*
X108029524Y-129772619D01*
X108029524Y-129772619D02*
X108267619Y-129772619D01*
X108267619Y-129772619D02*
X108362857Y-129725000D01*
X108362857Y-129725000D02*
X108410476Y-129677380D01*
X108410476Y-129677380D02*
X108458095Y-129582142D01*
X108458095Y-129582142D02*
X108458095Y-129486904D01*
X108458095Y-129486904D02*
X108410476Y-129391666D01*
X108410476Y-129391666D02*
X108362857Y-129344047D01*
X108362857Y-129344047D02*
X108267619Y-129296428D01*
X108267619Y-129296428D02*
X108077143Y-129248809D01*
X108077143Y-129248809D02*
X107981905Y-129201190D01*
X107981905Y-129201190D02*
X107934286Y-129153571D01*
X107934286Y-129153571D02*
X107886667Y-129058333D01*
X107886667Y-129058333D02*
X107886667Y-128963095D01*
X107886667Y-128963095D02*
X107934286Y-128867857D01*
X107934286Y-128867857D02*
X107981905Y-128820238D01*
X107981905Y-128820238D02*
X108077143Y-128772619D01*
X108077143Y-128772619D02*
X108315238Y-128772619D01*
X108315238Y-128772619D02*
X108458095Y-128820238D01*
X108791429Y-128772619D02*
X109029524Y-129772619D01*
X109029524Y-129772619D02*
X109220000Y-129058333D01*
X109220000Y-129058333D02*
X109410476Y-129772619D01*
X109410476Y-129772619D02*
X109648572Y-128772619D01*
X110553333Y-129772619D02*
X109981905Y-129772619D01*
X110267619Y-129772619D02*
X110267619Y-128772619D01*
X110267619Y-128772619D02*
X110172381Y-128915476D01*
X110172381Y-128915476D02*
X110077143Y-129010714D01*
X110077143Y-129010714D02*
X109981905Y-129058333D01*
%TO.C,D3*%
X137202619Y-116308094D02*
X136202619Y-116308094D01*
X136202619Y-116308094D02*
X136202619Y-116069999D01*
X136202619Y-116069999D02*
X136250238Y-115927142D01*
X136250238Y-115927142D02*
X136345476Y-115831904D01*
X136345476Y-115831904D02*
X136440714Y-115784285D01*
X136440714Y-115784285D02*
X136631190Y-115736666D01*
X136631190Y-115736666D02*
X136774047Y-115736666D01*
X136774047Y-115736666D02*
X136964523Y-115784285D01*
X136964523Y-115784285D02*
X137059761Y-115831904D01*
X137059761Y-115831904D02*
X137155000Y-115927142D01*
X137155000Y-115927142D02*
X137202619Y-116069999D01*
X137202619Y-116069999D02*
X137202619Y-116308094D01*
X136202619Y-115403332D02*
X136202619Y-114784285D01*
X136202619Y-114784285D02*
X136583571Y-115117618D01*
X136583571Y-115117618D02*
X136583571Y-114974761D01*
X136583571Y-114974761D02*
X136631190Y-114879523D01*
X136631190Y-114879523D02*
X136678809Y-114831904D01*
X136678809Y-114831904D02*
X136774047Y-114784285D01*
X136774047Y-114784285D02*
X137012142Y-114784285D01*
X137012142Y-114784285D02*
X137107380Y-114831904D01*
X137107380Y-114831904D02*
X137155000Y-114879523D01*
X137155000Y-114879523D02*
X137202619Y-114974761D01*
X137202619Y-114974761D02*
X137202619Y-115260475D01*
X137202619Y-115260475D02*
X137155000Y-115355713D01*
X137155000Y-115355713D02*
X137107380Y-115403332D01*
%TO.C,U3*%
X124968095Y-106352619D02*
X124968095Y-107162142D01*
X124968095Y-107162142D02*
X125015714Y-107257380D01*
X125015714Y-107257380D02*
X125063333Y-107305000D01*
X125063333Y-107305000D02*
X125158571Y-107352619D01*
X125158571Y-107352619D02*
X125349047Y-107352619D01*
X125349047Y-107352619D02*
X125444285Y-107305000D01*
X125444285Y-107305000D02*
X125491904Y-107257380D01*
X125491904Y-107257380D02*
X125539523Y-107162142D01*
X125539523Y-107162142D02*
X125539523Y-106352619D01*
X125920476Y-106352619D02*
X126539523Y-106352619D01*
X126539523Y-106352619D02*
X126206190Y-106733571D01*
X126206190Y-106733571D02*
X126349047Y-106733571D01*
X126349047Y-106733571D02*
X126444285Y-106781190D01*
X126444285Y-106781190D02*
X126491904Y-106828809D01*
X126491904Y-106828809D02*
X126539523Y-106924047D01*
X126539523Y-106924047D02*
X126539523Y-107162142D01*
X126539523Y-107162142D02*
X126491904Y-107257380D01*
X126491904Y-107257380D02*
X126444285Y-107305000D01*
X126444285Y-107305000D02*
X126349047Y-107352619D01*
X126349047Y-107352619D02*
X126063333Y-107352619D01*
X126063333Y-107352619D02*
X125968095Y-107305000D01*
X125968095Y-107305000D02*
X125920476Y-107257380D01*
%TO.C,C2*%
X112515401Y-108468654D02*
X112467782Y-108516274D01*
X112467782Y-108516274D02*
X112324925Y-108563893D01*
X112324925Y-108563893D02*
X112229687Y-108563893D01*
X112229687Y-108563893D02*
X112086830Y-108516274D01*
X112086830Y-108516274D02*
X111991592Y-108421035D01*
X111991592Y-108421035D02*
X111943973Y-108325797D01*
X111943973Y-108325797D02*
X111896354Y-108135321D01*
X111896354Y-108135321D02*
X111896354Y-107992464D01*
X111896354Y-107992464D02*
X111943973Y-107801988D01*
X111943973Y-107801988D02*
X111991592Y-107706750D01*
X111991592Y-107706750D02*
X112086830Y-107611512D01*
X112086830Y-107611512D02*
X112229687Y-107563893D01*
X112229687Y-107563893D02*
X112324925Y-107563893D01*
X112324925Y-107563893D02*
X112467782Y-107611512D01*
X112467782Y-107611512D02*
X112515401Y-107659131D01*
X112896354Y-107659131D02*
X112943973Y-107611512D01*
X112943973Y-107611512D02*
X113039211Y-107563893D01*
X113039211Y-107563893D02*
X113277306Y-107563893D01*
X113277306Y-107563893D02*
X113372544Y-107611512D01*
X113372544Y-107611512D02*
X113420163Y-107659131D01*
X113420163Y-107659131D02*
X113467782Y-107754369D01*
X113467782Y-107754369D02*
X113467782Y-107849607D01*
X113467782Y-107849607D02*
X113420163Y-107992464D01*
X113420163Y-107992464D02*
X112848735Y-108563893D01*
X112848735Y-108563893D02*
X113467782Y-108563893D01*
D12*
%TO.C,R5*%
X107220000Y-123090000D02*
X113760000Y-123090000D01*
X107220000Y-123420000D02*
X107220000Y-123090000D01*
X107220000Y-125500000D02*
X107220000Y-125830000D01*
X107220000Y-125830000D02*
X113760000Y-125830000D01*
X113760000Y-123090000D02*
X113760000Y-123420000D01*
X113760000Y-125830000D02*
X113760000Y-125500000D01*
%TO.C,R3*%
X133250000Y-134080000D02*
X133250000Y-127540000D01*
X133580000Y-134080000D02*
X133250000Y-134080000D01*
X135660000Y-134080000D02*
X135990000Y-134080000D01*
X135990000Y-134080000D02*
X135990000Y-127540000D01*
X133250000Y-127540000D02*
X133580000Y-127540000D01*
X135990000Y-127540000D02*
X135660000Y-127540000D01*
%TO.C,J1*%
X111785000Y-102905000D02*
X124545000Y-102905000D01*
X111785000Y-102905000D02*
X111785000Y-100245000D01*
X124545000Y-102905000D02*
X124545000Y-100245000D01*
X109185000Y-101575000D02*
X109185000Y-100245000D01*
X109185000Y-100245000D02*
X110515000Y-100245000D01*
X111785000Y-100245000D02*
X124545000Y-100245000D01*
%TO.C,C6*%
X124290000Y-145599000D02*
X124290000Y-146265000D01*
X124290000Y-145599000D02*
X129630000Y-145599000D01*
X124290000Y-148375000D02*
X124290000Y-149041000D01*
X124290000Y-149041000D02*
X129630000Y-149041000D01*
X129630000Y-145599000D02*
X129630000Y-146265000D01*
X129630000Y-148375000D02*
X129630000Y-149041000D01*
%TO.C,C1*%
X116750000Y-145599000D02*
X116750000Y-146265000D01*
X116750000Y-145599000D02*
X122090000Y-145599000D01*
X116750000Y-148375000D02*
X116750000Y-149041000D01*
X116750000Y-149041000D02*
X122090000Y-149041000D01*
X122090000Y-145599000D02*
X122090000Y-146265000D01*
X122090000Y-148375000D02*
X122090000Y-149041000D01*
%TO.C,R1*%
X141510000Y-107850000D02*
X148050000Y-107850000D01*
X141510000Y-108180000D02*
X141510000Y-107850000D01*
X141510000Y-110260000D02*
X141510000Y-110590000D01*
X141510000Y-110590000D02*
X148050000Y-110590000D01*
X148050000Y-107850000D02*
X148050000Y-108180000D01*
X148050000Y-110590000D02*
X148050000Y-110260000D01*
%TO.C,SW2*%
X104140000Y-140910000D02*
X104140000Y-148650000D01*
X104140000Y-140910000D02*
X114300000Y-140910000D01*
X104140000Y-148650000D02*
X114300000Y-148650000D01*
X109220000Y-140910000D02*
X110550000Y-140910000D01*
X114300000Y-140910000D02*
X114300000Y-148650000D01*
%TO.C,D2*%
X138464000Y-139990000D02*
X138620000Y-139990000D01*
X140780000Y-139990000D02*
X140936000Y-139990000D01*
X138621392Y-136757666D02*
G75*
G03*
X138464485Y-139989999I1078608J-1672334D01*
G01*
X138620164Y-137388871D02*
G75*
G03*
X138620001Y-139470960I1079836J-1041129D01*
G01*
X140779999Y-139470960D02*
G75*
G03*
X140779836Y-137388871I-1079999J1040960D01*
G01*
X140935515Y-139989999D02*
G75*
G03*
X140778608Y-136757666I-1235515J1559999D01*
G01*
%TO.C,C5*%
X134090000Y-108050000D02*
X134090000Y-108295000D01*
X134090000Y-108050000D02*
X137730000Y-108050000D01*
X134090000Y-110145000D02*
X134090000Y-110390000D01*
X134090000Y-110390000D02*
X137730000Y-110390000D01*
X137730000Y-108050000D02*
X137730000Y-108295000D01*
X137730000Y-110145000D02*
X137730000Y-110390000D01*
%TO.C,U2*%
X144250000Y-105990000D02*
X147850000Y-105990000D01*
X146050000Y-101540000D02*
G75*
G03*
X144211522Y-105978478I0J-2600000D01*
G01*
X147888478Y-105978478D02*
G75*
G03*
X146050000Y-101540000I-1838478J1838478D01*
G01*
%TO.C,D1*%
X133384000Y-139990000D02*
X133540000Y-139990000D01*
X135700000Y-139990000D02*
X135856000Y-139990000D01*
X133541392Y-136757666D02*
G75*
G03*
X133384485Y-139989999I1078608J-1672334D01*
G01*
X133540164Y-137388871D02*
G75*
G03*
X133540001Y-139470960I1079836J-1041129D01*
G01*
X135699999Y-139470960D02*
G75*
G03*
X135699836Y-137388871I-1079999J1040960D01*
G01*
X135855515Y-139989999D02*
G75*
G03*
X135698608Y-136757666I-1235515J1559999D01*
G01*
%TO.C,J4*%
X145990000Y-115570000D02*
X145990000Y-143570000D01*
X145990000Y-115570000D02*
X148650000Y-115570000D01*
X145990000Y-143570000D02*
X148650000Y-143570000D01*
X147320000Y-112970000D02*
X148650000Y-112970000D01*
X148650000Y-112970000D02*
X148650000Y-114300000D01*
X148650000Y-115570000D02*
X148650000Y-143570000D01*
%TO.C,J3*%
X100270000Y-115570000D02*
X100270000Y-143570000D01*
X100270000Y-115570000D02*
X102930000Y-115570000D01*
X100270000Y-143570000D02*
X102930000Y-143570000D01*
X101600000Y-112970000D02*
X102930000Y-112970000D01*
X102930000Y-112970000D02*
X102930000Y-114300000D01*
X102930000Y-115570000D02*
X102930000Y-143570000D01*
%TO.C,R2*%
X148050000Y-148690000D02*
X141510000Y-148690000D01*
X148050000Y-148360000D02*
X148050000Y-148690000D01*
X148050000Y-146280000D02*
X148050000Y-145950000D01*
X148050000Y-145950000D02*
X141510000Y-145950000D01*
X141510000Y-148690000D02*
X141510000Y-148360000D01*
X141510000Y-145950000D02*
X141510000Y-146280000D01*
%TO.C,C3*%
X116270000Y-141070000D02*
X116270000Y-141315000D01*
X116270000Y-141070000D02*
X119910000Y-141070000D01*
X116270000Y-143165000D02*
X116270000Y-143410000D01*
X116270000Y-143410000D02*
X119910000Y-143410000D01*
X119910000Y-141070000D02*
X119910000Y-141315000D01*
X119910000Y-143165000D02*
X119910000Y-143410000D01*
%TO.C,R4*%
X115470000Y-136620000D02*
X115470000Y-130080000D01*
X115800000Y-136620000D02*
X115470000Y-136620000D01*
X117880000Y-136620000D02*
X118210000Y-136620000D01*
X118210000Y-136620000D02*
X118210000Y-130080000D01*
X115470000Y-130080000D02*
X115800000Y-130080000D01*
X118210000Y-130080000D02*
X117880000Y-130080000D01*
D13*
%TO.C,S2*%
X128660000Y-102140000D02*
X128660000Y-106140000D01*
X128660000Y-106140000D02*
X140660000Y-106140000D01*
X140660000Y-102140000D02*
X128660000Y-102140000D01*
X140660000Y-106140000D02*
X140660000Y-102140000D01*
D12*
%TO.C,C4*%
X137070000Y-127819000D02*
X137070000Y-128485000D01*
X137070000Y-127819000D02*
X142410000Y-127819000D01*
X137070000Y-130595000D02*
X137070000Y-131261000D01*
X137070000Y-131261000D02*
X142410000Y-131261000D01*
X142410000Y-127819000D02*
X142410000Y-128485000D01*
X142410000Y-130595000D02*
X142410000Y-131261000D01*
%TO.C,J2*%
X102810000Y-105410000D02*
X102810000Y-108010000D01*
X102810000Y-105410000D02*
X105470000Y-105410000D01*
X102810000Y-108010000D02*
X105470000Y-108010000D01*
X104140000Y-102810000D02*
X105470000Y-102810000D01*
X105470000Y-102810000D02*
X105470000Y-104140000D01*
X105470000Y-105410000D02*
X105470000Y-108010000D01*
%TO.C,SW1*%
X104140000Y-130750000D02*
X104140000Y-138490000D01*
X104140000Y-130750000D02*
X114300000Y-130750000D01*
X104140000Y-138490000D02*
X114300000Y-138490000D01*
X109220000Y-130750000D02*
X110550000Y-130750000D01*
X114300000Y-130750000D02*
X114300000Y-138490000D01*
%TO.C,D3*%
X138464000Y-117130000D02*
X138620000Y-117130000D01*
X140780000Y-117130000D02*
X140936000Y-117130000D01*
X138621392Y-113897666D02*
G75*
G03*
X138464485Y-117129999I1078608J-1672334D01*
G01*
X138620164Y-114528871D02*
G75*
G03*
X138620001Y-116610960I1079836J-1041129D01*
G01*
X140779999Y-116610960D02*
G75*
G03*
X140779836Y-114528871I-1079999J1040960D01*
G01*
X140935515Y-117129999D02*
G75*
G03*
X140778608Y-113897666I-1235515J1559999D01*
G01*
%TO.C,U3*%
X123480000Y-107890000D02*
X123480000Y-143570000D01*
X123480000Y-143570000D02*
X127980000Y-143570000D01*
X124730000Y-107890000D02*
X123480000Y-107890000D01*
X127980000Y-107890000D02*
X126730000Y-107890000D01*
X127980000Y-143570000D02*
X127980000Y-107890000D01*
X124730000Y-107890000D02*
G75*
G03*
X126730000Y-107890000I1000000J0D01*
G01*
%TO.C,C2*%
X114210000Y-104959000D02*
X114210000Y-105625000D01*
X114210000Y-104959000D02*
X119550000Y-104959000D01*
X114210000Y-107735000D02*
X114210000Y-108401000D01*
X114210000Y-108401000D02*
X119550000Y-108401000D01*
X119550000Y-104959000D02*
X119550000Y-105625000D01*
X119550000Y-107735000D02*
X119550000Y-108401000D01*
%TD*%
D14*
X150000000Y-150000000D02*
X150000000Y-100000000D01*
X150000000Y-100000000D02*
X100000000Y-100000000D01*
X100000000Y-100000000D02*
X100000000Y-150000000D01*
X100000000Y-150000000D02*
X150000000Y-150000000D01*
M02*
