%TF.GenerationSoftware,KiCad,Pcbnew,7.0.1*%
%TF.CreationDate,2023-04-22T15:39:36-05:00*%
%TF.ProjectId,HW4,4857342e-6b69-4636-9164-5f7063625858,rev?*%
%TF.SameCoordinates,Original*%
%TF.FileFunction,Copper,L2,Bot*%
%TF.FilePolarity,Positive*%
%FSLAX46Y46*%
G04 Gerber Fmt 4.6, Leading zero omitted, Abs format (unit mm)*
G04 Created by KiCad (PCBNEW 7.0.1) date 2023-04-22 15:39:36*
%MOMM*%
%LPD*%
G01*
G04 APERTURE LIST*
%TA.AperFunction,ComponentPad*%
%ADD10C,1.600000*%
%TD*%
%TA.AperFunction,ComponentPad*%
%ADD11O,1.600000X1.600000*%
%TD*%
%TA.AperFunction,ComponentPad*%
%ADD12R,1.700000X1.700000*%
%TD*%
%TA.AperFunction,ComponentPad*%
%ADD13O,1.700000X1.700000*%
%TD*%
%TA.AperFunction,ComponentPad*%
%ADD14R,1.800000X1.800000*%
%TD*%
%TA.AperFunction,ComponentPad*%
%ADD15C,1.800000*%
%TD*%
%TA.AperFunction,ComponentPad*%
%ADD16R,1.050000X1.500000*%
%TD*%
%TA.AperFunction,ComponentPad*%
%ADD17O,1.050000X1.500000*%
%TD*%
%TA.AperFunction,ComponentPad*%
%ADD18C,1.700000*%
%TD*%
%TA.AperFunction,ComponentPad*%
%ADD19R,2.400000X1.600000*%
%TD*%
%TA.AperFunction,ComponentPad*%
%ADD20O,2.400000X1.600000*%
%TD*%
%TA.AperFunction,ViaPad*%
%ADD21C,0.800000*%
%TD*%
%TA.AperFunction,Conductor*%
%ADD22C,0.250000*%
%TD*%
%TA.AperFunction,Profile*%
%ADD23C,0.100000*%
%TD*%
G04 APERTURE END LIST*
D10*
%TO.P,R5,1*%
%TO.N,+3.3V*%
X106680000Y-124460000D03*
D11*
%TO.P,R5,2*%
%TO.N,Net-(U3-~{MCLR})*%
X114300000Y-124460000D03*
%TD*%
D10*
%TO.P,R3,1*%
%TO.N,Net-(D1-K)*%
X134620000Y-134620000D03*
D11*
%TO.P,R3,2*%
%TO.N,/GREEN*%
X134620000Y-127000000D03*
%TD*%
D12*
%TO.P,J1,1,Pin_1*%
%TO.N,unconnected-(J1-Pin_1-Pad1)*%
X110515000Y-101575000D03*
D13*
%TO.P,J1,2,Pin_2*%
%TO.N,/U1TX*%
X113055000Y-101575000D03*
%TO.P,J1,3,Pin_3*%
%TO.N,/U1RX*%
X115595000Y-101575000D03*
%TO.P,J1,4,Pin_4*%
%TO.N,+5V*%
X118135000Y-101575000D03*
%TO.P,J1,5,Pin_5*%
%TO.N,unconnected-(J1-Pin_5-Pad5)*%
X120675000Y-101575000D03*
%TO.P,J1,6,Pin_6*%
%TO.N,GND*%
X123215000Y-101575000D03*
%TD*%
D10*
%TO.P,C6,1*%
%TO.N,Net-(C1-Pad2)*%
X124460000Y-147320000D03*
%TO.P,C6,2*%
%TO.N,GND*%
X129460000Y-147320000D03*
%TD*%
%TO.P,C1,1*%
%TO.N,+3.3V*%
X116920000Y-147320000D03*
%TO.P,C1,2*%
%TO.N,Net-(C1-Pad2)*%
X121920000Y-147320000D03*
%TD*%
%TO.P,R1,1*%
%TO.N,GND*%
X140970000Y-109220000D03*
D11*
%TO.P,R1,2*%
%TO.N,Net-(D3-K)*%
X148590000Y-109220000D03*
%TD*%
D12*
%TO.P,SW2,1,1*%
%TO.N,Net-(U3-~{MCLR})*%
X109220000Y-142240000D03*
D13*
%TO.P,SW2,2,2*%
%TO.N,GND*%
X109220000Y-147320000D03*
%TD*%
D14*
%TO.P,D2,1,K*%
%TO.N,Net-(D2-K)*%
X139700000Y-139700000D03*
D15*
%TO.P,D2,2,A*%
%TO.N,+3.3V*%
X139700000Y-137160000D03*
%TD*%
D10*
%TO.P,C5,1*%
%TO.N,GND*%
X134660000Y-109220000D03*
%TO.P,C5,2*%
%TO.N,+3.3V*%
X137160000Y-109220000D03*
%TD*%
D16*
%TO.P,U2,1,VO*%
%TO.N,+3.3V*%
X144780000Y-104140000D03*
D17*
%TO.P,U2,2,GND*%
%TO.N,GND*%
X146050000Y-104140000D03*
%TO.P,U2,3,VI*%
%TO.N,/Vin*%
X147320000Y-104140000D03*
%TD*%
D14*
%TO.P,D1,1,K*%
%TO.N,Net-(D1-K)*%
X134620000Y-139700000D03*
D15*
%TO.P,D1,2,A*%
%TO.N,+3.3V*%
X134620000Y-137160000D03*
%TD*%
D12*
%TO.P,J4,1,Pin_1*%
%TO.N,/B15*%
X147320000Y-114300000D03*
D13*
%TO.P,J4,2,Pin_2*%
%TO.N,/B14*%
X147320000Y-116840000D03*
%TO.P,J4,3,Pin_3*%
%TO.N,/B13*%
X147320000Y-119380000D03*
%TO.P,J4,4,Pin_4*%
%TO.N,/B12*%
X147320000Y-121920000D03*
%TO.P,J4,5,Pin_5*%
%TO.N,/B11*%
X147320000Y-124460000D03*
%TO.P,J4,6,Pin_6*%
%TO.N,/B10*%
X147320000Y-127000000D03*
%TO.P,J4,7,Pin_7*%
%TO.N,/B9*%
X147320000Y-129540000D03*
%TO.P,J4,8,Pin_8*%
%TO.N,/B8*%
X147320000Y-132080000D03*
%TO.P,J4,9,Pin_9*%
%TO.N,/B7*%
X147320000Y-134620000D03*
%TO.P,J4,10,Pin_10*%
%TO.N,/Vin*%
X147320000Y-137160000D03*
%TO.P,J4,11,Pin_11*%
%TO.N,+3.3V*%
X147320000Y-139700000D03*
%TO.P,J4,12,Pin_12*%
%TO.N,GND*%
X147320000Y-142240000D03*
%TD*%
D12*
%TO.P,J3,1,Pin_1*%
%TO.N,/A0*%
X101600000Y-114300000D03*
D13*
%TO.P,J3,2,Pin_2*%
%TO.N,/A1*%
X101600000Y-116840000D03*
%TO.P,J3,3,Pin_3*%
%TO.N,/B0*%
X101600000Y-119380000D03*
%TO.P,J3,4,Pin_4*%
%TO.N,/B1*%
X101600000Y-121920000D03*
%TO.P,J3,5,Pin_5*%
%TO.N,/B2*%
X101600000Y-124460000D03*
%TO.P,J3,6,Pin_6*%
%TO.N,/A3*%
X101600000Y-127000000D03*
%TO.P,J3,7,Pin_7*%
%TO.N,/GREEN*%
X101600000Y-129540000D03*
%TO.P,J3,8,Pin_8*%
%TO.N,/YELLOW*%
X101600000Y-132080000D03*
%TO.P,J3,9,Pin_9*%
%TO.N,/B6*%
X101600000Y-134620000D03*
%TO.P,J3,10,Pin_10*%
%TO.N,/Vin*%
X101600000Y-137160000D03*
%TO.P,J3,11,Pin_11*%
%TO.N,+3.3V*%
X101600000Y-139700000D03*
%TO.P,J3,12,Pin_12*%
%TO.N,GND*%
X101600000Y-142240000D03*
%TD*%
D10*
%TO.P,R2,1*%
%TO.N,Net-(D2-K)*%
X148590000Y-147320000D03*
D11*
%TO.P,R2,2*%
%TO.N,/YELLOW*%
X140970000Y-147320000D03*
%TD*%
D10*
%TO.P,C3,1*%
%TO.N,GND*%
X116840000Y-142240000D03*
%TO.P,C3,2*%
%TO.N,+3.3V*%
X119340000Y-142240000D03*
%TD*%
%TO.P,R4,1*%
%TO.N,+3.3V*%
X116840000Y-137160000D03*
D11*
%TO.P,R4,2*%
%TO.N,/A4*%
X116840000Y-129540000D03*
%TD*%
D18*
%TO.P,S2,1*%
%TO.N,+5V*%
X132160000Y-104140000D03*
%TO.P,S2,2*%
%TO.N,/Vin*%
X134660000Y-104140000D03*
%TO.P,S2,3*%
%TO.N,Net-(J2-Pin_1)*%
X137160000Y-104140000D03*
%TD*%
D10*
%TO.P,C4,1*%
%TO.N,GND*%
X137240000Y-129540000D03*
%TO.P,C4,2*%
%TO.N,Net-(U3-VCAP)*%
X142240000Y-129540000D03*
%TD*%
D12*
%TO.P,J2,1,Pin_1*%
%TO.N,Net-(J2-Pin_1)*%
X104140000Y-104140000D03*
D13*
%TO.P,J2,2,Pin_2*%
%TO.N,GND*%
X104140000Y-106680000D03*
%TD*%
D12*
%TO.P,SW1,1,1*%
%TO.N,GND*%
X109220000Y-132080000D03*
D13*
%TO.P,SW1,2,2*%
%TO.N,/A4*%
X109220000Y-137160000D03*
%TD*%
D14*
%TO.P,D3,1,K*%
%TO.N,Net-(D3-K)*%
X139700000Y-116840000D03*
D15*
%TO.P,D3,2,A*%
%TO.N,+3.3V*%
X139700000Y-114300000D03*
%TD*%
D19*
%TO.P,U3,1,~{MCLR}*%
%TO.N,Net-(U3-~{MCLR})*%
X121920000Y-109220000D03*
D20*
%TO.P,U3,2,A0*%
%TO.N,/A0*%
X121920000Y-111760000D03*
%TO.P,U3,3,A1*%
%TO.N,/A1*%
X121920000Y-114300000D03*
%TO.P,U3,4,B0*%
%TO.N,/B0*%
X121920000Y-116840000D03*
%TO.P,U3,5,B1*%
%TO.N,/B1*%
X121920000Y-119380000D03*
%TO.P,U3,6,B2*%
%TO.N,/B2*%
X121920000Y-121920000D03*
%TO.P,U3,7,B3*%
%TO.N,/U1TX*%
X121920000Y-124460000D03*
%TO.P,U3,8,VSS*%
%TO.N,GND*%
X121920000Y-127000000D03*
%TO.P,U3,9,A2*%
%TO.N,/U1RX*%
X121920000Y-129540000D03*
%TO.P,U3,10,A3*%
%TO.N,/A3*%
X121920000Y-132080000D03*
%TO.P,U3,11,B4*%
%TO.N,/GREEN*%
X121920000Y-134620000D03*
%TO.P,U3,12,A4*%
%TO.N,/A4*%
X121920000Y-137160000D03*
%TO.P,U3,13,VDD*%
%TO.N,+3.3V*%
X121920000Y-139700000D03*
%TO.P,U3,14,B5*%
%TO.N,/YELLOW*%
X121920000Y-142240000D03*
%TO.P,U3,15,B6*%
%TO.N,/B6*%
X129540000Y-142240000D03*
%TO.P,U3,16,B7*%
%TO.N,/B7*%
X129540000Y-139700000D03*
%TO.P,U3,17,B8*%
%TO.N,/B8*%
X129540000Y-137160000D03*
%TO.P,U3,18,B9*%
%TO.N,/B9*%
X129540000Y-134620000D03*
%TO.P,U3,19,VSS*%
%TO.N,GND*%
X129540000Y-132080000D03*
%TO.P,U3,20,VCAP*%
%TO.N,Net-(U3-VCAP)*%
X129540000Y-129540000D03*
%TO.P,U3,21,B10*%
%TO.N,/B10*%
X129540000Y-127000000D03*
%TO.P,U3,22,B11*%
%TO.N,/B11*%
X129540000Y-124460000D03*
%TO.P,U3,23,B12*%
%TO.N,/B12*%
X129540000Y-121920000D03*
%TO.P,U3,24,B13*%
%TO.N,/B13*%
X129540000Y-119380000D03*
%TO.P,U3,25,B14*%
%TO.N,/B14*%
X129540000Y-116840000D03*
%TO.P,U3,26,B15*%
%TO.N,/B15*%
X129540000Y-114300000D03*
%TO.P,U3,27,AVSS*%
%TO.N,GND*%
X129540000Y-111760000D03*
%TO.P,U3,28,AVDD*%
%TO.N,+3.3V*%
X129540000Y-109220000D03*
%TD*%
D10*
%TO.P,C2,1*%
%TO.N,/Vin*%
X114380000Y-106680000D03*
%TO.P,C2,2*%
%TO.N,GND*%
X119380000Y-106680000D03*
%TD*%
D21*
%TO.N,Net-(D1-K)*%
X137160000Y-139700000D03*
X137160000Y-134620000D03*
%TO.N,/U1RX*%
X115699503Y-124460000D03*
%TO.N,/U1TX*%
X113055000Y-101575000D03*
X111760000Y-109220000D03*
X116840000Y-109220000D03*
X116840000Y-124460000D03*
%TO.N,+3.3V*%
X124460000Y-139700000D03*
X132592300Y-137672300D03*
X116840000Y-140424500D03*
%TO.N,/YELLOW*%
X104140000Y-139700000D03*
X103627700Y-132592300D03*
%TO.N,/Vin*%
X134620000Y-106680000D03*
%TO.N,Net-(D3-K)*%
X139700000Y-111760000D03*
%TO.N,/A4*%
X109220000Y-135344500D03*
X116840000Y-135344500D03*
%TD*%
D22*
%TO.N,Net-(D1-K)*%
X137160000Y-134620000D02*
X137160000Y-139700000D01*
%TO.N,+3.3V*%
X104315305Y-140550000D02*
X102450000Y-140550000D01*
X106680000Y-138185305D02*
X104315305Y-140550000D01*
X102450000Y-140550000D02*
X101600000Y-139700000D01*
X106680000Y-124460000D02*
X106680000Y-138185305D01*
%TO.N,/Vin*%
X114380000Y-109140000D02*
X114380000Y-106680000D01*
X102902700Y-120617300D02*
X114380000Y-109140000D01*
X101600000Y-137160000D02*
X102902700Y-135857300D01*
X102902700Y-135857300D02*
X102902700Y-120617300D01*
%TO.N,Net-(U3-~{MCLR})*%
X119380000Y-111760000D02*
X121920000Y-109220000D01*
X119380000Y-122945305D02*
X119380000Y-111760000D01*
X115099999Y-125259999D02*
X117065306Y-125259999D01*
X114300000Y-124460000D02*
X115099999Y-125259999D01*
X117065306Y-125259999D02*
X119380000Y-122945305D01*
X114300000Y-138260000D02*
X114300000Y-124460000D01*
X110320000Y-142240000D02*
X114300000Y-138260000D01*
X109220000Y-142240000D02*
X110320000Y-142240000D01*
%TO.N,/U1RX*%
X115595000Y-105435000D02*
X115595000Y-101575000D01*
X115699503Y-105539503D02*
X115595000Y-105435000D01*
X115699503Y-124460000D02*
X115699503Y-105539503D01*
%TO.N,/U1TX*%
X111760000Y-109220000D02*
X111760000Y-102870000D01*
X116840000Y-124460000D02*
X116840000Y-109220000D01*
X111760000Y-102870000D02*
X113055000Y-101575000D01*
%TO.N,+3.3V*%
X138475000Y-115525000D02*
X139700000Y-114300000D01*
X138475000Y-135935000D02*
X138475000Y-115525000D01*
X139700000Y-137160000D02*
X138475000Y-135935000D01*
X125585000Y-138575000D02*
X124460000Y-139700000D01*
X132592300Y-137672300D02*
X131689600Y-138575000D01*
X131689600Y-138575000D02*
X125585000Y-138575000D01*
X121880000Y-139700000D02*
X121920000Y-139700000D01*
X119340000Y-142240000D02*
X121880000Y-139700000D01*
X116840000Y-140424500D02*
X116840000Y-137160000D01*
%TO.N,/YELLOW*%
X103627700Y-132592300D02*
X104140000Y-133104600D01*
X104140000Y-133104600D02*
X104140000Y-139700000D01*
%TO.N,+3.3V*%
X137160000Y-109220000D02*
X137160000Y-111760000D01*
X137160000Y-111760000D02*
X139700000Y-114300000D01*
%TO.N,/Vin*%
X147320000Y-111950000D02*
X146145000Y-113125000D01*
X134660000Y-106640000D02*
X134620000Y-106680000D01*
X134660000Y-104140000D02*
X134660000Y-106640000D01*
X146145000Y-113125000D02*
X146145000Y-135985000D01*
X146145000Y-135985000D02*
X147320000Y-137160000D01*
X147320000Y-104140000D02*
X147320000Y-111950000D01*
%TO.N,Net-(D3-K)*%
X140925000Y-112985000D02*
X140925000Y-115615000D01*
X140925000Y-115615000D02*
X139700000Y-116840000D01*
X139700000Y-111760000D02*
X140925000Y-112985000D01*
%TO.N,/A4*%
X116840000Y-135344500D02*
X116840000Y-129540000D01*
X109220000Y-135344500D02*
X109220000Y-137160000D01*
%TD*%
%TA.AperFunction,Conductor*%
%TO.N,GND*%
G36*
X109553524Y-100019238D02*
G01*
X109599258Y-100069789D01*
X109611362Y-100136874D01*
X109586177Y-100200220D01*
X109531314Y-100240682D01*
X109422669Y-100281204D01*
X109307454Y-100367454D01*
X109221204Y-100482668D01*
X109170909Y-100617516D01*
X109164500Y-100677130D01*
X109164500Y-102472869D01*
X109170909Y-102532483D01*
X109221204Y-102667331D01*
X109307454Y-102782546D01*
X109422669Y-102868796D01*
X109557517Y-102919091D01*
X109617127Y-102925500D01*
X111010500Y-102925499D01*
X111072500Y-102942112D01*
X111117887Y-102987499D01*
X111134500Y-103049499D01*
X111134500Y-108521313D01*
X111126264Y-108565751D01*
X111102652Y-108604282D01*
X111074859Y-108635150D01*
X111027464Y-108687786D01*
X110932820Y-108851715D01*
X110874326Y-109031742D01*
X110854540Y-109220000D01*
X110874326Y-109408257D01*
X110932820Y-109588284D01*
X111027466Y-109752216D01*
X111154129Y-109892889D01*
X111307269Y-110004151D01*
X111480197Y-110081144D01*
X111665352Y-110120500D01*
X111665354Y-110120500D01*
X111854646Y-110120500D01*
X111854648Y-110120500D01*
X111978084Y-110094262D01*
X112039803Y-110081144D01*
X112212730Y-110004151D01*
X112293495Y-109945472D01*
X112365870Y-109892889D01*
X112492533Y-109752216D01*
X112587179Y-109588284D01*
X112593457Y-109568963D01*
X112645674Y-109408256D01*
X112665460Y-109220000D01*
X112645674Y-109031744D01*
X112608465Y-108917228D01*
X112587179Y-108851715D01*
X112492535Y-108687786D01*
X112462627Y-108654570D01*
X112417347Y-108604282D01*
X112393736Y-108565751D01*
X112385500Y-108521313D01*
X112385500Y-103180452D01*
X112394939Y-103133000D01*
X112421816Y-103092773D01*
X112599355Y-102915234D01*
X112654938Y-102883143D01*
X112719126Y-102883143D01*
X112819592Y-102910063D01*
X113055000Y-102930659D01*
X113290408Y-102910063D01*
X113518663Y-102848903D01*
X113732830Y-102749035D01*
X113926401Y-102613495D01*
X114093495Y-102446401D01*
X114223426Y-102260839D01*
X114267743Y-102221975D01*
X114325000Y-102207964D01*
X114382257Y-102221975D01*
X114426573Y-102260839D01*
X114556505Y-102446401D01*
X114723599Y-102613495D01*
X114916625Y-102748653D01*
X114955489Y-102792970D01*
X114969500Y-102850227D01*
X114969500Y-105329979D01*
X114956712Y-105384823D01*
X114920986Y-105428355D01*
X114869691Y-105451596D01*
X114813407Y-105449754D01*
X114670750Y-105411529D01*
X114606689Y-105394364D01*
X114380000Y-105374531D01*
X114153310Y-105394364D01*
X113933502Y-105453261D01*
X113727264Y-105549432D01*
X113540859Y-105679953D01*
X113379953Y-105840859D01*
X113249432Y-106027264D01*
X113153261Y-106233502D01*
X113094364Y-106453310D01*
X113074531Y-106679999D01*
X113094364Y-106906689D01*
X113153261Y-107126497D01*
X113249432Y-107332735D01*
X113379953Y-107519140D01*
X113540859Y-107680046D01*
X113701623Y-107792613D01*
X113740489Y-107836931D01*
X113754500Y-107894188D01*
X113754500Y-108829547D01*
X113745061Y-108877000D01*
X113718181Y-108917228D01*
X103167807Y-119467601D01*
X103106965Y-119500981D01*
X103037716Y-119496442D01*
X102981750Y-119455407D01*
X102956598Y-119390728D01*
X102935063Y-119144592D01*
X102913889Y-119065569D01*
X102873903Y-118916337D01*
X102774035Y-118702171D01*
X102638495Y-118508599D01*
X102471401Y-118341505D01*
X102285839Y-118211573D01*
X102246974Y-118167255D01*
X102232964Y-118109999D01*
X102246975Y-118052742D01*
X102285837Y-118008428D01*
X102471401Y-117878495D01*
X102638495Y-117711401D01*
X102774035Y-117517830D01*
X102873903Y-117303663D01*
X102935063Y-117075408D01*
X102955659Y-116840000D01*
X102935063Y-116604592D01*
X102873903Y-116376337D01*
X102774035Y-116162171D01*
X102638495Y-115968599D01*
X102516568Y-115846672D01*
X102485273Y-115793927D01*
X102483084Y-115732634D01*
X102510537Y-115677789D01*
X102560916Y-115642810D01*
X102692331Y-115593796D01*
X102807546Y-115507546D01*
X102893796Y-115392331D01*
X102944091Y-115257483D01*
X102950500Y-115197873D01*
X102950499Y-113402128D01*
X102944091Y-113342517D01*
X102893796Y-113207669D01*
X102807546Y-113092454D01*
X102692331Y-113006204D01*
X102557483Y-112955909D01*
X102497873Y-112949500D01*
X102497869Y-112949500D01*
X100702130Y-112949500D01*
X100642515Y-112955909D01*
X100507669Y-113006204D01*
X100392454Y-113092454D01*
X100306204Y-113207668D01*
X100255909Y-113342516D01*
X100249500Y-113402130D01*
X100249500Y-115197869D01*
X100255909Y-115257484D01*
X100271784Y-115300046D01*
X100306204Y-115392331D01*
X100392454Y-115507546D01*
X100507669Y-115593796D01*
X100617617Y-115634804D01*
X100639082Y-115642810D01*
X100689462Y-115677789D01*
X100716915Y-115732634D01*
X100714726Y-115793926D01*
X100683431Y-115846673D01*
X100561503Y-115968601D01*
X100425965Y-116162170D01*
X100326097Y-116376336D01*
X100264936Y-116604592D01*
X100248028Y-116797853D01*
X100233033Y-116840000D01*
X100248028Y-116882147D01*
X100264936Y-117075407D01*
X100286111Y-117154431D01*
X100326097Y-117303663D01*
X100425965Y-117517830D01*
X100561505Y-117711401D01*
X100728599Y-117878495D01*
X100914160Y-118008426D01*
X100953024Y-118052743D01*
X100967035Y-118110000D01*
X100953024Y-118167257D01*
X100914159Y-118211575D01*
X100728595Y-118341508D01*
X100561505Y-118508598D01*
X100425965Y-118702170D01*
X100326097Y-118916336D01*
X100264936Y-119144592D01*
X100248028Y-119337853D01*
X100233033Y-119380000D01*
X100248028Y-119422147D01*
X100264936Y-119615407D01*
X100309709Y-119782502D01*
X100326097Y-119843663D01*
X100425965Y-120057830D01*
X100561505Y-120251401D01*
X100728599Y-120418495D01*
X100914160Y-120548426D01*
X100953024Y-120592743D01*
X100967035Y-120650000D01*
X100953024Y-120707257D01*
X100914160Y-120751574D01*
X100730322Y-120880299D01*
X100728595Y-120881508D01*
X100561505Y-121048598D01*
X100425965Y-121242170D01*
X100326097Y-121456336D01*
X100264936Y-121684592D01*
X100248028Y-121877853D01*
X100233033Y-121919999D01*
X100248028Y-121962147D01*
X100264936Y-122155407D01*
X100286111Y-122234431D01*
X100326097Y-122383663D01*
X100425965Y-122597830D01*
X100561505Y-122791401D01*
X100728599Y-122958495D01*
X100914160Y-123088426D01*
X100953024Y-123132743D01*
X100967035Y-123190000D01*
X100953024Y-123247257D01*
X100914158Y-123291575D01*
X100788902Y-123379281D01*
X100728595Y-123421508D01*
X100561505Y-123588598D01*
X100425965Y-123782170D01*
X100326097Y-123996336D01*
X100264936Y-124224592D01*
X100248028Y-124417853D01*
X100233033Y-124460000D01*
X100248028Y-124502147D01*
X100264936Y-124695407D01*
X100309709Y-124862502D01*
X100326097Y-124923663D01*
X100425965Y-125137830D01*
X100561505Y-125331401D01*
X100728599Y-125498495D01*
X100914160Y-125628426D01*
X100953024Y-125672743D01*
X100967035Y-125730000D01*
X100953024Y-125787257D01*
X100914158Y-125831575D01*
X100838913Y-125884263D01*
X100728595Y-125961508D01*
X100561505Y-126128598D01*
X100425965Y-126322170D01*
X100326097Y-126536336D01*
X100264936Y-126764592D01*
X100248028Y-126957853D01*
X100233033Y-127000000D01*
X100248028Y-127042147D01*
X100264936Y-127235407D01*
X100309709Y-127402501D01*
X100326097Y-127463663D01*
X100425965Y-127677830D01*
X100561505Y-127871401D01*
X100728599Y-128038495D01*
X100914160Y-128168426D01*
X100953024Y-128212743D01*
X100967035Y-128270000D01*
X100953024Y-128327257D01*
X100914159Y-128371575D01*
X100728595Y-128501508D01*
X100561505Y-128668598D01*
X100425965Y-128862170D01*
X100326097Y-129076336D01*
X100264936Y-129304592D01*
X100248028Y-129497853D01*
X100233033Y-129540000D01*
X100248028Y-129582147D01*
X100264936Y-129775407D01*
X100309709Y-129942501D01*
X100326097Y-130003663D01*
X100425965Y-130217830D01*
X100561505Y-130411401D01*
X100728599Y-130578495D01*
X100914160Y-130708426D01*
X100953024Y-130752743D01*
X100967035Y-130810000D01*
X100953024Y-130867257D01*
X100914159Y-130911575D01*
X100728595Y-131041508D01*
X100561505Y-131208598D01*
X100425965Y-131402170D01*
X100326097Y-131616336D01*
X100264936Y-131844592D01*
X100248028Y-132037853D01*
X100233033Y-132080000D01*
X100248028Y-132122147D01*
X100264936Y-132315407D01*
X100309709Y-132482501D01*
X100326097Y-132543663D01*
X100425965Y-132757830D01*
X100561505Y-132951401D01*
X100728599Y-133118495D01*
X100914160Y-133248426D01*
X100953024Y-133292743D01*
X100967035Y-133350000D01*
X100953024Y-133407257D01*
X100914159Y-133451575D01*
X100728595Y-133581508D01*
X100561505Y-133748598D01*
X100425965Y-133942170D01*
X100326097Y-134156336D01*
X100264936Y-134384592D01*
X100248028Y-134577853D01*
X100233033Y-134620000D01*
X100248028Y-134662147D01*
X100264936Y-134855407D01*
X100309709Y-135022501D01*
X100326097Y-135083663D01*
X100425965Y-135297830D01*
X100561505Y-135491401D01*
X100728599Y-135658495D01*
X100914160Y-135788426D01*
X100953024Y-135832743D01*
X100967035Y-135890000D01*
X100953024Y-135947257D01*
X100914158Y-135991575D01*
X100774462Y-136089392D01*
X100728595Y-136121508D01*
X100561505Y-136288598D01*
X100425965Y-136482170D01*
X100326097Y-136696336D01*
X100264936Y-136924592D01*
X100248028Y-137117853D01*
X100233033Y-137160000D01*
X100248028Y-137202147D01*
X100264936Y-137395407D01*
X100309709Y-137562501D01*
X100326097Y-137623663D01*
X100425965Y-137837830D01*
X100561505Y-138031401D01*
X100728599Y-138198495D01*
X100914160Y-138328426D01*
X100953024Y-138372743D01*
X100967035Y-138430000D01*
X100953024Y-138487257D01*
X100914160Y-138531574D01*
X100788902Y-138619281D01*
X100728595Y-138661508D01*
X100561505Y-138828598D01*
X100425965Y-139022170D01*
X100326097Y-139236336D01*
X100264936Y-139464592D01*
X100248028Y-139657853D01*
X100233033Y-139700000D01*
X100248028Y-139742147D01*
X100264936Y-139935407D01*
X100309709Y-140102502D01*
X100326097Y-140163663D01*
X100425965Y-140377830D01*
X100561505Y-140571401D01*
X100728599Y-140738495D01*
X100914597Y-140868732D01*
X100953460Y-140913048D01*
X100967471Y-140970305D01*
X100953461Y-141027561D01*
X100914595Y-141071880D01*
X100728919Y-141201892D01*
X100561890Y-141368921D01*
X100426400Y-141562421D01*
X100326569Y-141776507D01*
X100269364Y-141989999D01*
X100269364Y-141990000D01*
X102930636Y-141990000D01*
X102930635Y-141989999D01*
X102873430Y-141776507D01*
X102773599Y-141562421D01*
X102639301Y-141370623D01*
X102617141Y-141307610D01*
X102630887Y-141242243D01*
X102676548Y-141193491D01*
X102740876Y-141175500D01*
X104232561Y-141175500D01*
X104253067Y-141177764D01*
X104255970Y-141177672D01*
X104255972Y-141177673D01*
X104323177Y-141175561D01*
X104327073Y-141175500D01*
X104354654Y-141175500D01*
X104354655Y-141175500D01*
X104358624Y-141174998D01*
X104370270Y-141174080D01*
X104413932Y-141172709D01*
X104433164Y-141167120D01*
X104452223Y-141163174D01*
X104458501Y-141162381D01*
X104472097Y-141160664D01*
X104512712Y-141144582D01*
X104523749Y-141140803D01*
X104565695Y-141128618D01*
X104582934Y-141118422D01*
X104600407Y-141109862D01*
X104619037Y-141102486D01*
X104654369Y-141076814D01*
X104664135Y-141070400D01*
X104701723Y-141048171D01*
X104701722Y-141048171D01*
X104701725Y-141048170D01*
X104715890Y-141034004D01*
X104730678Y-141021373D01*
X104746892Y-141009594D01*
X104774743Y-140975926D01*
X104782584Y-140967309D01*
X107063786Y-138686107D01*
X107079887Y-138673209D01*
X107081874Y-138671092D01*
X107081877Y-138671091D01*
X107127932Y-138622046D01*
X107130613Y-138619281D01*
X107136865Y-138613029D01*
X107150120Y-138599775D01*
X107152581Y-138596600D01*
X107160152Y-138587736D01*
X107190062Y-138555887D01*
X107199713Y-138538331D01*
X107210393Y-138522072D01*
X107222674Y-138506241D01*
X107240018Y-138466156D01*
X107245160Y-138455661D01*
X107252421Y-138442454D01*
X107266197Y-138417397D01*
X107271178Y-138397993D01*
X107277480Y-138379588D01*
X107285438Y-138361200D01*
X107292270Y-138318053D01*
X107294639Y-138306621D01*
X107305500Y-138264325D01*
X107305500Y-138244289D01*
X107307027Y-138224890D01*
X107307064Y-138224656D01*
X107310160Y-138205109D01*
X107306050Y-138161630D01*
X107305500Y-138149961D01*
X107305500Y-137160000D01*
X107864340Y-137160000D01*
X107884936Y-137395407D01*
X107929709Y-137562501D01*
X107946097Y-137623663D01*
X108045965Y-137837830D01*
X108181505Y-138031401D01*
X108348599Y-138198495D01*
X108542170Y-138334035D01*
X108756337Y-138433903D01*
X108984592Y-138495063D01*
X109220000Y-138515659D01*
X109455408Y-138495063D01*
X109683663Y-138433903D01*
X109897830Y-138334035D01*
X110091401Y-138198495D01*
X110258495Y-138031401D01*
X110394035Y-137837830D01*
X110493903Y-137623663D01*
X110555063Y-137395408D01*
X110575659Y-137160000D01*
X110555063Y-136924592D01*
X110493903Y-136696337D01*
X110394035Y-136482171D01*
X110258495Y-136288599D01*
X110091401Y-136121505D01*
X109984941Y-136046961D01*
X109945256Y-136001039D01*
X109932119Y-135941781D01*
X109948680Y-135883387D01*
X109952528Y-135876720D01*
X109952533Y-135876716D01*
X110047179Y-135712784D01*
X110105674Y-135532756D01*
X110125460Y-135344500D01*
X110105674Y-135156244D01*
X110047179Y-134976216D01*
X110047179Y-134976215D01*
X109952533Y-134812283D01*
X109825870Y-134671610D01*
X109672730Y-134560348D01*
X109499802Y-134483355D01*
X109314648Y-134444000D01*
X109314646Y-134444000D01*
X109125354Y-134444000D01*
X109125352Y-134444000D01*
X108940197Y-134483355D01*
X108767269Y-134560348D01*
X108614129Y-134671610D01*
X108487466Y-134812283D01*
X108392820Y-134976215D01*
X108334326Y-135156242D01*
X108314540Y-135344499D01*
X108334326Y-135532757D01*
X108392820Y-135712784D01*
X108491319Y-135883389D01*
X108507880Y-135941783D01*
X108494742Y-136001040D01*
X108455055Y-136046964D01*
X108348598Y-136121505D01*
X108181505Y-136288598D01*
X108045965Y-136482170D01*
X107946097Y-136696336D01*
X107884936Y-136924592D01*
X107864340Y-137160000D01*
X107305500Y-137160000D01*
X107305500Y-132330000D01*
X107870000Y-132330000D01*
X107870000Y-132977824D01*
X107876402Y-133037375D01*
X107926647Y-133172089D01*
X108012811Y-133287188D01*
X108127910Y-133373352D01*
X108262624Y-133423597D01*
X108322176Y-133430000D01*
X108970000Y-133430000D01*
X108970000Y-132330000D01*
X109470000Y-132330000D01*
X109470000Y-133430000D01*
X110117824Y-133430000D01*
X110177375Y-133423597D01*
X110312089Y-133373352D01*
X110427188Y-133287188D01*
X110513352Y-133172089D01*
X110563597Y-133037375D01*
X110570000Y-132977824D01*
X110570000Y-132330000D01*
X109470000Y-132330000D01*
X108970000Y-132330000D01*
X107870000Y-132330000D01*
X107305500Y-132330000D01*
X107305500Y-131830000D01*
X107870000Y-131830000D01*
X108970000Y-131830000D01*
X108970000Y-130730000D01*
X109470000Y-130730000D01*
X109470000Y-131830000D01*
X110570000Y-131830000D01*
X110570000Y-131182176D01*
X110563597Y-131122624D01*
X110513352Y-130987910D01*
X110427188Y-130872811D01*
X110312089Y-130786647D01*
X110177375Y-130736402D01*
X110117824Y-130730000D01*
X109470000Y-130730000D01*
X108970000Y-130730000D01*
X108322176Y-130730000D01*
X108262624Y-130736402D01*
X108127910Y-130786647D01*
X108012811Y-130872811D01*
X107926647Y-130987910D01*
X107876402Y-131122624D01*
X107870000Y-131182176D01*
X107870000Y-131830000D01*
X107305500Y-131830000D01*
X107305500Y-125674188D01*
X107319511Y-125616931D01*
X107358377Y-125572613D01*
X107519140Y-125460046D01*
X107680046Y-125299140D01*
X107792995Y-125137830D01*
X107810568Y-125112734D01*
X107906739Y-124906496D01*
X107965635Y-124686692D01*
X107985468Y-124460000D01*
X107965635Y-124233308D01*
X107906739Y-124013504D01*
X107810568Y-123807266D01*
X107801126Y-123793782D01*
X107680046Y-123620859D01*
X107519140Y-123459953D01*
X107332735Y-123329432D01*
X107126497Y-123233261D01*
X106906689Y-123174364D01*
X106680000Y-123154531D01*
X106453310Y-123174364D01*
X106233502Y-123233261D01*
X106027264Y-123329432D01*
X105840859Y-123459953D01*
X105679953Y-123620859D01*
X105549432Y-123807264D01*
X105453261Y-124013502D01*
X105394364Y-124233310D01*
X105374531Y-124459999D01*
X105394364Y-124686689D01*
X105453261Y-124906497D01*
X105549432Y-125112735D01*
X105679953Y-125299140D01*
X105840859Y-125460046D01*
X106001623Y-125572613D01*
X106040489Y-125616931D01*
X106054500Y-125674188D01*
X106054500Y-137874853D01*
X106045061Y-137922306D01*
X106018181Y-137962534D01*
X104977181Y-139003532D01*
X104927818Y-139033782D01*
X104870102Y-139038324D01*
X104816615Y-139016169D01*
X104779015Y-138972146D01*
X104765500Y-138915851D01*
X104765500Y-133187344D01*
X104767764Y-133166836D01*
X104765561Y-133096713D01*
X104765500Y-133092819D01*
X104765500Y-133065254D01*
X104765500Y-133065250D01*
X104764997Y-133061270D01*
X104764081Y-133049628D01*
X104763696Y-133037375D01*
X104762710Y-133005973D01*
X104757118Y-132986726D01*
X104753174Y-132967685D01*
X104750664Y-132947808D01*
X104734579Y-132907183D01*
X104730808Y-132896168D01*
X104718618Y-132854210D01*
X104708414Y-132836955D01*
X104699861Y-132819495D01*
X104692486Y-132800869D01*
X104692486Y-132800868D01*
X104666808Y-132765525D01*
X104660401Y-132755771D01*
X104638170Y-132718180D01*
X104624006Y-132704016D01*
X104611367Y-132689217D01*
X104599595Y-132673013D01*
X104575116Y-132652763D01*
X104544874Y-132615815D01*
X104530835Y-132570184D01*
X104513374Y-132404044D01*
X104454879Y-132224016D01*
X104454879Y-132224015D01*
X104360233Y-132060083D01*
X104233570Y-131919410D01*
X104080430Y-131808148D01*
X103907502Y-131731155D01*
X103722348Y-131691800D01*
X103722346Y-131691800D01*
X103652200Y-131691800D01*
X103590200Y-131675187D01*
X103544813Y-131629800D01*
X103528200Y-131567800D01*
X103528200Y-120927752D01*
X103537639Y-120880299D01*
X103564519Y-120840071D01*
X109160432Y-115244158D01*
X114763789Y-109640800D01*
X114779885Y-109627906D01*
X114781873Y-109625787D01*
X114781877Y-109625786D01*
X114827948Y-109576723D01*
X114830566Y-109574023D01*
X114850120Y-109554471D01*
X114850122Y-109554469D01*
X114852021Y-109552021D01*
X114854529Y-109550062D01*
X114855642Y-109548950D01*
X114855778Y-109549086D01*
X114900039Y-109514529D01*
X114960117Y-109504430D01*
X115017754Y-109524162D01*
X115059038Y-109568963D01*
X115074003Y-109628017D01*
X115074003Y-123191340D01*
X115058717Y-123250983D01*
X115016628Y-123295921D01*
X114958112Y-123315075D01*
X114897599Y-123303722D01*
X114796596Y-123256623D01*
X114746497Y-123233261D01*
X114526689Y-123174364D01*
X114300000Y-123154531D01*
X114073310Y-123174364D01*
X113853502Y-123233261D01*
X113647264Y-123329432D01*
X113460859Y-123459953D01*
X113299953Y-123620859D01*
X113169432Y-123807264D01*
X113073261Y-124013502D01*
X113014364Y-124233310D01*
X112994531Y-124459999D01*
X113014364Y-124686689D01*
X113073261Y-124906497D01*
X113169432Y-125112735D01*
X113299953Y-125299140D01*
X113460859Y-125460046D01*
X113621623Y-125572613D01*
X113660489Y-125616931D01*
X113674500Y-125674188D01*
X113674500Y-137949548D01*
X113665061Y-137997001D01*
X113638181Y-138037229D01*
X110620954Y-141054454D01*
X110576606Y-141082955D01*
X110524427Y-141090457D01*
X110473846Y-141075605D01*
X110434006Y-141041084D01*
X110427546Y-141032454D01*
X110312331Y-140946204D01*
X110177483Y-140895909D01*
X110117873Y-140889500D01*
X110117869Y-140889500D01*
X108322130Y-140889500D01*
X108262515Y-140895909D01*
X108127669Y-140946204D01*
X108012454Y-141032454D01*
X107926204Y-141147668D01*
X107905979Y-141201893D01*
X107875909Y-141282517D01*
X107871342Y-141325000D01*
X107869500Y-141342130D01*
X107869500Y-143137869D01*
X107875909Y-143197483D01*
X107926204Y-143332331D01*
X108012454Y-143447546D01*
X108127669Y-143533796D01*
X108262517Y-143584091D01*
X108322127Y-143590500D01*
X110117872Y-143590499D01*
X110177483Y-143584091D01*
X110312331Y-143533796D01*
X110427546Y-143447546D01*
X110513796Y-143332331D01*
X110518758Y-143319026D01*
X116114526Y-143319026D01*
X116187515Y-143370133D01*
X116393673Y-143466266D01*
X116613397Y-143525141D01*
X116840000Y-143544966D01*
X117066602Y-143525141D01*
X117286326Y-143466266D01*
X117492480Y-143370134D01*
X117565472Y-143319025D01*
X116840001Y-142593553D01*
X116840000Y-142593553D01*
X116114526Y-143319025D01*
X116114526Y-143319026D01*
X110518758Y-143319026D01*
X110564091Y-143197483D01*
X110570500Y-143137873D01*
X110570499Y-142894342D01*
X110584014Y-142838049D01*
X110621612Y-142794026D01*
X110623732Y-142792486D01*
X110659069Y-142766810D01*
X110668830Y-142760400D01*
X110706418Y-142738171D01*
X110706417Y-142738171D01*
X110706420Y-142738170D01*
X110720585Y-142724004D01*
X110735373Y-142711373D01*
X110751587Y-142699594D01*
X110779438Y-142665926D01*
X110787279Y-142657309D01*
X111204588Y-142240000D01*
X115535033Y-142240000D01*
X115554858Y-142466602D01*
X115613733Y-142686326D01*
X115709866Y-142892484D01*
X115760972Y-142965471D01*
X115760974Y-142965472D01*
X116486446Y-142240001D01*
X117193553Y-142240001D01*
X117919025Y-142965472D01*
X117970131Y-142892484D01*
X117977340Y-142877026D01*
X118023097Y-142824849D01*
X118089722Y-142805428D01*
X118156348Y-142824847D01*
X118202106Y-142877023D01*
X118209432Y-142892735D01*
X118339953Y-143079140D01*
X118500859Y-143240046D01*
X118687264Y-143370567D01*
X118687265Y-143370567D01*
X118687266Y-143370568D01*
X118893504Y-143466739D01*
X119113308Y-143525635D01*
X119340000Y-143545468D01*
X119566692Y-143525635D01*
X119786496Y-143466739D01*
X119992734Y-143370568D01*
X120179139Y-143240047D01*
X120340047Y-143079139D01*
X120340047Y-143079138D01*
X120342319Y-143076867D01*
X120397906Y-143044773D01*
X120462094Y-143044773D01*
X120517681Y-143076867D01*
X120519953Y-143079139D01*
X120680861Y-143240047D01*
X120760670Y-143295930D01*
X120867264Y-143370567D01*
X120867265Y-143370567D01*
X120867266Y-143370568D01*
X121073504Y-143466739D01*
X121293308Y-143525635D01*
X121378261Y-143533067D01*
X121463214Y-143540500D01*
X121463216Y-143540500D01*
X122376784Y-143540500D01*
X122376786Y-143540500D01*
X122453411Y-143533796D01*
X122546692Y-143525635D01*
X122766496Y-143466739D01*
X122972734Y-143370568D01*
X123159139Y-143240047D01*
X123320047Y-143079139D01*
X123450568Y-142892734D01*
X123546739Y-142686496D01*
X123605635Y-142466692D01*
X123625468Y-142240000D01*
X123605635Y-142013308D01*
X123546739Y-141793504D01*
X123450568Y-141587266D01*
X123399635Y-141514526D01*
X123320046Y-141400859D01*
X123159140Y-141239953D01*
X122972733Y-141109431D01*
X122914725Y-141082382D01*
X122862549Y-141036625D01*
X122843129Y-140970000D01*
X122862549Y-140903375D01*
X122914725Y-140857618D01*
X122947510Y-140842330D01*
X122972734Y-140830568D01*
X123159139Y-140700047D01*
X123320047Y-140539139D01*
X123450568Y-140352734D01*
X123504708Y-140236630D01*
X123548198Y-140185935D01*
X123611679Y-140165155D01*
X123676730Y-140180322D01*
X123724475Y-140227035D01*
X123727466Y-140232215D01*
X123854129Y-140372889D01*
X124007269Y-140484151D01*
X124180197Y-140561144D01*
X124365352Y-140600500D01*
X124365354Y-140600500D01*
X124554646Y-140600500D01*
X124554648Y-140600500D01*
X124691547Y-140571401D01*
X124739803Y-140561144D01*
X124912730Y-140484151D01*
X125065871Y-140372888D01*
X125192533Y-140232216D01*
X125287179Y-140068284D01*
X125345674Y-139888256D01*
X125363322Y-139720341D01*
X125374720Y-139679927D01*
X125398957Y-139645632D01*
X125807771Y-139236819D01*
X125848000Y-139209939D01*
X125895453Y-139200500D01*
X127765863Y-139200500D01*
X127820707Y-139213288D01*
X127864239Y-139249013D01*
X127887480Y-139300309D01*
X127885638Y-139356593D01*
X127854364Y-139473308D01*
X127834531Y-139699999D01*
X127854364Y-139926689D01*
X127913261Y-140146497D01*
X128009432Y-140352735D01*
X128139953Y-140539140D01*
X128300859Y-140700046D01*
X128433304Y-140792784D01*
X128487266Y-140830568D01*
X128545275Y-140857618D01*
X128597450Y-140903375D01*
X128616869Y-140970000D01*
X128597450Y-141036625D01*
X128545275Y-141082382D01*
X128487263Y-141109433D01*
X128300859Y-141239953D01*
X128139953Y-141400859D01*
X128009432Y-141587264D01*
X127913261Y-141793502D01*
X127854364Y-142013310D01*
X127834531Y-142239999D01*
X127854364Y-142466689D01*
X127913261Y-142686497D01*
X128009432Y-142892735D01*
X128139953Y-143079140D01*
X128300859Y-143240046D01*
X128487264Y-143370567D01*
X128487265Y-143370567D01*
X128487266Y-143370568D01*
X128693504Y-143466739D01*
X128913308Y-143525635D01*
X128998261Y-143533067D01*
X129083214Y-143540500D01*
X129083216Y-143540500D01*
X129996784Y-143540500D01*
X129996786Y-143540500D01*
X130073411Y-143533796D01*
X130166692Y-143525635D01*
X130386496Y-143466739D01*
X130592734Y-143370568D01*
X130779139Y-143240047D01*
X130940047Y-143079139D01*
X131070568Y-142892734D01*
X131166739Y-142686496D01*
X131219390Y-142490000D01*
X145989364Y-142490000D01*
X146046569Y-142703492D01*
X146146399Y-142917576D01*
X146281893Y-143111081D01*
X146448918Y-143278106D01*
X146642423Y-143413600D01*
X146856507Y-143513430D01*
X147069999Y-143570635D01*
X147070000Y-143570636D01*
X147070000Y-142490000D01*
X147570000Y-142490000D01*
X147570000Y-143570635D01*
X147783492Y-143513430D01*
X147997576Y-143413600D01*
X148191081Y-143278106D01*
X148358106Y-143111081D01*
X148493600Y-142917576D01*
X148593430Y-142703492D01*
X148650636Y-142490000D01*
X147570000Y-142490000D01*
X147070000Y-142490000D01*
X145989364Y-142490000D01*
X131219390Y-142490000D01*
X131225635Y-142466692D01*
X131245468Y-142240000D01*
X131225635Y-142013308D01*
X131166739Y-141793504D01*
X131070568Y-141587266D01*
X131019635Y-141514526D01*
X130940046Y-141400859D01*
X130779140Y-141239953D01*
X130592733Y-141109431D01*
X130534725Y-141082382D01*
X130482549Y-141036625D01*
X130463129Y-140970000D01*
X130482549Y-140903375D01*
X130534725Y-140857618D01*
X130567510Y-140842330D01*
X130592734Y-140830568D01*
X130779139Y-140700047D01*
X130940047Y-140539139D01*
X131070568Y-140352734D01*
X131166739Y-140146496D01*
X131225635Y-139926692D01*
X131245468Y-139700000D01*
X131225635Y-139473308D01*
X131217129Y-139441563D01*
X131194362Y-139356593D01*
X131192520Y-139300309D01*
X131215761Y-139249013D01*
X131259293Y-139213288D01*
X131314137Y-139200500D01*
X131606856Y-139200500D01*
X131627362Y-139202764D01*
X131630265Y-139202672D01*
X131630267Y-139202673D01*
X131697472Y-139200561D01*
X131701368Y-139200500D01*
X131728949Y-139200500D01*
X131728950Y-139200500D01*
X131732919Y-139199998D01*
X131744565Y-139199080D01*
X131788227Y-139197709D01*
X131807459Y-139192120D01*
X131826518Y-139188174D01*
X131832796Y-139187381D01*
X131846392Y-139185664D01*
X131887007Y-139169582D01*
X131898044Y-139165803D01*
X131939990Y-139153618D01*
X131957229Y-139143422D01*
X131974702Y-139134862D01*
X131993332Y-139127486D01*
X132028664Y-139101814D01*
X132038430Y-139095400D01*
X132076018Y-139073171D01*
X132076017Y-139073171D01*
X132076020Y-139073170D01*
X132090185Y-139059004D01*
X132104973Y-139046373D01*
X132121187Y-139034594D01*
X132149038Y-139000926D01*
X132156879Y-138992309D01*
X132540070Y-138609119D01*
X132580299Y-138582239D01*
X132627752Y-138572800D01*
X132686948Y-138572800D01*
X132810383Y-138546562D01*
X132872103Y-138533444D01*
X133045030Y-138456451D01*
X133081078Y-138430260D01*
X133139476Y-138407427D01*
X133201579Y-138416084D01*
X133251507Y-138454018D01*
X133276492Y-138511529D01*
X133270146Y-138573911D01*
X133225909Y-138692514D01*
X133219500Y-138752130D01*
X133219500Y-140647869D01*
X133225909Y-140707483D01*
X133276204Y-140842331D01*
X133362454Y-140957546D01*
X133477669Y-141043796D01*
X133612517Y-141094091D01*
X133672127Y-141100500D01*
X135567872Y-141100499D01*
X135627483Y-141094091D01*
X135762331Y-141043796D01*
X135877546Y-140957546D01*
X135963796Y-140842331D01*
X136014091Y-140707483D01*
X136020500Y-140647873D01*
X136020499Y-139839312D01*
X136036046Y-139779199D01*
X136078789Y-139734157D01*
X136138009Y-139715485D01*
X136198857Y-139727864D01*
X136246073Y-139768191D01*
X136267820Y-139826353D01*
X136274326Y-139888257D01*
X136332820Y-140068284D01*
X136427466Y-140232216D01*
X136554129Y-140372889D01*
X136707269Y-140484151D01*
X136880197Y-140561144D01*
X137065352Y-140600500D01*
X137065354Y-140600500D01*
X137254646Y-140600500D01*
X137254648Y-140600500D01*
X137391547Y-140571401D01*
X137439803Y-140561144D01*
X137612730Y-140484151D01*
X137765871Y-140372888D01*
X137892533Y-140232216D01*
X137987179Y-140068284D01*
X138045674Y-139888256D01*
X138052180Y-139826348D01*
X138073925Y-139768191D01*
X138121141Y-139727864D01*
X138181989Y-139715484D01*
X138241210Y-139734156D01*
X138283953Y-139779197D01*
X138299500Y-139839314D01*
X138299500Y-140647869D01*
X138305909Y-140707483D01*
X138356204Y-140842331D01*
X138442454Y-140957546D01*
X138557669Y-141043796D01*
X138692517Y-141094091D01*
X138752127Y-141100500D01*
X140647872Y-141100499D01*
X140707483Y-141094091D01*
X140842331Y-141043796D01*
X140957546Y-140957546D01*
X141043796Y-140842331D01*
X141094091Y-140707483D01*
X141100500Y-140647873D01*
X141100499Y-138752128D01*
X141094091Y-138692517D01*
X141043796Y-138557669D01*
X140957546Y-138442454D01*
X140842331Y-138356204D01*
X140767849Y-138328424D01*
X140762093Y-138326277D01*
X140712558Y-138292261D01*
X140684831Y-138238951D01*
X140685424Y-138178864D01*
X140714196Y-138126114D01*
X140808979Y-138023153D01*
X140935924Y-137828849D01*
X141029157Y-137616300D01*
X141086134Y-137391305D01*
X141105300Y-137160000D01*
X141086134Y-136928695D01*
X141029157Y-136703700D01*
X140935924Y-136491151D01*
X140808979Y-136296847D01*
X140651784Y-136126087D01*
X140468626Y-135983530D01*
X140264503Y-135873064D01*
X140264499Y-135873062D01*
X140264498Y-135873062D01*
X140044984Y-135797702D01*
X139873281Y-135769050D01*
X139816049Y-135759500D01*
X139583951Y-135759500D01*
X139507640Y-135772234D01*
X139355017Y-135797702D01*
X139329421Y-135806489D01*
X139261209Y-135810016D01*
X139201478Y-135776888D01*
X139175158Y-135750568D01*
X139136818Y-135712227D01*
X139109939Y-135671998D01*
X139100500Y-135624546D01*
X139100500Y-129539999D01*
X140934531Y-129539999D01*
X140954364Y-129766689D01*
X141013261Y-129986497D01*
X141109432Y-130192735D01*
X141239953Y-130379140D01*
X141400859Y-130540046D01*
X141587264Y-130670567D01*
X141587265Y-130670567D01*
X141587266Y-130670568D01*
X141793504Y-130766739D01*
X142013308Y-130825635D01*
X142240000Y-130845468D01*
X142466692Y-130825635D01*
X142686496Y-130766739D01*
X142892734Y-130670568D01*
X143079139Y-130540047D01*
X143240047Y-130379139D01*
X143370568Y-130192734D01*
X143466739Y-129986496D01*
X143525635Y-129766692D01*
X143545468Y-129540000D01*
X143525635Y-129313308D01*
X143466739Y-129093504D01*
X143370568Y-128887266D01*
X143352996Y-128862171D01*
X143240046Y-128700859D01*
X143079140Y-128539953D01*
X142892735Y-128409432D01*
X142686497Y-128313261D01*
X142466689Y-128254364D01*
X142240000Y-128234531D01*
X142013310Y-128254364D01*
X141793502Y-128313261D01*
X141587264Y-128409432D01*
X141400859Y-128539953D01*
X141239953Y-128700859D01*
X141109432Y-128887264D01*
X141013261Y-129093502D01*
X140954364Y-129313310D01*
X140934531Y-129539999D01*
X139100500Y-129539999D01*
X139100500Y-118364500D01*
X139117113Y-118302500D01*
X139162500Y-118257113D01*
X139224500Y-118240500D01*
X140647834Y-118240499D01*
X140647872Y-118240499D01*
X140707483Y-118234091D01*
X140842331Y-118183796D01*
X140957546Y-118097546D01*
X141043796Y-117982331D01*
X141094091Y-117847483D01*
X141100500Y-117787873D01*
X141100499Y-116375450D01*
X141109938Y-116327998D01*
X141136815Y-116287773D01*
X141308786Y-116115802D01*
X141324887Y-116102904D01*
X141326874Y-116100787D01*
X141326877Y-116100786D01*
X141372932Y-116051741D01*
X141375613Y-116048976D01*
X141395120Y-116029470D01*
X141397581Y-116026295D01*
X141405152Y-116017431D01*
X141435062Y-115985582D01*
X141444713Y-115968026D01*
X141455393Y-115951767D01*
X141467674Y-115935936D01*
X141485018Y-115895851D01*
X141490160Y-115885356D01*
X141511197Y-115847092D01*
X141516178Y-115827688D01*
X141522480Y-115809283D01*
X141530438Y-115790895D01*
X141537270Y-115747748D01*
X141539639Y-115736316D01*
X141550500Y-115694020D01*
X141550500Y-115673984D01*
X141552027Y-115654585D01*
X141553689Y-115644091D01*
X141555160Y-115634804D01*
X141551050Y-115591325D01*
X141550500Y-115579656D01*
X141550500Y-113067744D01*
X141552764Y-113047236D01*
X141552222Y-113029997D01*
X141550561Y-112977113D01*
X141550500Y-112973219D01*
X141550500Y-112945654D01*
X141550500Y-112945650D01*
X141549997Y-112941670D01*
X141549081Y-112930028D01*
X141548996Y-112927312D01*
X141547710Y-112886373D01*
X141542118Y-112867126D01*
X141538174Y-112848085D01*
X141535664Y-112828208D01*
X141519579Y-112787583D01*
X141515808Y-112776568D01*
X141503618Y-112734610D01*
X141493414Y-112717355D01*
X141484861Y-112699895D01*
X141480799Y-112689635D01*
X141477486Y-112681268D01*
X141451808Y-112645925D01*
X141445401Y-112636171D01*
X141423501Y-112599140D01*
X141423170Y-112598580D01*
X141409005Y-112584415D01*
X141396367Y-112569617D01*
X141384595Y-112553413D01*
X141350941Y-112525573D01*
X141342299Y-112517709D01*
X140638960Y-111814369D01*
X140614720Y-111780071D01*
X140603321Y-111739655D01*
X140585674Y-111571744D01*
X140545970Y-111449547D01*
X140527179Y-111391715D01*
X140432533Y-111227783D01*
X140305870Y-111087110D01*
X140152730Y-110975848D01*
X139979802Y-110898855D01*
X139794648Y-110859500D01*
X139794646Y-110859500D01*
X139605354Y-110859500D01*
X139605352Y-110859500D01*
X139420197Y-110898855D01*
X139247269Y-110975848D01*
X139094129Y-111087110D01*
X138967466Y-111227783D01*
X138872820Y-111391715D01*
X138814326Y-111571742D01*
X138802845Y-111680978D01*
X138794540Y-111760000D01*
X138799378Y-111806030D01*
X138814326Y-111948257D01*
X138872820Y-112128284D01*
X138967466Y-112292216D01*
X139094129Y-112432889D01*
X139247269Y-112544151D01*
X139420197Y-112621144D01*
X139586181Y-112656425D01*
X139646077Y-112688075D01*
X139680402Y-112746480D01*
X139678908Y-112814208D01*
X139642043Y-112871044D01*
X139580810Y-112900024D01*
X139355017Y-112937702D01*
X139329421Y-112946489D01*
X139261210Y-112950016D01*
X139201479Y-112916888D01*
X137821819Y-111537228D01*
X137794939Y-111497000D01*
X137785500Y-111449547D01*
X137785500Y-110434188D01*
X137799511Y-110376931D01*
X137838377Y-110332613D01*
X137886344Y-110299026D01*
X140244526Y-110299026D01*
X140317515Y-110350133D01*
X140523673Y-110446266D01*
X140743397Y-110505141D01*
X140970000Y-110524966D01*
X141196602Y-110505141D01*
X141416326Y-110446266D01*
X141622480Y-110350134D01*
X141695472Y-110299025D01*
X140970001Y-109573553D01*
X140970000Y-109573553D01*
X140244526Y-110299025D01*
X140244526Y-110299026D01*
X137886344Y-110299026D01*
X137999140Y-110220046D01*
X138160046Y-110059140D01*
X138198549Y-110004151D01*
X138290568Y-109872734D01*
X138386739Y-109666496D01*
X138445635Y-109446692D01*
X138465468Y-109220000D01*
X139665033Y-109220000D01*
X139684858Y-109446602D01*
X139743733Y-109666326D01*
X139839866Y-109872484D01*
X139890972Y-109945471D01*
X139890974Y-109945472D01*
X140616446Y-109220001D01*
X141323553Y-109220001D01*
X142049025Y-109945472D01*
X142100134Y-109872480D01*
X142196266Y-109666326D01*
X142255141Y-109446602D01*
X142274966Y-109219999D01*
X142255141Y-108993397D01*
X142196266Y-108773673D01*
X142100133Y-108567515D01*
X142049025Y-108494526D01*
X141323553Y-109220000D01*
X141323553Y-109220001D01*
X140616446Y-109220001D01*
X140616446Y-109220000D01*
X139890973Y-108494526D01*
X139890973Y-108494527D01*
X139839865Y-108567516D01*
X139743733Y-108773672D01*
X139684858Y-108993397D01*
X139665033Y-109220000D01*
X138465468Y-109220000D01*
X138445635Y-108993308D01*
X138386739Y-108773504D01*
X138290568Y-108567266D01*
X138289507Y-108565751D01*
X138160046Y-108380859D01*
X137999140Y-108219953D01*
X137886344Y-108140973D01*
X140244526Y-108140973D01*
X140970000Y-108866446D01*
X140970001Y-108866446D01*
X141695472Y-108140974D01*
X141695471Y-108140972D01*
X141622484Y-108089866D01*
X141416326Y-107993733D01*
X141196602Y-107934858D01*
X140970000Y-107915033D01*
X140743397Y-107934858D01*
X140523672Y-107993733D01*
X140317516Y-108089865D01*
X140244527Y-108140973D01*
X140244526Y-108140973D01*
X137886344Y-108140973D01*
X137812735Y-108089432D01*
X137606497Y-107993261D01*
X137386689Y-107934364D01*
X137160000Y-107914531D01*
X136933310Y-107934364D01*
X136713502Y-107993261D01*
X136507264Y-108089432D01*
X136320859Y-108219953D01*
X136159953Y-108380859D01*
X136029429Y-108567268D01*
X136022104Y-108582978D01*
X135976347Y-108635152D01*
X135909722Y-108654570D01*
X135843098Y-108635150D01*
X135797342Y-108582975D01*
X135790133Y-108567515D01*
X135739025Y-108494526D01*
X135013553Y-109220000D01*
X135013553Y-109220001D01*
X135739025Y-109945472D01*
X135790131Y-109872484D01*
X135797340Y-109857026D01*
X135843097Y-109804849D01*
X135909722Y-109785428D01*
X135976348Y-109804847D01*
X136022106Y-109857023D01*
X136029432Y-109872735D01*
X136159953Y-110059140D01*
X136320859Y-110220046D01*
X136481623Y-110332613D01*
X136520489Y-110376931D01*
X136534500Y-110434188D01*
X136534500Y-111677256D01*
X136532235Y-111697762D01*
X136534439Y-111767873D01*
X136534500Y-111771768D01*
X136534500Y-111799349D01*
X136535003Y-111803334D01*
X136535918Y-111814967D01*
X136537290Y-111858626D01*
X136542879Y-111877860D01*
X136546825Y-111896916D01*
X136549335Y-111916792D01*
X136565414Y-111957404D01*
X136569197Y-111968451D01*
X136581382Y-112010391D01*
X136591580Y-112027635D01*
X136600136Y-112045100D01*
X136607514Y-112063732D01*
X136607515Y-112063733D01*
X136633180Y-112099059D01*
X136639593Y-112108822D01*
X136661826Y-112146416D01*
X136661829Y-112146419D01*
X136661830Y-112146420D01*
X136675995Y-112160585D01*
X136688627Y-112175375D01*
X136700406Y-112191587D01*
X136734058Y-112219426D01*
X136742699Y-112227289D01*
X138318651Y-113803241D01*
X138350521Y-113858004D01*
X138351176Y-113921362D01*
X138313865Y-114068699D01*
X138294699Y-114300000D01*
X138313865Y-114531301D01*
X138351175Y-114678636D01*
X138350520Y-114741994D01*
X138318650Y-114796757D01*
X138091208Y-115024199D01*
X138075110Y-115037096D01*
X138027096Y-115088225D01*
X138024391Y-115091017D01*
X138004874Y-115110534D01*
X138002415Y-115113705D01*
X137994842Y-115122572D01*
X137964935Y-115154420D01*
X137955285Y-115171974D01*
X137944609Y-115188228D01*
X137932326Y-115204063D01*
X137914975Y-115244158D01*
X137909838Y-115254644D01*
X137888802Y-115292907D01*
X137883821Y-115312309D01*
X137877520Y-115330711D01*
X137869561Y-115349102D01*
X137862728Y-115392242D01*
X137860360Y-115403674D01*
X137849500Y-115445978D01*
X137849500Y-115466016D01*
X137847973Y-115485415D01*
X137845129Y-115503373D01*
X137844840Y-115505196D01*
X137848390Y-115542751D01*
X137848950Y-115548675D01*
X137849500Y-115560344D01*
X137849500Y-128195856D01*
X137836712Y-128250700D01*
X137800986Y-128294232D01*
X137749691Y-128317473D01*
X137693406Y-128315631D01*
X137466602Y-128254858D01*
X137240000Y-128235033D01*
X137013397Y-128254858D01*
X136793672Y-128313733D01*
X136587516Y-128409865D01*
X136514526Y-128460973D01*
X137505871Y-129452318D01*
X137537965Y-129507905D01*
X137537965Y-129572093D01*
X137505871Y-129627680D01*
X136514526Y-130619025D01*
X136514526Y-130619026D01*
X136587515Y-130670133D01*
X136793673Y-130766266D01*
X137013397Y-130825141D01*
X137240000Y-130844966D01*
X137466602Y-130825141D01*
X137693406Y-130764369D01*
X137749691Y-130762527D01*
X137800986Y-130785768D01*
X137836712Y-130829300D01*
X137849500Y-130884144D01*
X137849500Y-133764508D01*
X137831227Y-133829298D01*
X137781795Y-133874993D01*
X137715771Y-133888126D01*
X137652615Y-133864826D01*
X137612730Y-133835848D01*
X137439802Y-133758855D01*
X137254648Y-133719500D01*
X137254646Y-133719500D01*
X137065354Y-133719500D01*
X137065352Y-133719500D01*
X136880197Y-133758855D01*
X136707269Y-133835848D01*
X136554129Y-133947110D01*
X136427466Y-134087783D01*
X136332820Y-134251715D01*
X136274326Y-134431742D01*
X136258970Y-134577853D01*
X136254540Y-134620000D01*
X136262256Y-134693412D01*
X136274326Y-134808257D01*
X136332820Y-134988284D01*
X136427464Y-135152213D01*
X136427467Y-135152216D01*
X136502652Y-135235717D01*
X136526264Y-135274249D01*
X136534500Y-135318687D01*
X136534500Y-139001313D01*
X136526264Y-139045751D01*
X136502652Y-139084282D01*
X136469545Y-139121051D01*
X136427464Y-139167786D01*
X136332820Y-139331715D01*
X136274326Y-139511742D01*
X136267820Y-139573647D01*
X136246073Y-139631809D01*
X136198857Y-139672136D01*
X136138009Y-139684515D01*
X136078789Y-139665843D01*
X136036046Y-139620801D01*
X136020499Y-139560685D01*
X136020499Y-138752130D01*
X136014890Y-138699953D01*
X136014091Y-138692517D01*
X135963796Y-138557669D01*
X135877546Y-138442454D01*
X135762331Y-138356204D01*
X135687849Y-138328424D01*
X135682093Y-138326277D01*
X135632558Y-138292261D01*
X135604831Y-138238951D01*
X135605424Y-138178864D01*
X135634196Y-138126114D01*
X135728979Y-138023153D01*
X135855924Y-137828849D01*
X135949157Y-137616300D01*
X136006134Y-137391305D01*
X136025300Y-137160000D01*
X136006134Y-136928695D01*
X135949157Y-136703700D01*
X135855924Y-136491151D01*
X135728979Y-136296847D01*
X135571784Y-136126087D01*
X135388626Y-135983530D01*
X135312093Y-135942112D01*
X135266456Y-135899564D01*
X135247317Y-135840174D01*
X135259526Y-135778982D01*
X135299990Y-135731484D01*
X135410602Y-135654032D01*
X135459139Y-135620047D01*
X135620047Y-135459139D01*
X135750568Y-135272734D01*
X135846739Y-135066496D01*
X135905635Y-134846692D01*
X135925468Y-134620000D01*
X135905635Y-134393308D01*
X135846739Y-134173504D01*
X135750568Y-133967266D01*
X135736456Y-133947112D01*
X135620046Y-133780859D01*
X135459140Y-133619953D01*
X135272735Y-133489432D01*
X135066497Y-133393261D01*
X134846689Y-133334364D01*
X134620000Y-133314531D01*
X134393310Y-133334364D01*
X134173502Y-133393261D01*
X133967264Y-133489432D01*
X133780859Y-133619953D01*
X133619953Y-133780859D01*
X133489432Y-133967264D01*
X133393261Y-134173502D01*
X133334364Y-134393310D01*
X133314531Y-134619999D01*
X133334364Y-134846689D01*
X133393261Y-135066497D01*
X133489432Y-135272735D01*
X133619953Y-135459140D01*
X133780859Y-135620046D01*
X133835771Y-135658495D01*
X133913304Y-135712784D01*
X133940010Y-135731483D01*
X133980474Y-135778981D01*
X133992683Y-135840172D01*
X133973545Y-135899562D01*
X133927906Y-135942112D01*
X133851375Y-135983529D01*
X133668215Y-136126087D01*
X133511020Y-136296848D01*
X133384076Y-136491150D01*
X133290841Y-136703702D01*
X133258144Y-136832819D01*
X133229859Y-136885604D01*
X133180135Y-136918978D01*
X133120569Y-136925155D01*
X133065054Y-136902696D01*
X133045030Y-136888148D01*
X132872102Y-136811155D01*
X132686948Y-136771800D01*
X132686946Y-136771800D01*
X132497654Y-136771800D01*
X132497652Y-136771800D01*
X132312497Y-136811155D01*
X132139569Y-136888148D01*
X131986429Y-136999410D01*
X131859766Y-137140083D01*
X131765120Y-137304015D01*
X131706626Y-137484042D01*
X131688979Y-137651950D01*
X131677579Y-137692371D01*
X131653339Y-137726669D01*
X131466828Y-137913181D01*
X131426600Y-137940061D01*
X131379147Y-137949500D01*
X131201434Y-137949500D01*
X131141791Y-137934214D01*
X131096853Y-137892125D01*
X131077699Y-137833610D01*
X131089052Y-137773095D01*
X131110701Y-137726669D01*
X131166739Y-137606496D01*
X131225635Y-137386692D01*
X131245468Y-137160000D01*
X131225635Y-136933308D01*
X131166739Y-136713504D01*
X131070568Y-136507266D01*
X131059284Y-136491151D01*
X130940046Y-136320859D01*
X130779140Y-136159953D01*
X130592733Y-136029431D01*
X130534725Y-136002382D01*
X130482549Y-135956625D01*
X130463129Y-135890000D01*
X130482549Y-135823375D01*
X130534725Y-135777618D01*
X130592734Y-135750568D01*
X130779139Y-135620047D01*
X130940047Y-135459139D01*
X131070568Y-135272734D01*
X131166739Y-135066496D01*
X131225635Y-134846692D01*
X131245468Y-134620000D01*
X131225635Y-134393308D01*
X131166739Y-134173504D01*
X131070568Y-133967266D01*
X131056456Y-133947112D01*
X130940046Y-133780859D01*
X130779140Y-133619953D01*
X130592736Y-133489433D01*
X130534723Y-133462381D01*
X130534132Y-133462105D01*
X130481958Y-133416348D01*
X130462539Y-133349723D01*
X130481959Y-133283098D01*
X130534135Y-133237342D01*
X130592479Y-133210135D01*
X130778819Y-133079658D01*
X130939658Y-132918819D01*
X131070134Y-132732480D01*
X131166266Y-132526326D01*
X131218872Y-132330000D01*
X127861128Y-132330000D01*
X127913733Y-132526326D01*
X128009865Y-132732480D01*
X128140341Y-132918819D01*
X128301180Y-133079658D01*
X128487519Y-133210134D01*
X128545865Y-133237342D01*
X128598040Y-133283099D01*
X128617460Y-133349723D01*
X128598041Y-133416348D01*
X128545866Y-133462105D01*
X128487267Y-133489430D01*
X128300859Y-133619953D01*
X128139953Y-133780859D01*
X128009432Y-133967264D01*
X127913261Y-134173502D01*
X127854364Y-134393310D01*
X127834531Y-134619999D01*
X127854364Y-134846689D01*
X127913261Y-135066497D01*
X128009432Y-135272735D01*
X128139953Y-135459140D01*
X128300859Y-135620046D01*
X128460011Y-135731484D01*
X128487266Y-135750568D01*
X128545275Y-135777618D01*
X128597450Y-135823375D01*
X128616869Y-135890000D01*
X128597450Y-135956625D01*
X128545275Y-136002382D01*
X128487263Y-136029433D01*
X128300859Y-136159953D01*
X128139953Y-136320859D01*
X128009432Y-136507264D01*
X127913261Y-136713502D01*
X127854364Y-136933310D01*
X127834531Y-137159999D01*
X127854364Y-137386689D01*
X127913261Y-137606497D01*
X127990948Y-137773095D01*
X128002301Y-137833610D01*
X127983147Y-137892125D01*
X127938209Y-137934214D01*
X127878566Y-137949500D01*
X125667740Y-137949500D01*
X125647236Y-137947236D01*
X125577144Y-137949439D01*
X125573250Y-137949500D01*
X125545648Y-137949500D01*
X125541653Y-137950004D01*
X125530029Y-137950918D01*
X125486368Y-137952290D01*
X125467128Y-137957880D01*
X125448081Y-137961825D01*
X125428209Y-137964335D01*
X125387599Y-137980413D01*
X125376554Y-137984194D01*
X125334611Y-137996380D01*
X125317369Y-138006578D01*
X125299897Y-138015138D01*
X125281266Y-138022514D01*
X125245938Y-138048181D01*
X125236180Y-138054591D01*
X125198579Y-138076829D01*
X125184410Y-138090998D01*
X125169622Y-138103628D01*
X125153413Y-138115405D01*
X125125572Y-138149058D01*
X125117711Y-138157696D01*
X124512228Y-138763181D01*
X124472000Y-138790061D01*
X124424547Y-138799500D01*
X124365352Y-138799500D01*
X124180197Y-138838855D01*
X124007269Y-138915848D01*
X123854129Y-139027110D01*
X123727467Y-139167783D01*
X123724474Y-139172967D01*
X123676728Y-139219678D01*
X123611678Y-139234844D01*
X123548197Y-139214064D01*
X123504707Y-139163367D01*
X123500160Y-139153617D01*
X123450568Y-139047266D01*
X123449507Y-139045751D01*
X123320046Y-138860859D01*
X123159140Y-138699953D01*
X122972733Y-138569431D01*
X122914725Y-138542382D01*
X122862549Y-138496625D01*
X122843129Y-138430000D01*
X122862549Y-138363375D01*
X122914725Y-138317618D01*
X122972734Y-138290568D01*
X123159139Y-138160047D01*
X123320047Y-137999139D01*
X123450568Y-137812734D01*
X123546739Y-137606496D01*
X123605635Y-137386692D01*
X123625468Y-137160000D01*
X123605635Y-136933308D01*
X123546739Y-136713504D01*
X123450568Y-136507266D01*
X123439284Y-136491151D01*
X123320046Y-136320859D01*
X123159140Y-136159953D01*
X122972733Y-136029431D01*
X122914725Y-136002382D01*
X122862549Y-135956625D01*
X122843129Y-135890000D01*
X122862549Y-135823375D01*
X122914725Y-135777618D01*
X122972734Y-135750568D01*
X123159139Y-135620047D01*
X123320047Y-135459139D01*
X123450568Y-135272734D01*
X123546739Y-135066496D01*
X123605635Y-134846692D01*
X123625468Y-134620000D01*
X123605635Y-134393308D01*
X123546739Y-134173504D01*
X123450568Y-133967266D01*
X123436456Y-133947112D01*
X123320046Y-133780859D01*
X123159140Y-133619953D01*
X122972736Y-133489433D01*
X122914723Y-133462381D01*
X122862548Y-133416623D01*
X122843129Y-133349997D01*
X122862549Y-133283372D01*
X122914721Y-133237619D01*
X122972734Y-133210568D01*
X123159139Y-133080047D01*
X123320047Y-132919139D01*
X123450568Y-132732734D01*
X123546739Y-132526496D01*
X123605635Y-132306692D01*
X123625468Y-132080000D01*
X123605635Y-131853308D01*
X123546739Y-131633504D01*
X123450568Y-131427266D01*
X123432996Y-131402171D01*
X123320046Y-131240859D01*
X123159140Y-131079953D01*
X122972733Y-130949431D01*
X122914725Y-130922382D01*
X122862549Y-130876625D01*
X122843129Y-130810000D01*
X122862549Y-130743375D01*
X122914725Y-130697618D01*
X122972734Y-130670568D01*
X123159139Y-130540047D01*
X123320047Y-130379139D01*
X123450568Y-130192734D01*
X123546739Y-129986496D01*
X123605635Y-129766692D01*
X123625468Y-129540000D01*
X123625468Y-129539999D01*
X127834531Y-129539999D01*
X127854364Y-129766689D01*
X127913261Y-129986497D01*
X128009432Y-130192735D01*
X128139953Y-130379140D01*
X128300859Y-130540046D01*
X128487264Y-130670567D01*
X128487265Y-130670567D01*
X128487266Y-130670568D01*
X128545865Y-130697893D01*
X128598040Y-130743650D01*
X128617460Y-130810274D01*
X128598041Y-130876899D01*
X128545866Y-130922656D01*
X128487522Y-130949863D01*
X128301180Y-131080341D01*
X128140341Y-131241180D01*
X128009865Y-131427519D01*
X127913733Y-131633673D01*
X127861128Y-131829999D01*
X127861128Y-131830000D01*
X131218872Y-131830000D01*
X131218871Y-131829999D01*
X131166266Y-131633673D01*
X131070134Y-131427519D01*
X130939658Y-131241180D01*
X130778819Y-131080341D01*
X130592482Y-130949866D01*
X130534133Y-130922657D01*
X130481958Y-130876899D01*
X130462539Y-130810274D01*
X130481959Y-130743649D01*
X130534134Y-130697893D01*
X130592734Y-130670568D01*
X130779139Y-130540047D01*
X130940047Y-130379139D01*
X131070568Y-130192734D01*
X131166739Y-129986496D01*
X131225635Y-129766692D01*
X131245468Y-129540000D01*
X131245468Y-129539999D01*
X135935033Y-129539999D01*
X135954858Y-129766602D01*
X136013733Y-129986326D01*
X136109866Y-130192484D01*
X136160972Y-130265471D01*
X136160974Y-130265472D01*
X136886446Y-129540001D01*
X136886446Y-129540000D01*
X136160973Y-128814526D01*
X136160973Y-128814527D01*
X136109865Y-128887516D01*
X136013733Y-129093672D01*
X135954858Y-129313397D01*
X135935033Y-129539999D01*
X131245468Y-129539999D01*
X131225635Y-129313308D01*
X131166739Y-129093504D01*
X131070568Y-128887266D01*
X131052996Y-128862171D01*
X130940046Y-128700859D01*
X130779140Y-128539953D01*
X130592733Y-128409431D01*
X130534725Y-128382382D01*
X130482549Y-128336625D01*
X130463129Y-128270000D01*
X130482549Y-128203375D01*
X130534725Y-128157618D01*
X130592734Y-128130568D01*
X130779139Y-128000047D01*
X130940047Y-127839139D01*
X131070568Y-127652734D01*
X131166739Y-127446496D01*
X131225635Y-127226692D01*
X131245468Y-127000000D01*
X131245468Y-126999999D01*
X133314531Y-126999999D01*
X133334364Y-127226689D01*
X133393261Y-127446497D01*
X133489432Y-127652735D01*
X133619953Y-127839140D01*
X133780859Y-128000046D01*
X133967264Y-128130567D01*
X133967265Y-128130567D01*
X133967266Y-128130568D01*
X134173504Y-128226739D01*
X134393308Y-128285635D01*
X134620000Y-128305468D01*
X134846692Y-128285635D01*
X135066496Y-128226739D01*
X135272734Y-128130568D01*
X135459139Y-128000047D01*
X135620047Y-127839139D01*
X135750568Y-127652734D01*
X135846739Y-127446496D01*
X135905635Y-127226692D01*
X135925468Y-127000000D01*
X135905635Y-126773308D01*
X135846739Y-126553504D01*
X135750568Y-126347266D01*
X135732996Y-126322171D01*
X135620046Y-126160859D01*
X135459140Y-125999953D01*
X135272735Y-125869432D01*
X135066497Y-125773261D01*
X134846689Y-125714364D01*
X134620000Y-125694531D01*
X134393310Y-125714364D01*
X134173502Y-125773261D01*
X133967264Y-125869432D01*
X133780859Y-125999953D01*
X133619953Y-126160859D01*
X133489432Y-126347264D01*
X133393261Y-126553502D01*
X133334364Y-126773310D01*
X133314531Y-126999999D01*
X131245468Y-126999999D01*
X131225635Y-126773308D01*
X131166739Y-126553504D01*
X131070568Y-126347266D01*
X131052996Y-126322171D01*
X130940046Y-126160859D01*
X130779140Y-125999953D01*
X130592733Y-125869431D01*
X130534725Y-125842382D01*
X130482549Y-125796625D01*
X130463129Y-125730000D01*
X130482549Y-125663375D01*
X130534725Y-125617618D01*
X130592734Y-125590568D01*
X130779139Y-125460047D01*
X130940047Y-125299139D01*
X131070568Y-125112734D01*
X131166739Y-124906496D01*
X131225635Y-124686692D01*
X131245468Y-124460000D01*
X131225635Y-124233308D01*
X131166739Y-124013504D01*
X131070568Y-123807266D01*
X131061126Y-123793782D01*
X130940046Y-123620859D01*
X130779140Y-123459953D01*
X130592732Y-123329430D01*
X130534724Y-123302380D01*
X130482549Y-123256623D01*
X130463130Y-123189997D01*
X130482550Y-123123373D01*
X130534721Y-123077619D01*
X130592734Y-123050568D01*
X130779139Y-122920047D01*
X130940047Y-122759139D01*
X131070568Y-122572734D01*
X131166739Y-122366496D01*
X131225635Y-122146692D01*
X131245468Y-121920000D01*
X131225635Y-121693308D01*
X131166739Y-121473504D01*
X131070568Y-121267266D01*
X131052996Y-121242171D01*
X130940046Y-121080859D01*
X130779140Y-120919953D01*
X130592733Y-120789431D01*
X130534725Y-120762382D01*
X130482549Y-120716625D01*
X130463129Y-120650000D01*
X130482549Y-120583375D01*
X130534725Y-120537618D01*
X130592734Y-120510568D01*
X130779139Y-120380047D01*
X130940047Y-120219139D01*
X131070568Y-120032734D01*
X131166739Y-119826496D01*
X131225635Y-119606692D01*
X131245468Y-119380000D01*
X131225635Y-119153308D01*
X131166739Y-118933504D01*
X131070568Y-118727266D01*
X131052996Y-118702171D01*
X130940046Y-118540859D01*
X130779140Y-118379953D01*
X130592733Y-118249431D01*
X130534725Y-118222382D01*
X130482549Y-118176625D01*
X130463129Y-118110000D01*
X130482549Y-118043375D01*
X130534725Y-117997618D01*
X130567508Y-117982331D01*
X130592734Y-117970568D01*
X130779139Y-117840047D01*
X130940047Y-117679139D01*
X131070568Y-117492734D01*
X131166739Y-117286496D01*
X131225635Y-117066692D01*
X131245468Y-116840000D01*
X131225635Y-116613308D01*
X131166739Y-116393504D01*
X131070568Y-116187266D01*
X131052996Y-116162171D01*
X130940046Y-116000859D01*
X130779140Y-115839953D01*
X130592732Y-115709430D01*
X130534724Y-115682380D01*
X130482549Y-115636623D01*
X130463130Y-115569997D01*
X130482550Y-115503373D01*
X130534721Y-115457619D01*
X130592734Y-115430568D01*
X130779139Y-115300047D01*
X130940047Y-115139139D01*
X131070568Y-114952734D01*
X131166739Y-114746496D01*
X131225635Y-114526692D01*
X131245468Y-114300000D01*
X131225635Y-114073308D01*
X131166739Y-113853504D01*
X131070568Y-113647266D01*
X130940047Y-113460861D01*
X130940046Y-113460859D01*
X130779140Y-113299953D01*
X130592736Y-113169433D01*
X130560697Y-113154493D01*
X130534132Y-113142105D01*
X130481958Y-113096348D01*
X130462539Y-113029723D01*
X130481959Y-112963098D01*
X130534135Y-112917342D01*
X130592479Y-112890135D01*
X130778819Y-112759658D01*
X130939658Y-112598819D01*
X131070134Y-112412480D01*
X131166266Y-112206326D01*
X131218872Y-112010000D01*
X127861128Y-112010000D01*
X127913733Y-112206326D01*
X128009865Y-112412480D01*
X128140341Y-112598819D01*
X128301180Y-112759658D01*
X128487519Y-112890134D01*
X128545865Y-112917342D01*
X128598040Y-112963099D01*
X128617460Y-113029723D01*
X128598041Y-113096348D01*
X128545866Y-113142105D01*
X128487267Y-113169430D01*
X128300859Y-113299953D01*
X128139953Y-113460859D01*
X128009432Y-113647264D01*
X127913261Y-113853502D01*
X127854364Y-114073310D01*
X127834531Y-114299999D01*
X127854364Y-114526689D01*
X127913261Y-114746497D01*
X128009432Y-114952735D01*
X128139953Y-115139140D01*
X128300859Y-115300046D01*
X128318373Y-115312309D01*
X128487266Y-115430568D01*
X128545275Y-115457618D01*
X128597450Y-115503375D01*
X128616869Y-115570000D01*
X128597450Y-115636625D01*
X128545275Y-115682382D01*
X128487263Y-115709433D01*
X128300859Y-115839953D01*
X128139953Y-116000859D01*
X128009432Y-116187264D01*
X127913261Y-116393502D01*
X127854364Y-116613310D01*
X127834531Y-116839999D01*
X127854364Y-117066689D01*
X127913261Y-117286497D01*
X128009432Y-117492735D01*
X128139953Y-117679140D01*
X128300859Y-117840046D01*
X128487263Y-117970566D01*
X128487266Y-117970568D01*
X128545275Y-117997618D01*
X128597450Y-118043375D01*
X128616869Y-118110000D01*
X128597450Y-118176625D01*
X128545275Y-118222382D01*
X128487263Y-118249433D01*
X128300859Y-118379953D01*
X128139953Y-118540859D01*
X128009432Y-118727264D01*
X127913261Y-118933502D01*
X127854364Y-119153310D01*
X127834531Y-119379999D01*
X127854364Y-119606689D01*
X127913261Y-119826497D01*
X128009432Y-120032735D01*
X128139953Y-120219140D01*
X128300859Y-120380046D01*
X128355765Y-120418491D01*
X128487266Y-120510568D01*
X128545273Y-120537617D01*
X128597449Y-120583373D01*
X128616869Y-120649997D01*
X128597451Y-120716622D01*
X128545276Y-120762380D01*
X128487266Y-120789431D01*
X128300859Y-120919953D01*
X128139953Y-121080859D01*
X128009432Y-121267264D01*
X127913261Y-121473502D01*
X127854364Y-121693310D01*
X127834531Y-121919999D01*
X127854364Y-122146689D01*
X127913261Y-122366497D01*
X128009432Y-122572735D01*
X128139953Y-122759140D01*
X128300859Y-122920046D01*
X128421172Y-123004289D01*
X128487266Y-123050568D01*
X128545273Y-123077617D01*
X128597449Y-123123373D01*
X128616869Y-123189997D01*
X128597451Y-123256622D01*
X128545276Y-123302380D01*
X128487266Y-123329431D01*
X128300859Y-123459953D01*
X128139953Y-123620859D01*
X128009432Y-123807264D01*
X127913261Y-124013502D01*
X127854364Y-124233310D01*
X127834531Y-124459999D01*
X127854364Y-124686689D01*
X127913261Y-124906497D01*
X128009432Y-125112735D01*
X128139953Y-125299140D01*
X128300859Y-125460046D01*
X128461623Y-125572613D01*
X128487266Y-125590568D01*
X128545275Y-125617618D01*
X128597450Y-125663375D01*
X128616869Y-125730000D01*
X128597450Y-125796625D01*
X128545275Y-125842382D01*
X128487263Y-125869433D01*
X128300859Y-125999953D01*
X128139953Y-126160859D01*
X128009432Y-126347264D01*
X127913261Y-126553502D01*
X127854364Y-126773310D01*
X127834531Y-126999999D01*
X127854364Y-127226689D01*
X127913261Y-127446497D01*
X128009432Y-127652735D01*
X128139953Y-127839140D01*
X128300859Y-128000046D01*
X128355765Y-128038491D01*
X128487266Y-128130568D01*
X128545273Y-128157617D01*
X128597449Y-128203373D01*
X128616869Y-128269997D01*
X128597451Y-128336622D01*
X128545276Y-128382380D01*
X128487266Y-128409431D01*
X128300859Y-128539953D01*
X128139953Y-128700859D01*
X128009432Y-128887264D01*
X127913261Y-129093502D01*
X127854364Y-129313310D01*
X127834531Y-129539999D01*
X123625468Y-129539999D01*
X123605635Y-129313308D01*
X123546739Y-129093504D01*
X123450568Y-128887266D01*
X123432996Y-128862171D01*
X123320046Y-128700859D01*
X123159140Y-128539953D01*
X122972736Y-128409433D01*
X122914721Y-128382380D01*
X122914132Y-128382105D01*
X122861958Y-128336348D01*
X122842539Y-128269723D01*
X122861959Y-128203098D01*
X122914135Y-128157342D01*
X122972479Y-128130135D01*
X123158819Y-127999658D01*
X123319658Y-127838819D01*
X123450134Y-127652480D01*
X123546266Y-127446326D01*
X123598872Y-127250000D01*
X120241128Y-127250000D01*
X120293733Y-127446326D01*
X120389865Y-127652480D01*
X120520341Y-127838819D01*
X120681180Y-127999658D01*
X120867519Y-128130134D01*
X120925865Y-128157342D01*
X120978040Y-128203099D01*
X120997460Y-128269723D01*
X120978041Y-128336348D01*
X120925866Y-128382105D01*
X120867267Y-128409430D01*
X120680859Y-128539953D01*
X120519953Y-128700859D01*
X120389432Y-128887264D01*
X120293261Y-129093502D01*
X120234364Y-129313310D01*
X120214531Y-129540000D01*
X120234364Y-129766689D01*
X120293261Y-129986497D01*
X120389432Y-130192735D01*
X120519953Y-130379140D01*
X120680859Y-130540046D01*
X120841623Y-130652613D01*
X120867266Y-130670568D01*
X120925275Y-130697618D01*
X120977450Y-130743375D01*
X120996869Y-130810000D01*
X120977450Y-130876625D01*
X120925275Y-130922382D01*
X120867263Y-130949433D01*
X120680859Y-131079953D01*
X120519953Y-131240859D01*
X120389432Y-131427264D01*
X120293261Y-131633502D01*
X120234364Y-131853310D01*
X120214531Y-132080000D01*
X120234364Y-132306689D01*
X120293261Y-132526497D01*
X120389432Y-132732735D01*
X120519953Y-132919140D01*
X120680859Y-133080046D01*
X120867263Y-133210566D01*
X120867266Y-133210568D01*
X120925275Y-133237618D01*
X120977450Y-133283375D01*
X120996869Y-133350000D01*
X120977450Y-133416625D01*
X120925275Y-133462382D01*
X120867263Y-133489433D01*
X120680859Y-133619953D01*
X120519953Y-133780859D01*
X120389432Y-133967264D01*
X120293261Y-134173502D01*
X120234364Y-134393310D01*
X120214531Y-134620000D01*
X120234364Y-134846689D01*
X120293261Y-135066497D01*
X120389432Y-135272735D01*
X120519953Y-135459140D01*
X120680859Y-135620046D01*
X120840011Y-135731484D01*
X120867266Y-135750568D01*
X120925275Y-135777618D01*
X120977450Y-135823375D01*
X120996869Y-135890000D01*
X120977450Y-135956625D01*
X120925275Y-136002382D01*
X120867263Y-136029433D01*
X120680859Y-136159953D01*
X120519953Y-136320859D01*
X120389432Y-136507264D01*
X120293261Y-136713502D01*
X120234364Y-136933310D01*
X120214531Y-137160000D01*
X120234364Y-137386689D01*
X120293261Y-137606497D01*
X120389432Y-137812735D01*
X120519953Y-137999140D01*
X120680859Y-138160046D01*
X120801172Y-138244289D01*
X120867266Y-138290568D01*
X120925275Y-138317618D01*
X120977450Y-138363375D01*
X120996869Y-138430000D01*
X120977450Y-138496625D01*
X120925275Y-138542382D01*
X120867263Y-138569433D01*
X120680859Y-138699953D01*
X120519953Y-138860859D01*
X120389432Y-139047264D01*
X120293261Y-139253502D01*
X120234364Y-139473310D01*
X120214531Y-139700000D01*
X120234364Y-139926689D01*
X120293262Y-140146499D01*
X120337867Y-140242156D01*
X120349433Y-140290954D01*
X120340724Y-140340342D01*
X120313166Y-140382241D01*
X119754821Y-140940586D01*
X119699234Y-140972680D01*
X119635047Y-140972680D01*
X119566690Y-140954364D01*
X119339999Y-140934531D01*
X119113310Y-140954364D01*
X118893502Y-141013261D01*
X118687264Y-141109432D01*
X118500859Y-141239953D01*
X118339953Y-141400859D01*
X118209429Y-141587268D01*
X118202104Y-141602978D01*
X118156347Y-141655152D01*
X118089722Y-141674570D01*
X118023098Y-141655150D01*
X117977342Y-141602975D01*
X117970133Y-141587515D01*
X117919025Y-141514526D01*
X117193553Y-142240000D01*
X117193553Y-142240001D01*
X116486446Y-142240001D01*
X116486446Y-142240000D01*
X115760973Y-141514526D01*
X115760973Y-141514527D01*
X115709865Y-141587516D01*
X115613733Y-141793672D01*
X115554858Y-142013397D01*
X115535033Y-142240000D01*
X111204588Y-142240000D01*
X114683789Y-138760800D01*
X114699885Y-138747906D01*
X114701873Y-138745787D01*
X114701877Y-138745786D01*
X114747948Y-138696723D01*
X114750566Y-138694023D01*
X114770120Y-138674471D01*
X114772581Y-138671298D01*
X114780156Y-138662427D01*
X114810062Y-138630582D01*
X114819712Y-138613027D01*
X114830400Y-138596757D01*
X114842673Y-138580936D01*
X114860026Y-138540832D01*
X114865157Y-138530362D01*
X114865476Y-138529782D01*
X114886197Y-138492092D01*
X114891175Y-138472699D01*
X114897481Y-138454282D01*
X114899018Y-138450728D01*
X114905438Y-138435896D01*
X114912272Y-138392745D01*
X114914635Y-138381331D01*
X114925500Y-138339019D01*
X114925500Y-138318984D01*
X114927027Y-138299585D01*
X114927040Y-138299501D01*
X114930160Y-138279804D01*
X114926050Y-138236325D01*
X114925500Y-138224656D01*
X114925500Y-137160000D01*
X115534531Y-137160000D01*
X115554364Y-137386689D01*
X115613261Y-137606497D01*
X115709432Y-137812735D01*
X115839953Y-137999140D01*
X116000859Y-138160046D01*
X116161623Y-138272613D01*
X116200489Y-138316931D01*
X116214500Y-138374188D01*
X116214500Y-139725813D01*
X116206264Y-139770251D01*
X116182652Y-139808782D01*
X116155161Y-139839315D01*
X116107464Y-139892286D01*
X116012820Y-140056215D01*
X115954326Y-140236242D01*
X115934540Y-140424500D01*
X115954326Y-140612757D01*
X116012820Y-140792784D01*
X116107466Y-140956715D01*
X116129211Y-140980865D01*
X116159301Y-141043015D01*
X116151485Y-141111623D01*
X116114864Y-141157115D01*
X116114526Y-141160973D01*
X116840000Y-141886446D01*
X116840001Y-141886446D01*
X117565472Y-141160974D01*
X117565134Y-141157116D01*
X117528515Y-141111625D01*
X117520698Y-141043017D01*
X117550786Y-140980867D01*
X117572533Y-140956716D01*
X117667179Y-140792784D01*
X117725674Y-140612756D01*
X117745460Y-140424500D01*
X117725674Y-140236244D01*
X117667179Y-140056216D01*
X117667179Y-140056215D01*
X117572535Y-139892286D01*
X117559427Y-139877729D01*
X117497347Y-139808782D01*
X117473736Y-139770251D01*
X117465500Y-139725813D01*
X117465500Y-138374188D01*
X117479511Y-138316931D01*
X117518377Y-138272613D01*
X117679140Y-138160046D01*
X117840046Y-137999140D01*
X117850511Y-137984194D01*
X117970568Y-137812734D01*
X118066739Y-137606496D01*
X118125635Y-137386692D01*
X118145468Y-137160000D01*
X118125635Y-136933308D01*
X118066739Y-136713504D01*
X117970568Y-136507266D01*
X117959284Y-136491151D01*
X117840046Y-136320859D01*
X117679139Y-136159952D01*
X117572151Y-136085039D01*
X117528851Y-136031249D01*
X117521035Y-135962640D01*
X117551124Y-135900492D01*
X117572533Y-135876716D01*
X117667179Y-135712784D01*
X117725674Y-135532756D01*
X117745460Y-135344500D01*
X117725674Y-135156244D01*
X117667179Y-134976216D01*
X117667179Y-134976215D01*
X117572535Y-134812286D01*
X117559427Y-134797729D01*
X117497347Y-134728782D01*
X117473736Y-134690251D01*
X117465500Y-134645813D01*
X117465500Y-130754188D01*
X117479511Y-130696931D01*
X117518377Y-130652613D01*
X117679140Y-130540046D01*
X117840046Y-130379140D01*
X117919636Y-130265472D01*
X117970568Y-130192734D01*
X118066739Y-129986496D01*
X118125635Y-129766692D01*
X118145468Y-129540000D01*
X118125635Y-129313308D01*
X118066739Y-129093504D01*
X117970568Y-128887266D01*
X117952996Y-128862171D01*
X117840046Y-128700859D01*
X117679140Y-128539953D01*
X117492735Y-128409432D01*
X117286497Y-128313261D01*
X117066689Y-128254364D01*
X116840000Y-128234531D01*
X116613310Y-128254364D01*
X116393502Y-128313261D01*
X116187264Y-128409432D01*
X116000859Y-128539953D01*
X115839953Y-128700859D01*
X115709432Y-128887264D01*
X115613261Y-129093502D01*
X115554364Y-129313310D01*
X115534531Y-129540000D01*
X115554364Y-129766689D01*
X115613261Y-129986497D01*
X115709432Y-130192735D01*
X115839953Y-130379140D01*
X116000859Y-130540046D01*
X116161623Y-130652613D01*
X116200489Y-130696931D01*
X116214500Y-130754188D01*
X116214500Y-134645813D01*
X116206264Y-134690251D01*
X116182652Y-134728782D01*
X116149545Y-134765551D01*
X116107464Y-134812286D01*
X116012820Y-134976215D01*
X115954326Y-135156242D01*
X115934540Y-135344499D01*
X115954326Y-135532757D01*
X116012820Y-135712784D01*
X116107466Y-135876715D01*
X116128874Y-135900491D01*
X116158964Y-135962642D01*
X116151148Y-136031249D01*
X116107849Y-136085039D01*
X116000857Y-136159955D01*
X115839953Y-136320859D01*
X115709432Y-136507264D01*
X115613261Y-136713502D01*
X115554364Y-136933310D01*
X115534531Y-137160000D01*
X114925500Y-137160000D01*
X114925500Y-126010843D01*
X114936890Y-125958929D01*
X114968969Y-125916552D01*
X115015842Y-125891498D01*
X115068899Y-125888370D01*
X115070533Y-125888628D01*
X115080195Y-125890159D01*
X115123673Y-125886049D01*
X115135343Y-125885499D01*
X116982562Y-125885499D01*
X117003068Y-125887763D01*
X117005971Y-125887671D01*
X117005973Y-125887672D01*
X117073178Y-125885560D01*
X117077074Y-125885499D01*
X117104655Y-125885499D01*
X117104656Y-125885499D01*
X117108625Y-125884997D01*
X117120271Y-125884079D01*
X117163933Y-125882708D01*
X117183165Y-125877119D01*
X117202224Y-125873173D01*
X117208502Y-125872380D01*
X117222098Y-125870663D01*
X117262713Y-125854581D01*
X117273750Y-125850802D01*
X117315696Y-125838617D01*
X117332935Y-125828421D01*
X117350408Y-125819861D01*
X117369038Y-125812485D01*
X117404370Y-125786813D01*
X117414136Y-125780399D01*
X117451724Y-125758170D01*
X117451723Y-125758170D01*
X117451726Y-125758169D01*
X117465891Y-125744003D01*
X117480679Y-125731372D01*
X117496893Y-125719593D01*
X117524744Y-125685925D01*
X117532585Y-125677308D01*
X119763786Y-123446107D01*
X119779887Y-123433209D01*
X119781874Y-123431092D01*
X119781877Y-123431091D01*
X119827932Y-123382046D01*
X119830613Y-123379281D01*
X119850120Y-123359775D01*
X119852581Y-123356600D01*
X119860152Y-123347736D01*
X119890062Y-123315887D01*
X119899713Y-123298331D01*
X119910393Y-123282072D01*
X119922674Y-123266241D01*
X119940018Y-123226156D01*
X119945160Y-123215661D01*
X119958531Y-123191340D01*
X119966197Y-123177397D01*
X119971178Y-123157993D01*
X119977480Y-123139588D01*
X119985438Y-123121200D01*
X119992270Y-123078053D01*
X119994639Y-123066621D01*
X120005500Y-123024325D01*
X120005500Y-123004289D01*
X120007027Y-122984890D01*
X120010160Y-122965109D01*
X120006050Y-122921630D01*
X120005500Y-122909961D01*
X120005500Y-122234431D01*
X120019511Y-122177174D01*
X120058377Y-122132856D01*
X120113315Y-122111492D01*
X120171911Y-122117909D01*
X120220922Y-122150658D01*
X120249275Y-122202338D01*
X120293261Y-122366496D01*
X120389432Y-122572735D01*
X120519953Y-122759140D01*
X120680859Y-122920046D01*
X120801172Y-123004289D01*
X120867266Y-123050568D01*
X120925273Y-123077617D01*
X120977449Y-123123373D01*
X120996869Y-123189997D01*
X120977451Y-123256622D01*
X120925276Y-123302380D01*
X120867266Y-123329431D01*
X120680859Y-123459953D01*
X120519953Y-123620859D01*
X120389432Y-123807264D01*
X120293261Y-124013502D01*
X120234364Y-124233310D01*
X120214531Y-124459999D01*
X120234364Y-124686689D01*
X120293261Y-124906497D01*
X120389432Y-125112735D01*
X120519953Y-125299140D01*
X120680859Y-125460046D01*
X120867264Y-125590567D01*
X120867265Y-125590567D01*
X120867266Y-125590568D01*
X120925865Y-125617893D01*
X120978040Y-125663650D01*
X120997460Y-125730274D01*
X120978041Y-125796899D01*
X120925866Y-125842656D01*
X120867522Y-125869863D01*
X120681180Y-126000341D01*
X120520341Y-126161180D01*
X120389865Y-126347519D01*
X120293733Y-126553673D01*
X120241128Y-126749999D01*
X120241128Y-126750000D01*
X123598872Y-126750000D01*
X123598871Y-126749999D01*
X123546266Y-126553673D01*
X123450134Y-126347519D01*
X123319658Y-126161180D01*
X123158819Y-126000341D01*
X122972482Y-125869866D01*
X122914133Y-125842657D01*
X122861958Y-125796899D01*
X122842539Y-125730274D01*
X122861959Y-125663649D01*
X122914134Y-125617893D01*
X122972734Y-125590568D01*
X123159139Y-125460047D01*
X123320047Y-125299139D01*
X123450568Y-125112734D01*
X123546739Y-124906496D01*
X123605635Y-124686692D01*
X123625468Y-124460000D01*
X123605635Y-124233308D01*
X123546739Y-124013504D01*
X123450568Y-123807266D01*
X123441126Y-123793782D01*
X123320046Y-123620859D01*
X123159140Y-123459953D01*
X122972732Y-123329430D01*
X122914724Y-123302380D01*
X122862549Y-123256623D01*
X122843130Y-123189997D01*
X122862550Y-123123373D01*
X122914721Y-123077619D01*
X122972734Y-123050568D01*
X123159139Y-122920047D01*
X123320047Y-122759139D01*
X123450568Y-122572734D01*
X123546739Y-122366496D01*
X123605635Y-122146692D01*
X123625468Y-121920000D01*
X123605635Y-121693308D01*
X123546739Y-121473504D01*
X123450568Y-121267266D01*
X123432996Y-121242171D01*
X123320046Y-121080859D01*
X123159140Y-120919953D01*
X122972733Y-120789431D01*
X122914725Y-120762382D01*
X122862549Y-120716625D01*
X122843129Y-120650000D01*
X122862549Y-120583375D01*
X122914725Y-120537618D01*
X122972734Y-120510568D01*
X123159139Y-120380047D01*
X123320047Y-120219139D01*
X123450568Y-120032734D01*
X123546739Y-119826496D01*
X123605635Y-119606692D01*
X123625468Y-119380000D01*
X123605635Y-119153308D01*
X123546739Y-118933504D01*
X123450568Y-118727266D01*
X123432996Y-118702171D01*
X123320046Y-118540859D01*
X123159140Y-118379953D01*
X122972733Y-118249431D01*
X122914725Y-118222382D01*
X122862549Y-118176625D01*
X122843129Y-118110000D01*
X122862549Y-118043375D01*
X122914725Y-117997618D01*
X122947508Y-117982331D01*
X122972734Y-117970568D01*
X123159139Y-117840047D01*
X123320047Y-117679139D01*
X123450568Y-117492734D01*
X123546739Y-117286496D01*
X123605635Y-117066692D01*
X123625468Y-116840000D01*
X123605635Y-116613308D01*
X123546739Y-116393504D01*
X123450568Y-116187266D01*
X123432996Y-116162171D01*
X123320046Y-116000859D01*
X123159140Y-115839953D01*
X122972732Y-115709430D01*
X122914724Y-115682380D01*
X122862549Y-115636623D01*
X122843130Y-115569997D01*
X122862550Y-115503373D01*
X122914721Y-115457619D01*
X122972734Y-115430568D01*
X123159139Y-115300047D01*
X123320047Y-115139139D01*
X123450568Y-114952734D01*
X123546739Y-114746496D01*
X123605635Y-114526692D01*
X123625468Y-114300000D01*
X123605635Y-114073308D01*
X123546739Y-113853504D01*
X123450568Y-113647266D01*
X123320047Y-113460861D01*
X123320046Y-113460859D01*
X123159140Y-113299953D01*
X122972736Y-113169433D01*
X122940697Y-113154493D01*
X122914722Y-113142380D01*
X122862548Y-113096623D01*
X122843129Y-113029997D01*
X122862549Y-112963372D01*
X122914721Y-112917619D01*
X122972734Y-112890568D01*
X123159139Y-112760047D01*
X123320047Y-112599139D01*
X123450568Y-112412734D01*
X123546739Y-112206496D01*
X123605635Y-111986692D01*
X123625468Y-111760000D01*
X123605635Y-111533308D01*
X123546739Y-111313504D01*
X123450568Y-111107266D01*
X123436456Y-111087112D01*
X123320046Y-110920859D01*
X123159140Y-110759953D01*
X123134537Y-110742726D01*
X123095399Y-110697884D01*
X123081666Y-110639970D01*
X123096500Y-110582328D01*
X123136485Y-110538239D01*
X123192406Y-110517861D01*
X123227483Y-110514091D01*
X123362331Y-110463796D01*
X123477546Y-110377546D01*
X123563796Y-110262331D01*
X123614091Y-110127483D01*
X123620500Y-110067873D01*
X123620499Y-109220000D01*
X127834531Y-109220000D01*
X127854364Y-109446689D01*
X127913261Y-109666497D01*
X128009432Y-109872735D01*
X128139953Y-110059140D01*
X128300859Y-110220046D01*
X128487264Y-110350567D01*
X128487265Y-110350567D01*
X128487266Y-110350568D01*
X128545865Y-110377893D01*
X128598040Y-110423650D01*
X128617460Y-110490274D01*
X128598041Y-110556899D01*
X128545866Y-110602656D01*
X128487522Y-110629863D01*
X128301180Y-110760341D01*
X128140341Y-110921180D01*
X128009865Y-111107519D01*
X127913733Y-111313673D01*
X127861128Y-111509999D01*
X127861128Y-111510000D01*
X131218872Y-111510000D01*
X131218871Y-111509999D01*
X131166266Y-111313673D01*
X131070134Y-111107519D01*
X130939658Y-110921180D01*
X130778819Y-110760341D01*
X130592482Y-110629866D01*
X130534133Y-110602657D01*
X130481958Y-110556899D01*
X130462539Y-110490274D01*
X130481959Y-110423649D01*
X130534134Y-110377893D01*
X130592734Y-110350568D01*
X130666344Y-110299026D01*
X133934526Y-110299026D01*
X134007515Y-110350133D01*
X134213673Y-110446266D01*
X134433397Y-110505141D01*
X134660000Y-110524966D01*
X134886602Y-110505141D01*
X135106326Y-110446266D01*
X135312480Y-110350134D01*
X135385472Y-110299025D01*
X134660001Y-109573553D01*
X134660000Y-109573553D01*
X133934526Y-110299025D01*
X133934526Y-110299026D01*
X130666344Y-110299026D01*
X130779139Y-110220047D01*
X130940047Y-110059139D01*
X131070568Y-109872734D01*
X131166739Y-109666496D01*
X131225635Y-109446692D01*
X131245468Y-109220000D01*
X133355033Y-109220000D01*
X133374858Y-109446602D01*
X133433733Y-109666326D01*
X133529866Y-109872484D01*
X133580972Y-109945471D01*
X133580974Y-109945472D01*
X134306446Y-109220001D01*
X134306446Y-109220000D01*
X133580973Y-108494526D01*
X133580973Y-108494527D01*
X133529865Y-108567516D01*
X133433733Y-108773672D01*
X133374858Y-108993397D01*
X133355033Y-109220000D01*
X131245468Y-109220000D01*
X131225635Y-108993308D01*
X131166739Y-108773504D01*
X131070568Y-108567266D01*
X131069507Y-108565751D01*
X130940046Y-108380859D01*
X130779140Y-108219953D01*
X130666344Y-108140973D01*
X133934526Y-108140973D01*
X134660000Y-108866446D01*
X134660001Y-108866446D01*
X135385472Y-108140974D01*
X135385471Y-108140972D01*
X135312484Y-108089866D01*
X135106326Y-107993733D01*
X134886602Y-107934858D01*
X134660000Y-107915033D01*
X134433397Y-107934858D01*
X134213672Y-107993733D01*
X134007516Y-108089865D01*
X133934527Y-108140973D01*
X133934526Y-108140973D01*
X130666344Y-108140973D01*
X130592735Y-108089432D01*
X130386497Y-107993261D01*
X130166689Y-107934364D01*
X129996786Y-107919500D01*
X129996784Y-107919500D01*
X129083216Y-107919500D01*
X129083214Y-107919500D01*
X128913310Y-107934364D01*
X128693502Y-107993261D01*
X128487264Y-108089432D01*
X128300859Y-108219953D01*
X128139953Y-108380859D01*
X128009432Y-108567264D01*
X127913261Y-108773502D01*
X127854364Y-108993310D01*
X127834531Y-109220000D01*
X123620499Y-109220000D01*
X123620499Y-108372128D01*
X123614091Y-108312517D01*
X123563796Y-108177669D01*
X123477546Y-108062454D01*
X123362331Y-107976204D01*
X123227483Y-107925909D01*
X123167873Y-107919500D01*
X123167869Y-107919500D01*
X120672130Y-107919500D01*
X120612515Y-107925909D01*
X120477669Y-107976204D01*
X120362454Y-108062454D01*
X120276204Y-108177668D01*
X120225909Y-108312516D01*
X120219500Y-108372131D01*
X120219500Y-109984546D01*
X120210061Y-110031999D01*
X120183181Y-110072227D01*
X118996208Y-111259199D01*
X118980110Y-111272096D01*
X118932096Y-111323225D01*
X118929391Y-111326017D01*
X118909874Y-111345534D01*
X118907415Y-111348705D01*
X118899842Y-111357572D01*
X118869935Y-111389420D01*
X118860285Y-111406974D01*
X118849609Y-111423228D01*
X118837326Y-111439063D01*
X118819975Y-111479158D01*
X118814838Y-111489644D01*
X118793802Y-111527907D01*
X118788821Y-111547309D01*
X118782520Y-111565711D01*
X118774561Y-111584102D01*
X118767728Y-111627242D01*
X118765360Y-111638674D01*
X118754500Y-111680978D01*
X118754500Y-111701016D01*
X118752973Y-111720415D01*
X118749927Y-111739649D01*
X118749840Y-111740196D01*
X118753390Y-111777751D01*
X118753950Y-111783675D01*
X118754500Y-111795344D01*
X118754500Y-122634853D01*
X118745061Y-122682306D01*
X118718181Y-122722534D01*
X117677181Y-123763532D01*
X117627818Y-123793782D01*
X117570102Y-123798324D01*
X117516615Y-123776169D01*
X117479015Y-123732146D01*
X117465500Y-123675851D01*
X117465500Y-109918687D01*
X117473736Y-109874249D01*
X117497347Y-109835717D01*
X117572533Y-109752216D01*
X117667179Y-109588284D01*
X117725674Y-109408256D01*
X117745460Y-109220000D01*
X117725674Y-109031744D01*
X117688465Y-108917228D01*
X117667179Y-108851715D01*
X117572533Y-108687783D01*
X117445870Y-108547110D01*
X117292730Y-108435848D01*
X117119802Y-108358855D01*
X116934648Y-108319500D01*
X116934646Y-108319500D01*
X116745354Y-108319500D01*
X116745352Y-108319500D01*
X116560197Y-108358855D01*
X116499439Y-108385907D01*
X116439275Y-108396246D01*
X116381468Y-108376623D01*
X116340030Y-108331796D01*
X116325003Y-108272628D01*
X116325003Y-107759026D01*
X118654526Y-107759026D01*
X118727515Y-107810133D01*
X118933673Y-107906266D01*
X119153397Y-107965141D01*
X119380000Y-107984966D01*
X119606602Y-107965141D01*
X119826326Y-107906266D01*
X120032480Y-107810134D01*
X120105472Y-107759025D01*
X119380001Y-107033553D01*
X119380000Y-107033553D01*
X118654526Y-107759025D01*
X118654526Y-107759026D01*
X116325003Y-107759026D01*
X116325003Y-106680000D01*
X118075033Y-106680000D01*
X118094858Y-106906602D01*
X118153733Y-107126326D01*
X118249866Y-107332484D01*
X118300972Y-107405471D01*
X118300974Y-107405472D01*
X119026446Y-106680001D01*
X119733553Y-106680001D01*
X120459025Y-107405472D01*
X120510134Y-107332480D01*
X120606266Y-107126326D01*
X120665141Y-106906602D01*
X120684966Y-106680000D01*
X120665141Y-106453397D01*
X120606266Y-106233673D01*
X120510133Y-106027515D01*
X120459025Y-105954526D01*
X119733553Y-106680000D01*
X119733553Y-106680001D01*
X119026446Y-106680001D01*
X119026446Y-106680000D01*
X118300973Y-105954526D01*
X118300973Y-105954527D01*
X118249865Y-106027516D01*
X118153733Y-106233672D01*
X118094858Y-106453397D01*
X118075033Y-106680000D01*
X116325003Y-106680000D01*
X116325003Y-105622247D01*
X116327267Y-105601739D01*
X116327243Y-105600973D01*
X118654526Y-105600973D01*
X119380000Y-106326446D01*
X119380001Y-106326446D01*
X120105472Y-105600974D01*
X120105471Y-105600972D01*
X120032484Y-105549866D01*
X119826326Y-105453733D01*
X119606602Y-105394858D01*
X119380000Y-105375033D01*
X119153397Y-105394858D01*
X118933672Y-105453733D01*
X118727516Y-105549865D01*
X118654527Y-105600973D01*
X118654526Y-105600973D01*
X116327243Y-105600973D01*
X116325064Y-105531616D01*
X116325003Y-105527722D01*
X116325003Y-105500157D01*
X116325003Y-105500153D01*
X116324500Y-105496173D01*
X116323584Y-105484531D01*
X116322213Y-105440876D01*
X116316621Y-105421629D01*
X116312677Y-105402588D01*
X116310167Y-105382711D01*
X116294082Y-105342086D01*
X116290311Y-105331071D01*
X116278121Y-105289113D01*
X116267917Y-105271858D01*
X116259364Y-105254398D01*
X116256651Y-105247546D01*
X116251989Y-105235771D01*
X116244182Y-105225025D01*
X116226569Y-105190458D01*
X116220500Y-105152140D01*
X116220500Y-104140000D01*
X130804340Y-104140000D01*
X130824936Y-104375407D01*
X130869709Y-104542501D01*
X130886097Y-104603663D01*
X130985965Y-104817830D01*
X131121505Y-105011401D01*
X131288599Y-105178495D01*
X131482170Y-105314035D01*
X131696337Y-105413903D01*
X131924592Y-105475063D01*
X132160000Y-105495659D01*
X132395408Y-105475063D01*
X132623663Y-105413903D01*
X132837830Y-105314035D01*
X133031401Y-105178495D01*
X133198495Y-105011401D01*
X133308426Y-104854402D01*
X133352743Y-104815538D01*
X133410000Y-104801527D01*
X133467257Y-104815538D01*
X133511573Y-104854402D01*
X133621505Y-105011401D01*
X133788599Y-105178495D01*
X133981625Y-105313653D01*
X134020489Y-105357970D01*
X134034500Y-105415227D01*
X134034500Y-105936888D01*
X134026264Y-105981326D01*
X134002650Y-106019860D01*
X133887466Y-106147783D01*
X133792820Y-106311715D01*
X133734326Y-106491742D01*
X133714540Y-106680000D01*
X133734326Y-106868257D01*
X133792820Y-107048284D01*
X133887466Y-107212216D01*
X134014129Y-107352889D01*
X134167269Y-107464151D01*
X134340197Y-107541144D01*
X134525352Y-107580500D01*
X134525354Y-107580500D01*
X134714646Y-107580500D01*
X134714648Y-107580500D01*
X134838084Y-107554262D01*
X134899803Y-107541144D01*
X135072730Y-107464151D01*
X135153495Y-107405472D01*
X135225870Y-107352889D01*
X135352533Y-107212216D01*
X135447179Y-107048284D01*
X135493186Y-106906689D01*
X135505674Y-106868256D01*
X135525460Y-106680000D01*
X135505674Y-106491744D01*
X135447179Y-106311716D01*
X135447179Y-106311715D01*
X135352535Y-106147786D01*
X135317350Y-106108710D01*
X135293736Y-106070175D01*
X135285500Y-106025737D01*
X135285500Y-105415227D01*
X135299511Y-105357970D01*
X135338374Y-105313653D01*
X135531401Y-105178495D01*
X135698495Y-105011401D01*
X135808426Y-104854402D01*
X135852743Y-104815538D01*
X135910000Y-104801527D01*
X135967257Y-104815538D01*
X136011573Y-104854402D01*
X136121505Y-105011401D01*
X136288599Y-105178495D01*
X136482170Y-105314035D01*
X136696337Y-105413903D01*
X136924592Y-105475063D01*
X137160000Y-105495659D01*
X137395408Y-105475063D01*
X137623663Y-105413903D01*
X137837830Y-105314035D01*
X138031401Y-105178495D01*
X138198495Y-105011401D01*
X138249983Y-104937869D01*
X143754500Y-104937869D01*
X143754501Y-104937876D01*
X143760909Y-104997483D01*
X143811204Y-105132331D01*
X143897454Y-105247546D01*
X144012669Y-105333796D01*
X144147517Y-105384091D01*
X144207127Y-105390500D01*
X145352872Y-105390499D01*
X145412483Y-105384091D01*
X145547331Y-105333796D01*
X145547332Y-105333795D01*
X145560926Y-105328725D01*
X145597601Y-105312857D01*
X145655071Y-105316322D01*
X145800000Y-105360286D01*
X145800000Y-104995672D01*
X145800711Y-104982416D01*
X145801122Y-104978588D01*
X145805500Y-104937873D01*
X145805499Y-103342128D01*
X145800709Y-103297577D01*
X145800000Y-103284325D01*
X145800000Y-102919713D01*
X145655069Y-102963677D01*
X145597603Y-102967143D01*
X145560933Y-102951278D01*
X145547332Y-102946205D01*
X145547331Y-102946204D01*
X145412483Y-102895909D01*
X145352873Y-102889500D01*
X145352869Y-102889500D01*
X144207130Y-102889500D01*
X144147515Y-102895909D01*
X144012669Y-102946204D01*
X143897454Y-103032454D01*
X143811204Y-103147668D01*
X143760909Y-103282516D01*
X143754500Y-103342130D01*
X143754500Y-104937869D01*
X138249983Y-104937869D01*
X138334035Y-104817830D01*
X138433903Y-104603663D01*
X138495063Y-104375408D01*
X138515659Y-104140000D01*
X138495063Y-103904592D01*
X138433903Y-103676337D01*
X138334035Y-103462171D01*
X138198495Y-103268599D01*
X138031401Y-103101505D01*
X137837830Y-102965965D01*
X137623663Y-102866097D01*
X137557728Y-102848430D01*
X137395407Y-102804936D01*
X137160000Y-102784340D01*
X136924592Y-102804936D01*
X136696336Y-102866097D01*
X136482170Y-102965965D01*
X136288598Y-103101505D01*
X136121505Y-103268598D01*
X136011575Y-103425596D01*
X135967257Y-103464462D01*
X135910000Y-103478473D01*
X135852743Y-103464462D01*
X135808425Y-103425596D01*
X135749980Y-103342128D01*
X135698495Y-103268599D01*
X135531401Y-103101505D01*
X135337830Y-102965965D01*
X135123663Y-102866097D01*
X135057728Y-102848430D01*
X134895407Y-102804936D01*
X134660000Y-102784340D01*
X134424592Y-102804936D01*
X134196336Y-102866097D01*
X133982170Y-102965965D01*
X133788598Y-103101505D01*
X133621505Y-103268598D01*
X133511575Y-103425596D01*
X133467257Y-103464462D01*
X133410000Y-103478473D01*
X133352743Y-103464462D01*
X133308425Y-103425596D01*
X133249980Y-103342128D01*
X133198495Y-103268599D01*
X133031401Y-103101505D01*
X132837830Y-102965965D01*
X132623663Y-102866097D01*
X132557728Y-102848430D01*
X132395407Y-102804936D01*
X132160000Y-102784340D01*
X131924592Y-102804936D01*
X131696336Y-102866097D01*
X131482170Y-102965965D01*
X131288598Y-103101505D01*
X131121505Y-103268598D01*
X130985965Y-103462170D01*
X130886097Y-103676336D01*
X130824936Y-103904592D01*
X130804340Y-104140000D01*
X116220500Y-104140000D01*
X116220500Y-102850227D01*
X116234511Y-102792970D01*
X116273374Y-102748653D01*
X116466401Y-102613495D01*
X116633495Y-102446401D01*
X116763426Y-102260839D01*
X116807743Y-102221975D01*
X116865000Y-102207964D01*
X116922257Y-102221975D01*
X116966573Y-102260839D01*
X117096505Y-102446401D01*
X117263599Y-102613495D01*
X117457170Y-102749035D01*
X117671337Y-102848903D01*
X117899592Y-102910063D01*
X118135000Y-102930659D01*
X118370408Y-102910063D01*
X118598663Y-102848903D01*
X118812830Y-102749035D01*
X119006401Y-102613495D01*
X119173495Y-102446401D01*
X119303426Y-102260839D01*
X119347743Y-102221975D01*
X119405000Y-102207964D01*
X119462257Y-102221975D01*
X119506573Y-102260839D01*
X119636505Y-102446401D01*
X119803599Y-102613495D01*
X119997170Y-102749035D01*
X120211337Y-102848903D01*
X120439592Y-102910063D01*
X120675000Y-102930659D01*
X120910408Y-102910063D01*
X121138663Y-102848903D01*
X121352830Y-102749035D01*
X121546401Y-102613495D01*
X121713495Y-102446401D01*
X121843732Y-102260402D01*
X121888048Y-102221539D01*
X121945305Y-102207528D01*
X122002562Y-102221539D01*
X122046880Y-102260404D01*
X122176893Y-102446081D01*
X122343918Y-102613106D01*
X122537423Y-102748600D01*
X122751507Y-102848430D01*
X122964999Y-102905635D01*
X122965000Y-102905636D01*
X122965000Y-101825000D01*
X123465000Y-101825000D01*
X123465000Y-102905635D01*
X123678492Y-102848430D01*
X123892576Y-102748600D01*
X124086081Y-102613106D01*
X124253106Y-102446081D01*
X124388600Y-102252576D01*
X124488430Y-102038492D01*
X124545636Y-101825000D01*
X123465000Y-101825000D01*
X122965000Y-101825000D01*
X122965000Y-101449000D01*
X122981613Y-101387000D01*
X123027000Y-101341613D01*
X123089000Y-101325000D01*
X124545636Y-101325000D01*
X124545635Y-101324999D01*
X124488430Y-101111507D01*
X124388599Y-100897421D01*
X124253109Y-100703921D01*
X124086081Y-100536893D01*
X123892576Y-100401399D01*
X123678492Y-100301569D01*
X123464667Y-100244275D01*
X123412988Y-100215922D01*
X123380239Y-100166910D01*
X123373822Y-100108315D01*
X123395186Y-100053376D01*
X123439504Y-100014511D01*
X123496761Y-100000500D01*
X149875500Y-100000500D01*
X149937500Y-100017113D01*
X149982887Y-100062500D01*
X149999500Y-100124500D01*
X149999500Y-108606109D01*
X149981789Y-108669974D01*
X149933715Y-108715594D01*
X149869011Y-108729939D01*
X149806160Y-108708910D01*
X149763118Y-108658514D01*
X149727893Y-108582975D01*
X149720568Y-108567266D01*
X149719507Y-108565751D01*
X149590046Y-108380859D01*
X149429140Y-108219953D01*
X149242735Y-108089432D01*
X149036497Y-107993261D01*
X148816689Y-107934364D01*
X148590000Y-107914531D01*
X148363310Y-107934364D01*
X148143502Y-107993261D01*
X148121905Y-108003333D01*
X148061390Y-108014686D01*
X148002875Y-107995532D01*
X147960786Y-107950594D01*
X147945500Y-107890951D01*
X147945500Y-105236945D01*
X147957405Y-105183928D01*
X147990835Y-105141092D01*
X148003444Y-105130743D01*
X148048647Y-105093647D01*
X148176798Y-104937494D01*
X148272023Y-104759341D01*
X148330662Y-104566033D01*
X148345500Y-104415380D01*
X148345500Y-103864620D01*
X148330662Y-103713967D01*
X148272023Y-103520659D01*
X148176798Y-103342506D01*
X148094420Y-103242128D01*
X148048647Y-103186352D01*
X147945259Y-103101505D01*
X147892494Y-103058202D01*
X147714341Y-102962977D01*
X147607802Y-102930659D01*
X147521031Y-102904337D01*
X147341962Y-102886701D01*
X147320000Y-102884538D01*
X147319999Y-102884538D01*
X147118968Y-102904337D01*
X146925656Y-102962978D01*
X146742923Y-103060651D01*
X146684470Y-103075293D01*
X146626017Y-103060651D01*
X146444152Y-102963442D01*
X146300000Y-102919715D01*
X146300000Y-103802685D01*
X146299403Y-103814839D01*
X146294500Y-103864620D01*
X146294500Y-104415380D01*
X146299403Y-104465161D01*
X146300000Y-104477315D01*
X146300000Y-105360285D01*
X146444152Y-105316557D01*
X146512047Y-105280267D01*
X146573543Y-105265662D01*
X146634249Y-105283267D01*
X146678391Y-105328506D01*
X146694500Y-105389625D01*
X146694500Y-111639548D01*
X146685061Y-111687001D01*
X146658181Y-111727229D01*
X145761208Y-112624199D01*
X145745110Y-112637096D01*
X145697096Y-112688225D01*
X145694391Y-112691017D01*
X145674874Y-112710534D01*
X145672415Y-112713705D01*
X145664842Y-112722572D01*
X145634935Y-112754420D01*
X145625285Y-112771974D01*
X145614609Y-112788228D01*
X145602326Y-112804063D01*
X145584975Y-112844158D01*
X145579838Y-112854644D01*
X145558802Y-112892907D01*
X145553821Y-112912309D01*
X145547520Y-112930711D01*
X145539561Y-112949102D01*
X145532728Y-112992242D01*
X145530360Y-113003674D01*
X145519500Y-113045978D01*
X145519500Y-113066016D01*
X145517973Y-113085415D01*
X145514840Y-113105194D01*
X145518950Y-113148675D01*
X145519500Y-113160344D01*
X145519500Y-135902256D01*
X145517235Y-135922762D01*
X145519439Y-135992873D01*
X145519500Y-135996768D01*
X145519500Y-136024349D01*
X145520003Y-136028334D01*
X145520918Y-136039967D01*
X145522290Y-136083626D01*
X145527879Y-136102860D01*
X145531825Y-136121916D01*
X145534335Y-136141792D01*
X145550414Y-136182404D01*
X145554197Y-136193451D01*
X145566382Y-136235391D01*
X145576580Y-136252635D01*
X145585136Y-136270100D01*
X145592514Y-136288732D01*
X145592515Y-136288733D01*
X145618180Y-136324059D01*
X145624593Y-136333822D01*
X145646826Y-136371416D01*
X145646829Y-136371419D01*
X145646830Y-136371420D01*
X145660995Y-136385585D01*
X145673627Y-136400375D01*
X145685406Y-136416587D01*
X145719058Y-136444426D01*
X145727699Y-136452289D01*
X145979762Y-136704352D01*
X146011856Y-136759939D01*
X146011856Y-136824126D01*
X145984936Y-136924593D01*
X145964340Y-137160000D01*
X145984936Y-137395407D01*
X146029709Y-137562501D01*
X146046097Y-137623663D01*
X146145965Y-137837830D01*
X146281505Y-138031401D01*
X146448599Y-138198495D01*
X146634160Y-138328426D01*
X146673024Y-138372743D01*
X146687035Y-138430000D01*
X146673024Y-138487257D01*
X146634160Y-138531574D01*
X146508902Y-138619281D01*
X146448595Y-138661508D01*
X146281505Y-138828598D01*
X146145965Y-139022170D01*
X146046097Y-139236336D01*
X145984936Y-139464592D01*
X145964340Y-139699999D01*
X145984936Y-139935407D01*
X146029709Y-140102502D01*
X146046097Y-140163663D01*
X146145965Y-140377830D01*
X146281505Y-140571401D01*
X146448599Y-140738495D01*
X146634597Y-140868732D01*
X146673460Y-140913048D01*
X146687471Y-140970305D01*
X146673461Y-141027561D01*
X146634595Y-141071880D01*
X146448919Y-141201892D01*
X146281890Y-141368921D01*
X146146400Y-141562421D01*
X146046569Y-141776507D01*
X145989364Y-141989999D01*
X145989364Y-141990000D01*
X148650636Y-141990000D01*
X148650635Y-141989999D01*
X148593430Y-141776507D01*
X148493599Y-141562421D01*
X148358109Y-141368921D01*
X148191081Y-141201893D01*
X148005404Y-141071880D01*
X147966539Y-141027562D01*
X147952528Y-140970305D01*
X147966539Y-140913048D01*
X148005402Y-140868732D01*
X148191401Y-140738495D01*
X148358495Y-140571401D01*
X148494035Y-140377830D01*
X148593903Y-140163663D01*
X148655063Y-139935408D01*
X148675659Y-139700000D01*
X148655063Y-139464592D01*
X148593903Y-139236337D01*
X148494035Y-139022171D01*
X148358495Y-138828599D01*
X148191401Y-138661505D01*
X148005839Y-138531573D01*
X147966974Y-138487255D01*
X147952964Y-138429999D01*
X147966975Y-138372742D01*
X148005837Y-138328428D01*
X148191401Y-138198495D01*
X148358495Y-138031401D01*
X148494035Y-137837830D01*
X148593903Y-137623663D01*
X148655063Y-137395408D01*
X148675659Y-137160000D01*
X148673916Y-137140083D01*
X148655063Y-136924592D01*
X148630473Y-136832819D01*
X148593903Y-136696337D01*
X148494035Y-136482171D01*
X148358495Y-136288599D01*
X148191401Y-136121505D01*
X148005839Y-135991573D01*
X147966975Y-135947257D01*
X147952964Y-135890000D01*
X147966975Y-135832743D01*
X148005839Y-135788426D01*
X148191401Y-135658495D01*
X148358495Y-135491401D01*
X148494035Y-135297830D01*
X148593903Y-135083663D01*
X148655063Y-134855408D01*
X148675659Y-134620000D01*
X148655063Y-134384592D01*
X148593903Y-134156337D01*
X148494035Y-133942171D01*
X148358495Y-133748599D01*
X148191401Y-133581505D01*
X148005839Y-133451573D01*
X147966975Y-133407257D01*
X147952964Y-133350000D01*
X147966975Y-133292743D01*
X148005839Y-133248426D01*
X148191401Y-133118495D01*
X148358495Y-132951401D01*
X148494035Y-132757830D01*
X148593903Y-132543663D01*
X148655063Y-132315408D01*
X148675659Y-132080000D01*
X148673916Y-132060083D01*
X148655063Y-131844592D01*
X148624668Y-131731155D01*
X148593903Y-131616337D01*
X148494035Y-131402171D01*
X148358495Y-131208599D01*
X148191401Y-131041505D01*
X148005839Y-130911573D01*
X147966976Y-130867257D01*
X147952965Y-130810000D01*
X147966976Y-130752743D01*
X148005839Y-130708426D01*
X148191401Y-130578495D01*
X148358495Y-130411401D01*
X148494035Y-130217830D01*
X148593903Y-130003663D01*
X148655063Y-129775408D01*
X148675659Y-129540000D01*
X148655063Y-129304592D01*
X148593903Y-129076337D01*
X148494035Y-128862171D01*
X148358495Y-128668599D01*
X148191401Y-128501505D01*
X148005839Y-128371573D01*
X147966976Y-128327257D01*
X147952965Y-128270000D01*
X147966976Y-128212743D01*
X148005839Y-128168426D01*
X148191401Y-128038495D01*
X148358495Y-127871401D01*
X148494035Y-127677830D01*
X148593903Y-127463663D01*
X148655063Y-127235408D01*
X148675659Y-127000000D01*
X148655063Y-126764592D01*
X148593903Y-126536337D01*
X148494035Y-126322171D01*
X148358495Y-126128599D01*
X148191401Y-125961505D01*
X148005839Y-125831573D01*
X147966975Y-125787257D01*
X147952964Y-125730000D01*
X147966975Y-125672743D01*
X148005839Y-125628426D01*
X148191401Y-125498495D01*
X148358495Y-125331401D01*
X148494035Y-125137830D01*
X148593903Y-124923663D01*
X148655063Y-124695408D01*
X148675659Y-124460000D01*
X148655063Y-124224592D01*
X148593903Y-123996337D01*
X148494035Y-123782171D01*
X148358495Y-123588599D01*
X148191401Y-123421505D01*
X148005839Y-123291573D01*
X147966975Y-123247257D01*
X147952964Y-123190000D01*
X147966975Y-123132743D01*
X148005839Y-123088426D01*
X148191401Y-122958495D01*
X148358495Y-122791401D01*
X148494035Y-122597830D01*
X148593903Y-122383663D01*
X148655063Y-122155408D01*
X148675659Y-121920000D01*
X148655063Y-121684592D01*
X148593903Y-121456337D01*
X148494035Y-121242171D01*
X148358495Y-121048599D01*
X148191401Y-120881505D01*
X148005839Y-120751573D01*
X147966974Y-120707255D01*
X147952964Y-120649999D01*
X147966975Y-120592742D01*
X148005837Y-120548428D01*
X148191401Y-120418495D01*
X148358495Y-120251401D01*
X148494035Y-120057830D01*
X148593903Y-119843663D01*
X148655063Y-119615408D01*
X148675659Y-119380000D01*
X148655063Y-119144592D01*
X148593903Y-118916337D01*
X148494035Y-118702171D01*
X148358495Y-118508599D01*
X148191401Y-118341505D01*
X148005839Y-118211573D01*
X147966974Y-118167255D01*
X147952964Y-118109999D01*
X147966975Y-118052742D01*
X148005837Y-118008428D01*
X148191401Y-117878495D01*
X148358495Y-117711401D01*
X148494035Y-117517830D01*
X148593903Y-117303663D01*
X148655063Y-117075408D01*
X148675659Y-116840000D01*
X148655063Y-116604592D01*
X148593903Y-116376337D01*
X148494035Y-116162171D01*
X148358495Y-115968599D01*
X148236569Y-115846672D01*
X148205273Y-115793927D01*
X148203084Y-115732634D01*
X148230537Y-115677789D01*
X148280916Y-115642810D01*
X148412331Y-115593796D01*
X148527546Y-115507546D01*
X148613796Y-115392331D01*
X148664091Y-115257483D01*
X148670500Y-115197873D01*
X148670499Y-113402128D01*
X148664091Y-113342517D01*
X148613796Y-113207669D01*
X148527546Y-113092454D01*
X148412331Y-113006204D01*
X148277483Y-112955909D01*
X148217873Y-112949500D01*
X148217869Y-112949500D01*
X147504451Y-112949500D01*
X147448156Y-112935985D01*
X147404133Y-112898385D01*
X147381978Y-112844898D01*
X147386520Y-112787182D01*
X147416770Y-112737819D01*
X147454694Y-112699895D01*
X147703792Y-112450797D01*
X147719885Y-112437906D01*
X147721873Y-112435787D01*
X147721877Y-112435786D01*
X147767948Y-112386723D01*
X147770566Y-112384023D01*
X147790120Y-112364471D01*
X147792581Y-112361298D01*
X147800156Y-112352427D01*
X147830062Y-112320582D01*
X147839712Y-112303027D01*
X147850400Y-112286757D01*
X147862671Y-112270938D01*
X147862673Y-112270936D01*
X147880026Y-112230832D01*
X147885157Y-112220362D01*
X147885672Y-112219426D01*
X147906197Y-112182092D01*
X147911175Y-112162699D01*
X147917481Y-112144282D01*
X147919018Y-112140728D01*
X147925438Y-112125896D01*
X147932272Y-112082745D01*
X147934635Y-112071331D01*
X147945500Y-112029019D01*
X147945500Y-112008984D01*
X147947027Y-111989585D01*
X147947486Y-111986689D01*
X147950160Y-111969804D01*
X147946050Y-111926325D01*
X147945500Y-111914656D01*
X147945500Y-110549049D01*
X147960786Y-110489406D01*
X148002875Y-110444468D01*
X148061390Y-110425314D01*
X148121904Y-110436666D01*
X148143504Y-110446739D01*
X148363308Y-110505635D01*
X148590000Y-110525468D01*
X148816692Y-110505635D01*
X149036496Y-110446739D01*
X149242734Y-110350568D01*
X149429139Y-110220047D01*
X149590047Y-110059139D01*
X149720568Y-109872734D01*
X149763117Y-109781486D01*
X149806160Y-109731090D01*
X149869011Y-109710061D01*
X149933715Y-109724406D01*
X149981789Y-109770026D01*
X149999500Y-109833891D01*
X149999500Y-146706109D01*
X149981789Y-146769974D01*
X149933715Y-146815594D01*
X149869011Y-146829939D01*
X149806160Y-146808910D01*
X149763118Y-146758514D01*
X149720567Y-146667264D01*
X149590046Y-146480859D01*
X149429140Y-146319953D01*
X149242735Y-146189432D01*
X149036497Y-146093261D01*
X148816689Y-146034364D01*
X148590000Y-146014531D01*
X148363310Y-146034364D01*
X148143502Y-146093261D01*
X147937264Y-146189432D01*
X147750859Y-146319953D01*
X147589953Y-146480859D01*
X147459432Y-146667264D01*
X147363261Y-146873502D01*
X147304364Y-147093310D01*
X147284531Y-147320000D01*
X147304364Y-147546689D01*
X147363261Y-147766497D01*
X147459432Y-147972735D01*
X147589953Y-148159140D01*
X147750859Y-148320046D01*
X147937264Y-148450567D01*
X147937265Y-148450567D01*
X147937266Y-148450568D01*
X148143504Y-148546739D01*
X148363308Y-148605635D01*
X148590000Y-148625468D01*
X148816692Y-148605635D01*
X149036496Y-148546739D01*
X149242734Y-148450568D01*
X149429139Y-148320047D01*
X149590047Y-148159139D01*
X149720568Y-147972734D01*
X149763117Y-147881486D01*
X149806160Y-147831090D01*
X149869011Y-147810061D01*
X149933715Y-147824406D01*
X149981789Y-147870026D01*
X149999500Y-147933891D01*
X149999500Y-149875500D01*
X149982887Y-149937500D01*
X149937500Y-149982887D01*
X149875500Y-149999500D01*
X100124500Y-149999500D01*
X100062500Y-149982887D01*
X100017113Y-149937500D01*
X100000500Y-149875500D01*
X100000500Y-147570000D01*
X107889364Y-147570000D01*
X107946569Y-147783492D01*
X108046399Y-147997576D01*
X108181893Y-148191081D01*
X108348918Y-148358106D01*
X108542423Y-148493600D01*
X108756507Y-148593430D01*
X108969999Y-148650635D01*
X108970000Y-148650636D01*
X108970000Y-147570000D01*
X109470000Y-147570000D01*
X109470000Y-148650635D01*
X109683492Y-148593430D01*
X109897576Y-148493600D01*
X110091081Y-148358106D01*
X110258106Y-148191081D01*
X110393600Y-147997576D01*
X110493430Y-147783492D01*
X110550636Y-147570000D01*
X109470000Y-147570000D01*
X108970000Y-147570000D01*
X107889364Y-147570000D01*
X100000500Y-147570000D01*
X100000500Y-147320000D01*
X115614531Y-147320000D01*
X115634364Y-147546689D01*
X115693261Y-147766497D01*
X115789432Y-147972735D01*
X115919953Y-148159140D01*
X116080859Y-148320046D01*
X116267264Y-148450567D01*
X116267265Y-148450567D01*
X116267266Y-148450568D01*
X116473504Y-148546739D01*
X116693308Y-148605635D01*
X116920000Y-148625468D01*
X117146692Y-148605635D01*
X117366496Y-148546739D01*
X117572734Y-148450568D01*
X117759139Y-148320047D01*
X117920047Y-148159139D01*
X118050568Y-147972734D01*
X118146739Y-147766496D01*
X118205635Y-147546692D01*
X118225468Y-147320000D01*
X120614531Y-147320000D01*
X120634364Y-147546689D01*
X120693261Y-147766497D01*
X120789432Y-147972735D01*
X120919953Y-148159140D01*
X121080859Y-148320046D01*
X121267264Y-148450567D01*
X121267265Y-148450567D01*
X121267266Y-148450568D01*
X121473504Y-148546739D01*
X121693308Y-148605635D01*
X121920000Y-148625468D01*
X122146692Y-148605635D01*
X122366496Y-148546739D01*
X122572734Y-148450568D01*
X122759139Y-148320047D01*
X122920047Y-148159139D01*
X123050568Y-147972734D01*
X123077618Y-147914724D01*
X123123375Y-147862549D01*
X123190000Y-147843129D01*
X123256625Y-147862549D01*
X123302382Y-147914725D01*
X123329431Y-147972733D01*
X123459953Y-148159140D01*
X123620859Y-148320046D01*
X123807264Y-148450567D01*
X123807265Y-148450567D01*
X123807266Y-148450568D01*
X124013504Y-148546739D01*
X124233308Y-148605635D01*
X124460000Y-148625468D01*
X124686692Y-148605635D01*
X124906496Y-148546739D01*
X125112734Y-148450568D01*
X125186344Y-148399026D01*
X128734526Y-148399026D01*
X128807515Y-148450133D01*
X129013673Y-148546266D01*
X129233397Y-148605141D01*
X129460000Y-148624966D01*
X129686602Y-148605141D01*
X129906326Y-148546266D01*
X130112480Y-148450134D01*
X130185472Y-148399025D01*
X129460001Y-147673553D01*
X129460000Y-147673553D01*
X128734526Y-148399025D01*
X128734526Y-148399026D01*
X125186344Y-148399026D01*
X125299139Y-148320047D01*
X125460047Y-148159139D01*
X125590568Y-147972734D01*
X125686739Y-147766496D01*
X125745635Y-147546692D01*
X125765468Y-147320000D01*
X128155033Y-147320000D01*
X128174858Y-147546602D01*
X128233733Y-147766326D01*
X128329866Y-147972484D01*
X128380972Y-148045471D01*
X128380974Y-148045472D01*
X129106446Y-147320001D01*
X129813553Y-147320001D01*
X130539025Y-148045472D01*
X130590134Y-147972480D01*
X130686266Y-147766326D01*
X130745141Y-147546602D01*
X130764966Y-147320000D01*
X130764966Y-147319999D01*
X139664531Y-147319999D01*
X139684364Y-147546689D01*
X139743261Y-147766497D01*
X139839432Y-147972735D01*
X139969953Y-148159140D01*
X140130859Y-148320046D01*
X140317264Y-148450567D01*
X140317265Y-148450567D01*
X140317266Y-148450568D01*
X140523504Y-148546739D01*
X140743308Y-148605635D01*
X140970000Y-148625468D01*
X141196692Y-148605635D01*
X141416496Y-148546739D01*
X141622734Y-148450568D01*
X141809139Y-148320047D01*
X141970047Y-148159139D01*
X142100568Y-147972734D01*
X142196739Y-147766496D01*
X142255635Y-147546692D01*
X142275468Y-147320000D01*
X142255635Y-147093308D01*
X142196739Y-146873504D01*
X142100568Y-146667266D01*
X142049635Y-146594526D01*
X141970046Y-146480859D01*
X141809140Y-146319953D01*
X141622735Y-146189432D01*
X141416497Y-146093261D01*
X141196689Y-146034364D01*
X140970000Y-146014531D01*
X140743310Y-146034364D01*
X140523502Y-146093261D01*
X140317264Y-146189432D01*
X140130859Y-146319953D01*
X139969953Y-146480859D01*
X139839432Y-146667264D01*
X139743261Y-146873502D01*
X139684364Y-147093310D01*
X139664531Y-147319999D01*
X130764966Y-147319999D01*
X130745141Y-147093397D01*
X130686266Y-146873673D01*
X130590133Y-146667515D01*
X130539025Y-146594526D01*
X129813553Y-147320000D01*
X129813553Y-147320001D01*
X129106446Y-147320001D01*
X129106446Y-147320000D01*
X128380973Y-146594526D01*
X128380973Y-146594527D01*
X128329865Y-146667516D01*
X128233733Y-146873672D01*
X128174858Y-147093397D01*
X128155033Y-147320000D01*
X125765468Y-147320000D01*
X125745635Y-147093308D01*
X125686739Y-146873504D01*
X125590568Y-146667266D01*
X125539635Y-146594526D01*
X125460046Y-146480859D01*
X125299140Y-146319953D01*
X125186344Y-146240973D01*
X128734526Y-146240973D01*
X129460000Y-146966446D01*
X129460001Y-146966446D01*
X130185472Y-146240974D01*
X130185471Y-146240972D01*
X130112484Y-146189866D01*
X129906326Y-146093733D01*
X129686602Y-146034858D01*
X129460000Y-146015033D01*
X129233397Y-146034858D01*
X129013672Y-146093733D01*
X128807516Y-146189865D01*
X128734527Y-146240973D01*
X128734526Y-146240973D01*
X125186344Y-146240973D01*
X125112735Y-146189432D01*
X124906497Y-146093261D01*
X124686689Y-146034364D01*
X124460000Y-146014531D01*
X124233310Y-146034364D01*
X124013502Y-146093261D01*
X123807264Y-146189432D01*
X123620859Y-146319953D01*
X123459953Y-146480859D01*
X123329433Y-146667263D01*
X123302382Y-146725275D01*
X123256625Y-146777450D01*
X123190000Y-146796869D01*
X123123375Y-146777450D01*
X123077618Y-146725275D01*
X123068681Y-146706109D01*
X123050568Y-146667266D01*
X122999636Y-146594527D01*
X122920046Y-146480859D01*
X122759140Y-146319953D01*
X122572735Y-146189432D01*
X122366497Y-146093261D01*
X122146689Y-146034364D01*
X121920000Y-146014531D01*
X121693310Y-146034364D01*
X121473502Y-146093261D01*
X121267264Y-146189432D01*
X121080859Y-146319953D01*
X120919953Y-146480859D01*
X120789432Y-146667264D01*
X120693261Y-146873502D01*
X120634364Y-147093310D01*
X120614531Y-147320000D01*
X118225468Y-147320000D01*
X118205635Y-147093308D01*
X118146739Y-146873504D01*
X118050568Y-146667266D01*
X117999635Y-146594526D01*
X117920046Y-146480859D01*
X117759140Y-146319953D01*
X117572735Y-146189432D01*
X117366497Y-146093261D01*
X117146689Y-146034364D01*
X116920000Y-146014531D01*
X116693310Y-146034364D01*
X116473502Y-146093261D01*
X116267264Y-146189432D01*
X116080859Y-146319953D01*
X115919953Y-146480859D01*
X115789432Y-146667264D01*
X115693261Y-146873502D01*
X115634364Y-147093310D01*
X115614531Y-147320000D01*
X100000500Y-147320000D01*
X100000500Y-147070000D01*
X107889364Y-147070000D01*
X108970000Y-147070000D01*
X108970000Y-145989364D01*
X109470000Y-145989364D01*
X109470000Y-147070000D01*
X110550636Y-147070000D01*
X110550635Y-147069999D01*
X110493430Y-146856507D01*
X110393599Y-146642421D01*
X110258109Y-146448921D01*
X110091081Y-146281893D01*
X109897576Y-146146399D01*
X109683492Y-146046569D01*
X109470000Y-145989364D01*
X108970000Y-145989364D01*
X108969999Y-145989364D01*
X108756507Y-146046569D01*
X108542421Y-146146400D01*
X108348921Y-146281890D01*
X108181890Y-146448921D01*
X108046400Y-146642421D01*
X107946569Y-146856507D01*
X107889364Y-147069999D01*
X107889364Y-147070000D01*
X100000500Y-147070000D01*
X100000500Y-142490000D01*
X100269364Y-142490000D01*
X100326569Y-142703492D01*
X100426399Y-142917576D01*
X100561893Y-143111081D01*
X100728918Y-143278106D01*
X100922423Y-143413600D01*
X101136507Y-143513430D01*
X101349999Y-143570635D01*
X101350000Y-143570636D01*
X101350000Y-142490000D01*
X101850000Y-142490000D01*
X101850000Y-143570635D01*
X102063492Y-143513430D01*
X102277576Y-143413600D01*
X102471081Y-143278106D01*
X102638106Y-143111081D01*
X102773600Y-142917576D01*
X102873430Y-142703492D01*
X102930636Y-142490000D01*
X101850000Y-142490000D01*
X101350000Y-142490000D01*
X100269364Y-142490000D01*
X100000500Y-142490000D01*
X100000500Y-139752954D01*
X100014276Y-139700000D01*
X100000500Y-139647046D01*
X100000500Y-137212954D01*
X100014276Y-137160000D01*
X100000500Y-137107046D01*
X100000500Y-134672954D01*
X100014276Y-134620000D01*
X100000500Y-134567046D01*
X100000500Y-132132954D01*
X100014276Y-132080000D01*
X100000500Y-132027046D01*
X100000500Y-129592954D01*
X100014276Y-129540000D01*
X100000500Y-129487046D01*
X100000500Y-127052954D01*
X100014276Y-127000000D01*
X100000500Y-126947046D01*
X100000500Y-124512954D01*
X100014276Y-124459999D01*
X100000500Y-124407046D01*
X100000500Y-121972954D01*
X100014276Y-121920000D01*
X100000500Y-121867046D01*
X100000500Y-119432954D01*
X100014276Y-119380000D01*
X100000500Y-119327046D01*
X100000500Y-116892954D01*
X100014276Y-116840000D01*
X100000500Y-116787046D01*
X100000500Y-106930000D01*
X102809364Y-106930000D01*
X102866569Y-107143492D01*
X102966399Y-107357576D01*
X103101893Y-107551081D01*
X103268918Y-107718106D01*
X103462423Y-107853600D01*
X103676507Y-107953430D01*
X103889999Y-108010635D01*
X103890000Y-108010636D01*
X103890000Y-106930000D01*
X104390000Y-106930000D01*
X104390000Y-108010635D01*
X104603492Y-107953430D01*
X104817576Y-107853600D01*
X105011081Y-107718106D01*
X105178106Y-107551081D01*
X105313600Y-107357576D01*
X105413430Y-107143492D01*
X105470636Y-106930000D01*
X104390000Y-106930000D01*
X103890000Y-106930000D01*
X102809364Y-106930000D01*
X100000500Y-106930000D01*
X100000500Y-105037869D01*
X102789500Y-105037869D01*
X102795909Y-105097483D01*
X102846204Y-105232331D01*
X102932454Y-105347546D01*
X103047669Y-105433796D01*
X103179598Y-105483002D01*
X103229978Y-105517981D01*
X103257431Y-105572825D01*
X103255242Y-105634118D01*
X103223947Y-105686865D01*
X103101888Y-105808924D01*
X102966400Y-106002421D01*
X102866569Y-106216507D01*
X102809364Y-106429999D01*
X102809364Y-106430000D01*
X105470636Y-106430000D01*
X105470635Y-106429999D01*
X105413430Y-106216507D01*
X105313599Y-106002421D01*
X105178109Y-105808921D01*
X105056053Y-105686865D01*
X105024757Y-105634119D01*
X105022568Y-105572826D01*
X105050021Y-105517981D01*
X105100398Y-105483003D01*
X105232331Y-105433796D01*
X105347546Y-105347546D01*
X105433796Y-105232331D01*
X105484091Y-105097483D01*
X105490500Y-105037873D01*
X105490499Y-103242128D01*
X105484091Y-103182517D01*
X105433796Y-103047669D01*
X105347546Y-102932454D01*
X105232331Y-102846204D01*
X105097483Y-102795909D01*
X105037873Y-102789500D01*
X105037869Y-102789500D01*
X103242130Y-102789500D01*
X103182515Y-102795909D01*
X103047669Y-102846204D01*
X102932454Y-102932454D01*
X102846204Y-103047668D01*
X102795909Y-103182516D01*
X102789500Y-103242130D01*
X102789500Y-105037869D01*
X100000500Y-105037869D01*
X100000500Y-100124500D01*
X100017113Y-100062500D01*
X100062500Y-100017113D01*
X100124500Y-100000500D01*
X109487981Y-100000500D01*
X109553524Y-100019238D01*
G37*
%TD.AperFunction*%
%TD*%
D23*
X150000000Y-150000000D02*
X150000000Y-100000000D01*
X150000000Y-100000000D02*
X100000000Y-100000000D01*
X100000000Y-100000000D02*
X100000000Y-150000000D01*
X100000000Y-150000000D02*
X150000000Y-150000000D01*
M02*
