M48
; DRILL file {KiCad 7.0.1} date Sat Apr 22 15:41:23 2023
; FORMAT={-:-/ absolute / inch / decimal}
; #@! TF.CreationDate,2023-04-22T15:41:23-05:00
; #@! TF.GenerationSoftware,Kicad,Pcbnew,7.0.1
; #@! TF.FileFunction,Plated,1,2,PTH
FMAT,2
INCH
; #@! TA.AperFunction,Plated,PTH,ViaDrill
T1C0.0157
; #@! TA.AperFunction,Plated,PTH,ComponentDrill
T2C0.0295
; #@! TA.AperFunction,Plated,PTH,ComponentDrill
T3C0.0315
; #@! TA.AperFunction,Plated,PTH,ComponentDrill
T4C0.0354
; #@! TA.AperFunction,Plated,PTH,ComponentDrill
T5C0.0394
%
G90
G05
T1
X4.0798Y-5.2202
X4.1Y-5.5
X4.3Y-5.3285
X4.4Y-4.3
X4.451Y-3.999
X4.5551Y-4.9
X4.6Y-4.3
X4.6Y-4.9
X4.6Y-5.3285
X4.6Y-5.5285
X4.9Y-5.5
X5.2202Y-5.4202
X5.3Y-4.2
X5.4Y-5.3
X5.4Y-5.5
X5.5Y-4.4
T2
X5.7Y-4.1
X5.75Y-4.1
X5.8Y-4.1
T3
X4.2Y-4.9
X4.5Y-4.9
X4.5031Y-4.2
X4.6Y-5.1
X4.6Y-5.4
X4.6Y-5.6
X4.6031Y-5.8
X4.6984Y-5.6
X4.7Y-4.2
X4.8Y-4.3
X4.8Y-4.4
X4.8Y-4.5
X4.8Y-4.6
X4.8Y-4.7
X4.8Y-4.8
X4.8Y-4.9
X4.8Y-5.0
X4.8Y-5.1
X4.8Y-5.2
X4.8Y-5.3
X4.8Y-5.4
X4.8Y-5.5
X4.8Y-5.6
X4.8Y-5.8
X4.9Y-5.8
X5.0969Y-5.8
X5.1Y-4.3
X5.1Y-4.4
X5.1Y-4.5
X5.1Y-4.6
X5.1Y-4.7
X5.1Y-4.8
X5.1Y-4.9
X5.1Y-5.0
X5.1Y-5.1
X5.1Y-5.2
X5.1Y-5.3
X5.1Y-5.4
X5.1Y-5.5
X5.1Y-5.6
X5.3Y-5.0
X5.3Y-5.3
X5.3016Y-4.3
X5.4Y-4.3
X5.4031Y-5.1
X5.55Y-4.3
X5.55Y-5.8
X5.6Y-5.1
X5.85Y-4.3
X5.85Y-5.8
T4
X5.3Y-5.4
X5.3Y-5.5
X5.5Y-4.5
X5.5Y-4.6
X5.5Y-5.4
X5.5Y-5.5
T5
X4.0Y-4.5
X4.0Y-4.6
X4.0Y-4.7
X4.0Y-4.8
X4.0Y-4.9
X4.0Y-5.0
X4.0Y-5.1
X4.0Y-5.2
X4.0Y-5.3
X4.0Y-5.4
X4.0Y-5.5
X4.0Y-5.6
X4.1Y-4.1
X4.1Y-4.2
X4.3Y-5.2
X4.3Y-5.4
X4.3Y-5.6
X4.3Y-5.8
X4.351Y-3.999
X4.451Y-3.999
X4.551Y-3.999
X4.651Y-3.999
X4.751Y-3.999
X4.851Y-3.999
X5.2031Y-4.1
X5.3016Y-4.1
X5.4Y-4.1
X5.8Y-4.5
X5.8Y-4.6
X5.8Y-4.7
X5.8Y-4.8
X5.8Y-4.9
X5.8Y-5.0
X5.8Y-5.1
X5.8Y-5.2
X5.8Y-5.3
X5.8Y-5.4
X5.8Y-5.5
X5.8Y-5.6
T0
M30
