%TF.GenerationSoftware,KiCad,Pcbnew,7.0.1*%
%TF.CreationDate,2023-04-22T15:39:36-05:00*%
%TF.ProjectId,HW4,4857342e-6b69-4636-9164-5f7063625858,rev?*%
%TF.SameCoordinates,Original*%
%TF.FileFunction,Legend,Bot*%
%TF.FilePolarity,Positive*%
%FSLAX46Y46*%
G04 Gerber Fmt 4.6, Leading zero omitted, Abs format (unit mm)*
G04 Created by KiCad (PCBNEW 7.0.1) date 2023-04-22 15:39:36*
%MOMM*%
%LPD*%
G01*
G04 APERTURE LIST*
%ADD10C,0.150000*%
%TA.AperFunction,Profile*%
%ADD11C,0.100000*%
%TD*%
G04 APERTURE END LIST*
D10*
X143271904Y-106557619D02*
X143271904Y-105557619D01*
X143271904Y-105557619D02*
X142938571Y-106271904D01*
X142938571Y-106271904D02*
X142605238Y-105557619D01*
X142605238Y-105557619D02*
X142605238Y-106557619D01*
X141700476Y-106557619D02*
X141700476Y-106033809D01*
X141700476Y-106033809D02*
X141748095Y-105938571D01*
X141748095Y-105938571D02*
X141843333Y-105890952D01*
X141843333Y-105890952D02*
X142033809Y-105890952D01*
X142033809Y-105890952D02*
X142129047Y-105938571D01*
X141700476Y-106510000D02*
X141795714Y-106557619D01*
X141795714Y-106557619D02*
X142033809Y-106557619D01*
X142033809Y-106557619D02*
X142129047Y-106510000D01*
X142129047Y-106510000D02*
X142176666Y-106414761D01*
X142176666Y-106414761D02*
X142176666Y-106319523D01*
X142176666Y-106319523D02*
X142129047Y-106224285D01*
X142129047Y-106224285D02*
X142033809Y-106176666D01*
X142033809Y-106176666D02*
X141795714Y-106176666D01*
X141795714Y-106176666D02*
X141700476Y-106129047D01*
X140795714Y-106557619D02*
X140795714Y-105557619D01*
X140795714Y-106510000D02*
X140890952Y-106557619D01*
X140890952Y-106557619D02*
X141081428Y-106557619D01*
X141081428Y-106557619D02*
X141176666Y-106510000D01*
X141176666Y-106510000D02*
X141224285Y-106462380D01*
X141224285Y-106462380D02*
X141271904Y-106367142D01*
X141271904Y-106367142D02*
X141271904Y-106081428D01*
X141271904Y-106081428D02*
X141224285Y-105986190D01*
X141224285Y-105986190D02*
X141176666Y-105938571D01*
X141176666Y-105938571D02*
X141081428Y-105890952D01*
X141081428Y-105890952D02*
X140890952Y-105890952D01*
X140890952Y-105890952D02*
X140795714Y-105938571D01*
X139938571Y-106510000D02*
X140033809Y-106557619D01*
X140033809Y-106557619D02*
X140224285Y-106557619D01*
X140224285Y-106557619D02*
X140319523Y-106510000D01*
X140319523Y-106510000D02*
X140367142Y-106414761D01*
X140367142Y-106414761D02*
X140367142Y-106033809D01*
X140367142Y-106033809D02*
X140319523Y-105938571D01*
X140319523Y-105938571D02*
X140224285Y-105890952D01*
X140224285Y-105890952D02*
X140033809Y-105890952D01*
X140033809Y-105890952D02*
X139938571Y-105938571D01*
X139938571Y-105938571D02*
X139890952Y-106033809D01*
X139890952Y-106033809D02*
X139890952Y-106129047D01*
X139890952Y-106129047D02*
X140367142Y-106224285D01*
X139319523Y-106557619D02*
X139414761Y-106510000D01*
X139414761Y-106510000D02*
X139462380Y-106414761D01*
X139462380Y-106414761D02*
X139462380Y-105557619D01*
X138938570Y-106557619D02*
X138938570Y-105890952D01*
X138938570Y-105557619D02*
X138986189Y-105605238D01*
X138986189Y-105605238D02*
X138938570Y-105652857D01*
X138938570Y-105652857D02*
X138890951Y-105605238D01*
X138890951Y-105605238D02*
X138938570Y-105557619D01*
X138938570Y-105557619D02*
X138938570Y-105652857D01*
X138462380Y-105890952D02*
X138462380Y-106557619D01*
X138462380Y-105986190D02*
X138414761Y-105938571D01*
X138414761Y-105938571D02*
X138319523Y-105890952D01*
X138319523Y-105890952D02*
X138176666Y-105890952D01*
X138176666Y-105890952D02*
X138081428Y-105938571D01*
X138081428Y-105938571D02*
X138033809Y-106033809D01*
X138033809Y-106033809D02*
X138033809Y-106557619D01*
X137176666Y-106510000D02*
X137271904Y-106557619D01*
X137271904Y-106557619D02*
X137462380Y-106557619D01*
X137462380Y-106557619D02*
X137557618Y-106510000D01*
X137557618Y-106510000D02*
X137605237Y-106414761D01*
X137605237Y-106414761D02*
X137605237Y-106033809D01*
X137605237Y-106033809D02*
X137557618Y-105938571D01*
X137557618Y-105938571D02*
X137462380Y-105890952D01*
X137462380Y-105890952D02*
X137271904Y-105890952D01*
X137271904Y-105890952D02*
X137176666Y-105938571D01*
X137176666Y-105938571D02*
X137129047Y-106033809D01*
X137129047Y-106033809D02*
X137129047Y-106129047D01*
X137129047Y-106129047D02*
X137605237Y-106224285D01*
X135462380Y-106557619D02*
X135938570Y-106557619D01*
X135938570Y-106557619D02*
X135938570Y-105557619D01*
X135129046Y-106557619D02*
X135129046Y-105890952D01*
X135129046Y-105557619D02*
X135176665Y-105605238D01*
X135176665Y-105605238D02*
X135129046Y-105652857D01*
X135129046Y-105652857D02*
X135081427Y-105605238D01*
X135081427Y-105605238D02*
X135129046Y-105557619D01*
X135129046Y-105557619D02*
X135129046Y-105652857D01*
X134652856Y-105890952D02*
X134652856Y-106557619D01*
X134652856Y-105986190D02*
X134605237Y-105938571D01*
X134605237Y-105938571D02*
X134509999Y-105890952D01*
X134509999Y-105890952D02*
X134367142Y-105890952D01*
X134367142Y-105890952D02*
X134271904Y-105938571D01*
X134271904Y-105938571D02*
X134224285Y-106033809D01*
X134224285Y-106033809D02*
X134224285Y-106557619D01*
X133319523Y-106510000D02*
X133414761Y-106557619D01*
X133414761Y-106557619D02*
X133605237Y-106557619D01*
X133605237Y-106557619D02*
X133700475Y-106510000D01*
X133700475Y-106510000D02*
X133748094Y-106462380D01*
X133748094Y-106462380D02*
X133795713Y-106367142D01*
X133795713Y-106367142D02*
X133795713Y-106081428D01*
X133795713Y-106081428D02*
X133748094Y-105986190D01*
X133748094Y-105986190D02*
X133700475Y-105938571D01*
X133700475Y-105938571D02*
X133605237Y-105890952D01*
X133605237Y-105890952D02*
X133414761Y-105890952D01*
X133414761Y-105890952D02*
X133319523Y-105938571D01*
X132748094Y-106557619D02*
X132843332Y-106510000D01*
X132843332Y-106510000D02*
X132890951Y-106462380D01*
X132890951Y-106462380D02*
X132938570Y-106367142D01*
X132938570Y-106367142D02*
X132938570Y-106081428D01*
X132938570Y-106081428D02*
X132890951Y-105986190D01*
X132890951Y-105986190D02*
X132843332Y-105938571D01*
X132843332Y-105938571D02*
X132748094Y-105890952D01*
X132748094Y-105890952D02*
X132605237Y-105890952D01*
X132605237Y-105890952D02*
X132509999Y-105938571D01*
X132509999Y-105938571D02*
X132462380Y-105986190D01*
X132462380Y-105986190D02*
X132414761Y-106081428D01*
X132414761Y-106081428D02*
X132414761Y-106367142D01*
X132414761Y-106367142D02*
X132462380Y-106462380D01*
X132462380Y-106462380D02*
X132509999Y-106510000D01*
X132509999Y-106510000D02*
X132605237Y-106557619D01*
X132605237Y-106557619D02*
X132748094Y-106557619D01*
X131843332Y-106557619D02*
X131938570Y-106510000D01*
X131938570Y-106510000D02*
X131986189Y-106414761D01*
X131986189Y-106414761D02*
X131986189Y-105557619D01*
X131462379Y-105890952D02*
X131462379Y-106557619D01*
X131462379Y-105986190D02*
X131414760Y-105938571D01*
X131414760Y-105938571D02*
X131319522Y-105890952D01*
X131319522Y-105890952D02*
X131176665Y-105890952D01*
X131176665Y-105890952D02*
X131081427Y-105938571D01*
X131081427Y-105938571D02*
X131033808Y-106033809D01*
X131033808Y-106033809D02*
X131033808Y-106557619D01*
D11*
X150000000Y-150000000D02*
X150000000Y-100000000D01*
X150000000Y-100000000D02*
X100000000Y-100000000D01*
X100000000Y-100000000D02*
X100000000Y-150000000D01*
X100000000Y-150000000D02*
X150000000Y-150000000D01*
M02*
