%TF.GenerationSoftware,KiCad,Pcbnew,7.0.1*%
%TF.CreationDate,2023-04-22T15:39:36-05:00*%
%TF.ProjectId,HW4,4857342e-6b69-4636-9164-5f7063625858,rev?*%
%TF.SameCoordinates,Original*%
%TF.FileFunction,Copper,L1,Top*%
%TF.FilePolarity,Positive*%
%FSLAX46Y46*%
G04 Gerber Fmt 4.6, Leading zero omitted, Abs format (unit mm)*
G04 Created by KiCad (PCBNEW 7.0.1) date 2023-04-22 15:39:36*
%MOMM*%
%LPD*%
G01*
G04 APERTURE LIST*
%TA.AperFunction,ComponentPad*%
%ADD10C,1.600000*%
%TD*%
%TA.AperFunction,ComponentPad*%
%ADD11O,1.600000X1.600000*%
%TD*%
%TA.AperFunction,ComponentPad*%
%ADD12R,1.700000X1.700000*%
%TD*%
%TA.AperFunction,ComponentPad*%
%ADD13O,1.700000X1.700000*%
%TD*%
%TA.AperFunction,ComponentPad*%
%ADD14R,1.800000X1.800000*%
%TD*%
%TA.AperFunction,ComponentPad*%
%ADD15C,1.800000*%
%TD*%
%TA.AperFunction,ComponentPad*%
%ADD16R,1.050000X1.500000*%
%TD*%
%TA.AperFunction,ComponentPad*%
%ADD17O,1.050000X1.500000*%
%TD*%
%TA.AperFunction,ComponentPad*%
%ADD18C,1.700000*%
%TD*%
%TA.AperFunction,ComponentPad*%
%ADD19R,2.400000X1.600000*%
%TD*%
%TA.AperFunction,ComponentPad*%
%ADD20O,2.400000X1.600000*%
%TD*%
%TA.AperFunction,ViaPad*%
%ADD21C,0.800000*%
%TD*%
%TA.AperFunction,Conductor*%
%ADD22C,0.250000*%
%TD*%
%TA.AperFunction,Profile*%
%ADD23C,0.100000*%
%TD*%
G04 APERTURE END LIST*
D10*
%TO.P,R5,1*%
%TO.N,+3.3V*%
X106680000Y-124460000D03*
D11*
%TO.P,R5,2*%
%TO.N,Net-(U3-~{MCLR})*%
X114300000Y-124460000D03*
%TD*%
D10*
%TO.P,R3,1*%
%TO.N,Net-(D1-K)*%
X134620000Y-134620000D03*
D11*
%TO.P,R3,2*%
%TO.N,/GREEN*%
X134620000Y-127000000D03*
%TD*%
D12*
%TO.P,J1,1,Pin_1*%
%TO.N,unconnected-(J1-Pin_1-Pad1)*%
X110515000Y-101575000D03*
D13*
%TO.P,J1,2,Pin_2*%
%TO.N,/U1TX*%
X113055000Y-101575000D03*
%TO.P,J1,3,Pin_3*%
%TO.N,/U1RX*%
X115595000Y-101575000D03*
%TO.P,J1,4,Pin_4*%
%TO.N,+5V*%
X118135000Y-101575000D03*
%TO.P,J1,5,Pin_5*%
%TO.N,unconnected-(J1-Pin_5-Pad5)*%
X120675000Y-101575000D03*
%TO.P,J1,6,Pin_6*%
%TO.N,GND*%
X123215000Y-101575000D03*
%TD*%
D10*
%TO.P,C6,1*%
%TO.N,Net-(C1-Pad2)*%
X124460000Y-147320000D03*
%TO.P,C6,2*%
%TO.N,GND*%
X129460000Y-147320000D03*
%TD*%
%TO.P,C1,1*%
%TO.N,+3.3V*%
X116920000Y-147320000D03*
%TO.P,C1,2*%
%TO.N,Net-(C1-Pad2)*%
X121920000Y-147320000D03*
%TD*%
%TO.P,R1,1*%
%TO.N,GND*%
X140970000Y-109220000D03*
D11*
%TO.P,R1,2*%
%TO.N,Net-(D3-K)*%
X148590000Y-109220000D03*
%TD*%
D12*
%TO.P,SW2,1,1*%
%TO.N,Net-(U3-~{MCLR})*%
X109220000Y-142240000D03*
D13*
%TO.P,SW2,2,2*%
%TO.N,GND*%
X109220000Y-147320000D03*
%TD*%
D14*
%TO.P,D2,1,K*%
%TO.N,Net-(D2-K)*%
X139700000Y-139700000D03*
D15*
%TO.P,D2,2,A*%
%TO.N,+3.3V*%
X139700000Y-137160000D03*
%TD*%
D10*
%TO.P,C5,1*%
%TO.N,GND*%
X134660000Y-109220000D03*
%TO.P,C5,2*%
%TO.N,+3.3V*%
X137160000Y-109220000D03*
%TD*%
D16*
%TO.P,U2,1,VO*%
%TO.N,+3.3V*%
X144780000Y-104140000D03*
D17*
%TO.P,U2,2,GND*%
%TO.N,GND*%
X146050000Y-104140000D03*
%TO.P,U2,3,VI*%
%TO.N,/Vin*%
X147320000Y-104140000D03*
%TD*%
D14*
%TO.P,D1,1,K*%
%TO.N,Net-(D1-K)*%
X134620000Y-139700000D03*
D15*
%TO.P,D1,2,A*%
%TO.N,+3.3V*%
X134620000Y-137160000D03*
%TD*%
D12*
%TO.P,J4,1,Pin_1*%
%TO.N,/B15*%
X147320000Y-114300000D03*
D13*
%TO.P,J4,2,Pin_2*%
%TO.N,/B14*%
X147320000Y-116840000D03*
%TO.P,J4,3,Pin_3*%
%TO.N,/B13*%
X147320000Y-119380000D03*
%TO.P,J4,4,Pin_4*%
%TO.N,/B12*%
X147320000Y-121920000D03*
%TO.P,J4,5,Pin_5*%
%TO.N,/B11*%
X147320000Y-124460000D03*
%TO.P,J4,6,Pin_6*%
%TO.N,/B10*%
X147320000Y-127000000D03*
%TO.P,J4,7,Pin_7*%
%TO.N,/B9*%
X147320000Y-129540000D03*
%TO.P,J4,8,Pin_8*%
%TO.N,/B8*%
X147320000Y-132080000D03*
%TO.P,J4,9,Pin_9*%
%TO.N,/B7*%
X147320000Y-134620000D03*
%TO.P,J4,10,Pin_10*%
%TO.N,/Vin*%
X147320000Y-137160000D03*
%TO.P,J4,11,Pin_11*%
%TO.N,+3.3V*%
X147320000Y-139700000D03*
%TO.P,J4,12,Pin_12*%
%TO.N,GND*%
X147320000Y-142240000D03*
%TD*%
D12*
%TO.P,J3,1,Pin_1*%
%TO.N,/A0*%
X101600000Y-114300000D03*
D13*
%TO.P,J3,2,Pin_2*%
%TO.N,/A1*%
X101600000Y-116840000D03*
%TO.P,J3,3,Pin_3*%
%TO.N,/B0*%
X101600000Y-119380000D03*
%TO.P,J3,4,Pin_4*%
%TO.N,/B1*%
X101600000Y-121920000D03*
%TO.P,J3,5,Pin_5*%
%TO.N,/B2*%
X101600000Y-124460000D03*
%TO.P,J3,6,Pin_6*%
%TO.N,/A3*%
X101600000Y-127000000D03*
%TO.P,J3,7,Pin_7*%
%TO.N,/GREEN*%
X101600000Y-129540000D03*
%TO.P,J3,8,Pin_8*%
%TO.N,/YELLOW*%
X101600000Y-132080000D03*
%TO.P,J3,9,Pin_9*%
%TO.N,/B6*%
X101600000Y-134620000D03*
%TO.P,J3,10,Pin_10*%
%TO.N,/Vin*%
X101600000Y-137160000D03*
%TO.P,J3,11,Pin_11*%
%TO.N,+3.3V*%
X101600000Y-139700000D03*
%TO.P,J3,12,Pin_12*%
%TO.N,GND*%
X101600000Y-142240000D03*
%TD*%
D10*
%TO.P,R2,1*%
%TO.N,Net-(D2-K)*%
X148590000Y-147320000D03*
D11*
%TO.P,R2,2*%
%TO.N,/YELLOW*%
X140970000Y-147320000D03*
%TD*%
D10*
%TO.P,C3,1*%
%TO.N,GND*%
X116840000Y-142240000D03*
%TO.P,C3,2*%
%TO.N,+3.3V*%
X119340000Y-142240000D03*
%TD*%
%TO.P,R4,1*%
%TO.N,+3.3V*%
X116840000Y-137160000D03*
D11*
%TO.P,R4,2*%
%TO.N,/A4*%
X116840000Y-129540000D03*
%TD*%
D18*
%TO.P,S2,1*%
%TO.N,+5V*%
X132160000Y-104140000D03*
%TO.P,S2,2*%
%TO.N,/Vin*%
X134660000Y-104140000D03*
%TO.P,S2,3*%
%TO.N,Net-(J2-Pin_1)*%
X137160000Y-104140000D03*
%TD*%
D10*
%TO.P,C4,1*%
%TO.N,GND*%
X137240000Y-129540000D03*
%TO.P,C4,2*%
%TO.N,Net-(U3-VCAP)*%
X142240000Y-129540000D03*
%TD*%
D12*
%TO.P,J2,1,Pin_1*%
%TO.N,Net-(J2-Pin_1)*%
X104140000Y-104140000D03*
D13*
%TO.P,J2,2,Pin_2*%
%TO.N,GND*%
X104140000Y-106680000D03*
%TD*%
D12*
%TO.P,SW1,1,1*%
%TO.N,GND*%
X109220000Y-132080000D03*
D13*
%TO.P,SW1,2,2*%
%TO.N,/A4*%
X109220000Y-137160000D03*
%TD*%
D14*
%TO.P,D3,1,K*%
%TO.N,Net-(D3-K)*%
X139700000Y-116840000D03*
D15*
%TO.P,D3,2,A*%
%TO.N,+3.3V*%
X139700000Y-114300000D03*
%TD*%
D19*
%TO.P,U3,1,~{MCLR}*%
%TO.N,Net-(U3-~{MCLR})*%
X121920000Y-109220000D03*
D20*
%TO.P,U3,2,A0*%
%TO.N,/A0*%
X121920000Y-111760000D03*
%TO.P,U3,3,A1*%
%TO.N,/A1*%
X121920000Y-114300000D03*
%TO.P,U3,4,B0*%
%TO.N,/B0*%
X121920000Y-116840000D03*
%TO.P,U3,5,B1*%
%TO.N,/B1*%
X121920000Y-119380000D03*
%TO.P,U3,6,B2*%
%TO.N,/B2*%
X121920000Y-121920000D03*
%TO.P,U3,7,B3*%
%TO.N,/U1TX*%
X121920000Y-124460000D03*
%TO.P,U3,8,VSS*%
%TO.N,GND*%
X121920000Y-127000000D03*
%TO.P,U3,9,A2*%
%TO.N,/U1RX*%
X121920000Y-129540000D03*
%TO.P,U3,10,A3*%
%TO.N,/A3*%
X121920000Y-132080000D03*
%TO.P,U3,11,B4*%
%TO.N,/GREEN*%
X121920000Y-134620000D03*
%TO.P,U3,12,A4*%
%TO.N,/A4*%
X121920000Y-137160000D03*
%TO.P,U3,13,VDD*%
%TO.N,+3.3V*%
X121920000Y-139700000D03*
%TO.P,U3,14,B5*%
%TO.N,/YELLOW*%
X121920000Y-142240000D03*
%TO.P,U3,15,B6*%
%TO.N,/B6*%
X129540000Y-142240000D03*
%TO.P,U3,16,B7*%
%TO.N,/B7*%
X129540000Y-139700000D03*
%TO.P,U3,17,B8*%
%TO.N,/B8*%
X129540000Y-137160000D03*
%TO.P,U3,18,B9*%
%TO.N,/B9*%
X129540000Y-134620000D03*
%TO.P,U3,19,VSS*%
%TO.N,GND*%
X129540000Y-132080000D03*
%TO.P,U3,20,VCAP*%
%TO.N,Net-(U3-VCAP)*%
X129540000Y-129540000D03*
%TO.P,U3,21,B10*%
%TO.N,/B10*%
X129540000Y-127000000D03*
%TO.P,U3,22,B11*%
%TO.N,/B11*%
X129540000Y-124460000D03*
%TO.P,U3,23,B12*%
%TO.N,/B12*%
X129540000Y-121920000D03*
%TO.P,U3,24,B13*%
%TO.N,/B13*%
X129540000Y-119380000D03*
%TO.P,U3,25,B14*%
%TO.N,/B14*%
X129540000Y-116840000D03*
%TO.P,U3,26,B15*%
%TO.N,/B15*%
X129540000Y-114300000D03*
%TO.P,U3,27,AVSS*%
%TO.N,GND*%
X129540000Y-111760000D03*
%TO.P,U3,28,AVDD*%
%TO.N,+3.3V*%
X129540000Y-109220000D03*
%TD*%
D10*
%TO.P,C2,1*%
%TO.N,/Vin*%
X114380000Y-106680000D03*
%TO.P,C2,2*%
%TO.N,GND*%
X119380000Y-106680000D03*
%TD*%
D21*
%TO.N,Net-(D1-K)*%
X137160000Y-139700000D03*
X137160000Y-134620000D03*
%TO.N,/U1RX*%
X115699503Y-124460000D03*
%TO.N,/U1TX*%
X113055000Y-101575000D03*
X111760000Y-109220000D03*
X116840000Y-109220000D03*
X116840000Y-124460000D03*
%TO.N,+3.3V*%
X124460000Y-139700000D03*
X132592300Y-137672300D03*
X116840000Y-140424500D03*
%TO.N,/YELLOW*%
X104140000Y-139700000D03*
X103627700Y-132592300D03*
%TO.N,/Vin*%
X134620000Y-106680000D03*
%TO.N,Net-(D3-K)*%
X139700000Y-111760000D03*
%TO.N,/A4*%
X109220000Y-135344500D03*
X116840000Y-135344500D03*
%TD*%
D22*
%TO.N,Net-(D1-K)*%
X137160000Y-139700000D02*
X134620000Y-139700000D01*
X134620000Y-134620000D02*
X137160000Y-134620000D01*
%TO.N,/U1RX*%
X120779503Y-129540000D02*
X115699503Y-124460000D01*
X121920000Y-129540000D02*
X120779503Y-129540000D01*
%TO.N,/U1TX*%
X116840000Y-109220000D02*
X111760000Y-109220000D01*
X121920000Y-124460000D02*
X116840000Y-124460000D01*
%TO.N,+3.3V*%
X124460000Y-139700000D02*
X121920000Y-139700000D01*
X133104600Y-137160000D02*
X132592300Y-137672300D01*
X134620000Y-137160000D02*
X133104600Y-137160000D01*
X139700000Y-137160000D02*
X134620000Y-137160000D01*
X144780000Y-137160000D02*
X139700000Y-137160000D01*
X147320000Y-139700000D02*
X144780000Y-137160000D01*
X119340000Y-142240000D02*
X117524500Y-140424500D01*
X117524500Y-140424500D02*
X116840000Y-140424500D01*
X119340000Y-144900000D02*
X116920000Y-147320000D01*
X119340000Y-142240000D02*
X119340000Y-144900000D01*
X116714500Y-140550000D02*
X116840000Y-140424500D01*
X102450000Y-140550000D02*
X116714500Y-140550000D01*
X101600000Y-139700000D02*
X102450000Y-140550000D01*
%TO.N,/YELLOW*%
X104140000Y-139700000D02*
X119380000Y-139700000D01*
%TO.N,/B6*%
X125875000Y-138575000D02*
X129540000Y-142240000D01*
X105555000Y-138575000D02*
X125875000Y-138575000D01*
X101600000Y-134620000D02*
X105555000Y-138575000D01*
%TO.N,/YELLOW*%
X119380000Y-139700000D02*
X121920000Y-142240000D01*
X103821802Y-132398198D02*
X103627700Y-132592300D01*
X103503604Y-132080000D02*
X103821802Y-132398198D01*
X101600000Y-132080000D02*
X103503604Y-132080000D01*
%TO.N,+3.3V*%
X136035000Y-108095000D02*
X137160000Y-109220000D01*
X144780000Y-104140000D02*
X142240000Y-104140000D01*
X130665000Y-108095000D02*
X136035000Y-108095000D01*
X129540000Y-109220000D02*
X130665000Y-108095000D01*
X142240000Y-104140000D02*
X137160000Y-109220000D01*
%TO.N,Net-(C1-Pad2)*%
X124460000Y-147320000D02*
X121920000Y-147320000D01*
%TO.N,/Vin*%
X146370000Y-102965000D02*
X147320000Y-103915000D01*
X115505000Y-107805000D02*
X114380000Y-106680000D01*
X147320000Y-103915000D02*
X147320000Y-104140000D01*
X120970991Y-106680000D02*
X119845991Y-107805000D01*
X134660000Y-104140000D02*
X135835000Y-102965000D01*
X135835000Y-102965000D02*
X146370000Y-102965000D01*
X134620000Y-106680000D02*
X120970991Y-106680000D01*
X119845991Y-107805000D02*
X115505000Y-107805000D01*
%TO.N,Net-(U3-VCAP)*%
X136774009Y-128415000D02*
X141115000Y-128415000D01*
X135649009Y-129540000D02*
X136774009Y-128415000D01*
X129540000Y-129540000D02*
X135649009Y-129540000D01*
X141115000Y-128415000D02*
X142240000Y-129540000D01*
%TO.N,Net-(D2-K)*%
X147320000Y-147320000D02*
X139700000Y-139700000D01*
X148590000Y-147320000D02*
X147320000Y-147320000D01*
%TO.N,Net-(D3-K)*%
X148590000Y-109220000D02*
X146050000Y-111760000D01*
X146050000Y-111760000D02*
X139700000Y-111760000D01*
%TO.N,+5V*%
X118135000Y-101575000D02*
X120700000Y-104140000D01*
X120700000Y-104140000D02*
X132160000Y-104140000D01*
%TO.N,Net-(J2-Pin_1)*%
X105315000Y-105315000D02*
X135985000Y-105315000D01*
X104140000Y-104140000D02*
X105315000Y-105315000D01*
X135985000Y-105315000D02*
X137160000Y-104140000D01*
%TO.N,/A0*%
X104140000Y-111760000D02*
X101600000Y-114300000D01*
X121920000Y-111760000D02*
X104140000Y-111760000D01*
%TO.N,/A1*%
X121920000Y-114300000D02*
X104140000Y-114300000D01*
X104140000Y-114300000D02*
X101600000Y-116840000D01*
%TO.N,/B0*%
X104140000Y-116840000D02*
X101600000Y-119380000D01*
X121920000Y-116840000D02*
X104140000Y-116840000D01*
%TO.N,/B1*%
X104140000Y-119380000D02*
X101600000Y-121920000D01*
X121920000Y-119380000D02*
X104140000Y-119380000D01*
%TO.N,/B2*%
X104140000Y-121920000D02*
X101600000Y-124460000D01*
X121920000Y-121920000D02*
X104140000Y-121920000D01*
%TO.N,/A3*%
X116840000Y-127000000D02*
X101600000Y-127000000D01*
X121920000Y-132080000D02*
X116840000Y-127000000D01*
%TO.N,/GREEN*%
X128125000Y-128415000D02*
X133205000Y-128415000D01*
X121920000Y-134620000D02*
X106680000Y-134620000D01*
X106680000Y-134620000D02*
X101600000Y-129540000D01*
X133205000Y-128415000D02*
X134620000Y-127000000D01*
X121920000Y-134620000D02*
X128125000Y-128415000D01*
%TO.N,/YELLOW*%
X139845000Y-148445000D02*
X128125000Y-148445000D01*
X128125000Y-148445000D02*
X121920000Y-142240000D01*
X140970000Y-147320000D02*
X139845000Y-148445000D01*
%TO.N,/B15*%
X146095000Y-113075000D02*
X147320000Y-114300000D01*
X130765000Y-113075000D02*
X146095000Y-113075000D01*
X129540000Y-114300000D02*
X130765000Y-113075000D01*
%TO.N,/B14*%
X146095000Y-115615000D02*
X147320000Y-116840000D01*
X129540000Y-116840000D02*
X130765000Y-115615000D01*
X130765000Y-115615000D02*
X146095000Y-115615000D01*
%TO.N,/B13*%
X129540000Y-119380000D02*
X147320000Y-119380000D01*
%TO.N,/B12*%
X147320000Y-121920000D02*
X129540000Y-121920000D01*
%TO.N,/B11*%
X129540000Y-124460000D02*
X147320000Y-124460000D01*
%TO.N,/B10*%
X147320000Y-127000000D02*
X146145000Y-125825000D01*
X130715000Y-125825000D02*
X129540000Y-127000000D01*
X146145000Y-125825000D02*
X130715000Y-125825000D01*
%TO.N,/B9*%
X133495000Y-130665000D02*
X129540000Y-134620000D01*
X147320000Y-129540000D02*
X146195000Y-130665000D01*
X146195000Y-130665000D02*
X133495000Y-130665000D01*
%TO.N,/B8*%
X134620000Y-132080000D02*
X129540000Y-137160000D01*
X147320000Y-132080000D02*
X134620000Y-132080000D01*
%TO.N,/B7*%
X133495000Y-135745000D02*
X129540000Y-139700000D01*
X147320000Y-134620000D02*
X146195000Y-135745000D01*
X146195000Y-135745000D02*
X133495000Y-135745000D01*
%TO.N,/A4*%
X116840000Y-135344500D02*
X109220000Y-135344500D01*
X121920000Y-137160000D02*
X118655500Y-137160000D01*
X118655500Y-137160000D02*
X116840000Y-135344500D01*
%TD*%
D23*
X150000000Y-150000000D02*
X150000000Y-100000000D01*
X150000000Y-100000000D02*
X100000000Y-100000000D01*
X100000000Y-100000000D02*
X100000000Y-150000000D01*
X100000000Y-150000000D02*
X150000000Y-150000000D01*
M02*
